<svg width="66" height="65" viewBox="0 0 66 65" fill="none" xmlns="http://www.w3.org/2000/svg">
<path d="M55.9906 12.7331C56.4807 14.6673 56.2798 15.1591 54.5861 16.407C53.1837 17.4409 51.8027 18.5042 50.3108 19.6304C50.5686 19.6502 50.7329 19.6755 50.8946 19.674C53.282 19.6466 55.5235 20.107 57.4956 21.5549C57.7132 21.7137 58.0645 21.7334 58.3558 21.7412C61.3203 21.8095 63.5824 23.1249 65.1916 25.5818C65.688 26.3402 65.5378 26.987 64.8548 27.3069C64.248 27.5906 63.8393 27.4253 63.3577 26.6735C62.5811 25.4611 61.5184 24.6123 60.1601 24.1365C59.9464 24.0619 59.7166 24.0246 59.4054 23.9487C59.7222 25.2765 59.5742 26.4844 58.7344 27.4684C58.3118 27.9631 57.7089 28.3924 57.1021 28.6254C55.9541 29.0659 54.5158 28.4165 53.8153 27.2988C52.9227 25.8741 53.3007 24.4122 55.0203 22.6285C52.9268 21.1098 47.4152 21.701 45.189 23.7163C49.6748 24.4206 52.7202 26.8135 53.673 31.307C54.5978 35.6683 52.9408 39.2449 49.6851 42.2096C51.4975 44.5327 52.1927 47.148 51.7787 50.0395C51.4105 52.5996 50.249 54.7676 48.4131 56.5822C44.8176 60.135 38.7578 61.2557 34.1223 57.5829C32.3367 59.9879 30.0226 61.6371 27.0588 62.2596C24.0937 62.8806 21.3513 62.3472 18.8331 60.5431C18.6232 60.753 18.4079 60.9603 18.2006 61.1755C15.6346 63.8537 12.5125 65.1924 8.80399 64.8775C3.46032 64.4251 -0.26197 59.8605 0.239589 54.4625C0.520024 51.4509 1.79272 48.9128 4.02693 46.8628C4.16599 46.7344 4.3077 46.6114 4.44275 46.479C4.47351 46.4482 4.48691 46.3974 4.44543 46.4763C3.8746 45.3118 3.32508 44.2274 2.81565 43.1243C2.66096 42.7877 2.61052 42.4003 2.52799 42.0343C2.41086 41.5134 2.43532 41.0297 3.01136 40.7821C3.48314 40.58 4.1843 40.8693 4.4631 41.37C4.54315 41.5116 4.60313 41.6705 4.64041 41.8281C5.8732 46.9788 11.3826 48.91 15.9403 46.6697C17.5482 45.8787 18.7397 44.6205 19.9953 43.3142C18.9985 41.9135 18.3518 40.3683 18.1435 38.6571C17.9392 36.9765 18.149 35.3357 18.7142 33.6412C18.3908 33.727 18.1717 33.7833 17.9539 33.8409C14.8509 34.6692 11.9294 34.3363 9.26291 32.4695C8.90908 32.2226 8.68721 32.327 8.39043 32.5383C7.13783 33.4359 6.20297 34.5977 5.44834 35.9263C5.01884 36.6842 4.13031 36.7825 3.68333 36.0788C3.50188 35.7903 3.48097 35.2426 3.6322 34.9285C4.32147 33.4863 5.32985 32.2751 6.5772 31.268C6.8125 31.0781 7.04646 30.8895 7.29513 30.6889C7.00428 30.2189 6.72807 29.8116 6.49195 29.3829C4.22421 25.2646 5.2014 19.8583 8.82088 16.4444C12.3521 13.1134 17.3268 12.2875 21.2876 14.379C21.739 14.6165 22.2182 15.109 22.6217 15.0499C23.0346 14.9894 23.3571 14.384 23.7382 14.0349C25.0431 12.8421 26.5269 11.9564 28.216 11.4126C28.4713 11.3309 28.7881 11.1288 28.8845 10.9016C30.2901 7.61386 32.7196 5.22168 35.6044 3.25263C36.7674 2.45806 38.0252 1.79834 39.2655 1.12661C40.0729 0.690388 40.4455 0.803635 41.0368 1.52592C43.6286 4.69275 45.5362 8.18348 46.1032 12.3046C46.1085 12.3474 46.1445 12.3861 46.1672 12.4248C46.5416 12.0905 46.8906 11.7201 47.2956 11.4272C48.3664 10.65 49.5651 10.4019 50.8487 10.7361C52.3019 11.1143 53.7472 11.5326 55.1937 11.9335C55.4607 12.2005 55.7263 12.4661 55.9933 12.7331L55.9906 12.7331ZM37.7635 41.0921C38.4646 41.4482 39.1376 41.8832 39.8722 42.1524C44.0526 43.6746 48.947 41.4393 50.9693 37.121C52.8137 33.1808 51.4988 28.6836 47.9333 26.736C44.492 24.8565 39.0773 26.2238 37.0372 29.4573C37.4814 30.2786 37.9523 31.0651 38.3391 31.8904C38.6138 32.4754 38.3796 32.9846 37.8329 33.2483C37.309 33.4999 36.7614 33.324 36.4465 32.7872C36.3518 32.6256 36.2878 32.4466 36.2025 32.2784C35.2728 30.4528 33.855 29.1795 31.8996 28.5425C26.8789 26.9048 21.2433 30.5168 20.3034 35.9605C19.369 41.3775 23.8008 45.8173 29.2032 44.8014C32.8391 44.1183 35.2497 41.9185 36.5339 38.4665C36.8285 37.6753 37.3257 37.381 37.9722 37.6182C38.5839 37.8449 38.8065 38.3858 38.544 39.1341C38.3271 39.7516 38.0607 40.3517 37.7635 41.0947L37.7635 41.0921ZM24.9111 15.7481C24.4523 16.3724 23.9267 16.9593 23.5441 17.6276C21.8288 20.6218 21.6526 23.6386 23.5231 26.6431C23.8246 27.1291 24.0876 27.4055 24.7973 27.0856C28.2469 25.5289 31.647 25.5941 34.893 27.6742C35.2629 27.9104 35.4741 27.814 35.7495 27.568C37.0759 26.3724 38.0083 24.9248 38.5535 23.2289C39.7483 19.5138 38.4395 15.8435 35.2867 14.0359C32.1192 12.2189 27.8179 12.9507 24.9151 15.7467L24.9111 15.7481ZM22.2201 28.7123C19.6327 24.9349 19.4824 21.0513 21.4471 16.9106C20.73 16.5438 20.0584 16.1049 19.3238 15.8383C14.0001 13.9029 7.87494 18.0738 7.42377 23.9125C7.10498 28.0437 9.92487 31.7221 13.8631 32.181C17.2682 32.5776 19.8668 30.9268 22.2187 28.7137L22.2201 28.7123ZM21.4769 44.9054C19.676 46.4901 18.1474 48.2376 17.5202 50.6296C16.2308 55.5419 19.3839 60.1097 24.3537 60.3567C27.6855 60.5222 30.3067 59.0704 32.3103 56.4314C32.5818 56.0745 32.602 55.8273 32.3632 55.4414C30.7795 52.8709 30.5107 50.1096 31.272 47.2178C31.3336 46.98 31.3913 46.7408 31.457 46.4748C26.6091 47.4569 25.3093 47.2536 21.4769 44.9054ZM36.5837 42.7871C35.0567 44.2954 33.8222 45.869 33.2714 47.8988C32.1229 52.131 34.3038 56.2561 38.3335 57.4217C42.2217 58.5473 46.7138 56.5301 48.6903 52.7035C50.2091 49.7616 50.217 46.8331 48.369 43.9983C48.0768 43.551 47.7963 43.3882 47.2336 43.6733C45.6939 44.4521 44.0343 44.7635 42.3109 44.7275C40.204 44.6825 38.2981 44.0282 36.5837 42.7871ZM6.14502 47.8389C3.66368 49.8504 2.30417 52.3579 2.3122 55.5082C2.32094 59.3867 5.20142 62.5078 9.07162 62.7838C12.2765 63.0122 14.9002 61.7528 16.9717 59.3289C17.0907 59.1885 17.0857 58.7903 16.9723 58.6288C15.2563 56.1693 14.8097 53.4656 15.3799 50.5593C15.4739 50.0782 15.6159 49.6078 15.7486 49.08C12.3395 50.161 9.14933 49.8752 6.14636 47.8403L6.14502 47.8389ZM31.304 10.9116C33.8357 10.9482 36.0274 11.7306 37.8858 13.3723C39.7415 15.0114 40.7698 17.0934 41.1016 19.6689C41.9148 18.5353 42.6024 17.4926 43.3781 16.522C43.9465 15.8095 44.1276 15.0197 44.1443 14.1593C44.2254 9.90003 42.1575 6.52434 39.7634 3.28252C36.4369 4.66276 32.2734 8.40979 31.304 10.9116ZM40.5701 24.1143C40.6075 24.1463 40.6462 24.1797 40.6836 24.2117C45.1875 20.8238 49.6914 17.4332 54.2581 13.9985C54.0538 13.853 53.9871 13.7756 53.9069 13.7543C52.6594 13.416 51.4172 13.0429 50.1549 12.7674C49.2786 12.5758 48.5289 12.9118 47.9992 13.655C46.2188 16.1455 44.4452 18.64 42.6715 21.1345C41.9666 22.1251 41.271 23.1224 40.5701 24.117V24.1143ZM55.9512 24.6344C55.3576 25.1693 55.2755 25.82 55.7107 26.2739C56.1044 26.6864 56.6656 26.6992 57.0854 26.3088C57.5895 25.8394 57.6691 24.8226 57.1458 24.3261C56.6319 23.8389 56.3187 24.5285 55.9512 24.6344Z" fill="#4C192A"/>
</svg>
