<svg width="596" height="92" viewBox="0 0 596 92" fill="none" xmlns="http://www.w3.org/2000/svg">
<g clip-path="url(#clip0_1146_508)">
<path d="M2.46864 90.7246C1.52818 90.7246 0.822837 90.3889 0.352607 89.7008C-0.117623 89.0128 -0.134417 88.2408 0.285432 87.4017L40.0703 1.4097C40.4901 0.469901 41.2122 0 42.2367 0H43.513C44.5374 0 45.2596 0.469901 45.6962 1.4097L85.078 87.4017C85.4979 88.2576 85.4811 89.0296 85.0108 89.7008C84.5406 90.3721 83.8353 90.7246 82.8948 90.7246H71.7772C70.1482 90.7246 68.9222 89.8687 68.0658 88.1737L61.8016 74.3787H23.5786L17.3145 88.1737C16.6259 89.8687 15.4 90.7246 13.603 90.7246H2.46864ZM29.8428 60.181H55.5375L42.7573 32.0708H42.371L29.8428 60.181Z" fill="white"/>
<path d="M88.2688 88.2911V85.992L126.374 17.2521V16.7319H94.4154C93.8108 16.7319 93.2566 16.4969 92.7528 16.027C92.2322 15.5571 91.9803 14.9865 91.9803 14.3152V3.70887C91.9803 3.1215 92.2322 2.56768 92.7528 2.04744C93.2566 1.54397 93.8108 1.29224 94.4154 1.29224H147.854C148.458 1.29224 149.012 1.54397 149.516 2.04744C150.037 2.56768 150.289 3.1215 150.289 3.70887V5.37031L112.687 74.9996V75.2514H145.284C145.973 75.2514 146.544 75.4863 147.014 75.9562C147.484 76.4261 147.719 76.9967 147.719 77.6848V88.2911C147.719 88.9792 147.484 89.5498 147.014 90.0197C146.544 90.4896 145.973 90.7246 145.284 90.7246H90.7039C90.0154 90.7246 89.4444 90.4728 88.9741 89.9526C88.5039 89.4491 88.2688 88.8953 88.2688 88.2911Z" fill="white"/>
<path d="M184.297 90.7246C183.356 90.7246 182.651 90.3889 182.181 89.7008C181.71 89.0128 181.694 88.2408 182.113 87.4017L221.881 1.4097C222.301 0.469901 223.023 0 224.048 0H225.324C226.349 0 227.071 0.469901 227.507 1.4097L266.889 87.4017C267.309 88.2576 267.292 89.0296 266.822 89.7008C266.352 90.3721 265.646 90.7246 264.706 90.7246H253.588C251.959 90.7246 250.733 89.8687 249.877 88.1737L243.613 74.3787H205.39L199.126 88.1737C198.437 89.8687 197.211 90.7246 195.414 90.7246H184.297ZM211.654 60.181H237.349L224.569 32.0708H224.182L211.654 60.181Z" fill="white"/>
<path d="M278.527 88.2911V3.70887C278.527 3.03758 278.762 2.45021 279.233 1.99709C279.703 1.52719 280.274 1.29224 280.962 1.29224H310.251C317.842 1.29224 324.224 3.54105 329.43 8.05546C334.636 12.5699 337.222 18.1919 337.222 24.9216C337.222 29.436 335.744 33.5476 332.805 37.2565C329.866 40.9654 326.642 43.6337 323.149 45.2448C327.331 46.6209 331.143 49.1047 334.602 52.7297C338.045 56.3546 339.775 60.8019 339.775 66.0715C339.775 73.1368 337.088 79.0274 331.714 83.7096C326.34 88.3918 319.74 90.7413 311.897 90.7413H280.962C280.274 90.7413 279.703 90.5064 279.233 90.0365C278.762 89.5498 278.527 88.9792 278.527 88.2911ZM295.019 38.8508H308.706C311.947 38.8508 314.584 37.7432 316.633 35.5279C318.682 33.3127 319.706 30.594 319.706 27.355C319.706 24.116 318.682 21.498 316.633 19.4841C314.584 17.4871 311.947 16.4801 308.706 16.4801H295.019V38.8508ZM295.019 75.6374H310.486C313.727 75.6374 316.448 74.5297 318.665 72.3145C320.882 70.0992 321.99 67.3302 321.99 64.0073C321.99 60.8522 320.663 58.2174 318.027 56.0861C315.39 53.9548 312.35 52.8975 308.941 52.8975H295.002V75.6374H295.019Z" fill="white"/>
<path d="M357.408 88.2911V3.70887C357.408 3.03758 357.644 2.45021 358.114 1.99709C358.584 1.52719 359.155 1.29224 359.844 1.29224H396.421C404.096 1.29224 410.645 3.97739 416.103 9.34769C421.561 14.718 424.282 21.1791 424.282 28.7647C424.282 34.5546 422.552 39.7402 419.109 44.2882C415.65 48.853 411.065 52.2766 405.355 54.5757L422.871 87.0325C423.375 87.8884 423.409 88.7275 422.938 89.533C422.468 90.3386 421.729 90.7413 420.705 90.7413H407.286C406.346 90.7413 405.674 90.3554 405.238 89.5834L388.225 55.7169H374.034V88.3079C374.034 88.9121 373.799 89.4659 373.329 89.9694C372.859 90.4728 372.288 90.7413 371.599 90.7413H359.844C359.155 90.7413 358.584 90.5064 358.114 90.0365C357.644 89.5498 357.408 88.9792 357.408 88.2911ZM374.169 42.0394H395.01C398.419 42.0394 401.375 40.764 403.894 38.2131C406.413 35.6622 407.673 32.591 407.673 29.0164C407.673 25.6096 406.413 22.6895 403.894 20.2561C401.375 17.8395 398.419 16.6144 395.01 16.6144H374.169V42.0394Z" fill="white"/>
<path d="M433.099 90.7246C432.158 90.7246 431.453 90.3889 430.983 89.7008C430.512 89.0128 430.496 88.2408 430.915 87.4017L470.683 1.4097C471.103 0.469901 471.825 0 472.85 0H474.126C475.151 0 475.873 0.469901 476.309 1.4097L515.691 87.4017C516.111 88.2576 516.094 89.0296 515.624 89.7008C515.154 90.3721 514.448 90.7246 513.508 90.7246H502.39C500.778 90.7246 499.535 89.8687 498.679 88.1737L492.415 74.3787H454.192L447.928 88.1737C447.256 89.8687 446.013 90.7246 444.216 90.7246H433.099ZM460.473 60.181H486.167L473.387 32.0708H473.001L460.473 60.181Z" fill="white"/>
<path d="M524.777 56.8581V3.70887C524.777 3.1215 525.012 2.56768 525.482 2.04744C525.952 1.54397 526.523 1.29224 527.212 1.29224H539.354C540.043 1.29224 540.614 1.52719 541.084 1.99709C541.554 2.46699 541.789 3.03758 541.789 3.70887V55.9686C541.789 61.5068 543.519 66.1219 546.962 69.8307C550.421 73.5228 554.872 75.3856 560.33 75.3856C565.788 75.3856 570.255 73.5396 573.748 69.8307C577.241 66.1219 578.988 61.5403 578.988 56.0861V3.70887C578.988 3.03758 579.223 2.45021 579.693 1.99709C580.163 1.52719 580.734 1.29224 581.423 1.29224H593.565C594.153 1.29224 594.707 1.54397 595.227 2.04744C595.748 2.56768 596 3.1215 596 3.70887V56.8581C596 66.6589 592.574 74.9493 585.705 81.7796C578.837 88.5932 570.389 92 560.33 92C550.354 92 541.94 88.5932 535.071 81.7796C528.22 74.9661 524.777 66.6589 524.777 56.8581Z" fill="white"/>
</g>
<defs>
<clipPath id="clip0_1146_508">
<rect width="596" height="92" fill="white"/>
</clipPath>
</defs>
</svg>
