<?xml version="1.0" encoding="utf-8"?>
<!-- Generator: Adobe Illustrator 27.0.0, SVG Export Plug-In . SVG Version: 6.00 Build 0)  -->
<svg version="1.1" id="Layer_1" xmlns="http://www.w3.org/2000/svg" xmlns:xlink="http://www.w3.org/1999/xlink" x="0px" y="0px"
	 viewBox="0 0 183.66 206" style="enable-background:new 0 0 183.66 206;" xml:space="preserve">
<style type="text/css">
	.st0{fill:#6A371A;}
	.st1{fill:#974E24;}
</style>
<g>
	<path class="st0" d="M87.21,82.67l1.66-1.68c0.36-0.37,0.61-0.82,0.72-1.32c0.21-0.92-0.07-1.87-0.75-2.54l-3.5-3.45
		c-0.52-0.51-1.21-0.79-1.94-0.79c-0.01,0-0.02,0-0.03,0L62.39,52.17c-0.96-3.41-5.77-20.05-9.71-24.37
		C46.35,20.87,26.3,3.2,25.05,2.1c-1.32-1.29-3.16-2.05-5.04-2.1c-1.98-0.05-3.8,0.68-5.14,2.03L1.95,15.12
		c-0.88,0.9-1.5,2.03-1.77,3.27c-0.54,2.44,0.23,5.06,2.02,6.86c1.13,1.25,19.1,21.18,26.12,27.42c4.39,3.9,21.66,7.71,25.3,8.47
		l20.96,20.69c0,0.73,0.28,1.43,0.81,1.95l3.5,3.45c1.07,1.06,2.8,1.05,3.86-0.02l1.58-1.6L87.21,82.67z M55.22,58.13l-0.47-0.1
		c-5.6-1.16-20.89-4.82-24.26-7.81c-6.95-6.18-25.7-26.99-25.89-27.19l-0.07-0.07c-1-0.99-1.46-2.5-1.16-3.85
		c0.15-0.65,0.45-1.22,0.91-1.68L17.2,4.33c0.69-0.7,1.67-1.08,2.73-1.05c1.07,0.02,2.11,0.46,2.84,1.19l0.07,0.06
		c0.21,0.19,21.14,18.61,27.41,25.49c3.07,3.36,7.6,18.07,9.09,23.45l0.12,0.42L79.94,74.1l-4.22,4.28L55.22,58.13z M80.81,85.3
		l-3.53-3.46c0,0-0.01,0-0.01,0l0,0l6.14-6.22l3.47,3.45L80.81,85.3z"/>
	<path class="st1" d="M49.42,31.51c-0.12-0.14-0.27-0.28-0.43-0.44H14.65c4.51,4.82,9.89,10.49,13.9,14.44
		c1.33,1.31,2.44,2.37,3.3,3.13c2.23,1.98,13.11,5.67,22.54,7.55l1.18,0.26l20.99,20.6c1-1,1-1,1.98-1.98L57.67,54.33
		C57.15,52.67,51.03,33.28,49.42,31.51z"/>
	
		<rect x="80.65" y="78.45" transform="matrix(0.7071 -0.7071 0.7071 0.7071 -32.9397 81.626)" class="st1" width="2.83" height="4.24"/>
	
		<rect x="88.65" y="84.04" transform="matrix(0.7071 -0.7071 0.7071 0.7071 -35.5463 89.3331)" class="st1" width="2.83" height="7.07"/>
	
		<rect x="90.53" y="86.16" transform="matrix(0.7071 -0.7071 0.7071 0.7071 -34.3747 92.1615)" class="st1" width="7.07" height="2.83"/>
	<rect x="90.65" y="88.04" class="st1" width="2.83" height="7.07"/>
	<path class="st0" d="M99.35,85.61l1.58,1.6c1.06,1.07,2.79,1.08,3.86,0.02l3.5-3.45c0.53-0.52,0.81-1.22,0.81-1.95l20.96-20.69
		c3.64-0.77,20.91-4.57,25.3-8.47c7.01-6.24,24.99-26.16,26.12-27.42c1.79-1.79,2.56-4.41,2.02-6.86c-0.28-1.25-0.89-2.38-1.77-3.27
		L168.79,2.03c-1.34-1.35-3.16-2.07-5.14-2.03c-1.88,0.04-3.71,0.81-5.04,2.1c-1.25,1.1-21.3,18.78-27.63,25.71
		c-3.94,4.32-8.76,20.96-9.71,24.37l-20.99,20.72c-0.01,0-0.02,0-0.03,0c-0.73,0-1.42,0.27-1.94,0.79l-3.5,3.45
		c-0.67,0.66-0.95,1.61-0.75,2.54c0.11,0.5,0.36,0.96,0.72,1.32l1.66,1.68L99.35,85.61z M107.94,78.37l-4.22-4.28l20.47-20.21
		l0.12-0.42c1.49-5.38,6.03-20.09,9.09-23.45c6.28-6.87,27.2-25.3,27.41-25.49l0.07-0.06c0.74-0.73,1.78-1.16,2.84-1.19
		c1.07-0.02,2.04,0.35,2.73,1.05l12.92,13.09c0.46,0.46,0.76,1.03,0.91,1.68c0.3,1.35-0.15,2.86-1.16,3.85l-0.07,0.07
		c-0.19,0.21-18.94,21.01-25.89,27.19c-3.37,3-18.66,6.66-24.26,7.81l-0.47,0.1L107.94,78.37z M96.76,79.07l3.47-3.45l6.14,6.22l0,0
		c0,0-0.01,0-0.01,0l-3.53,3.46L96.76,79.07z"/>
	<path class="st1" d="M134.24,31.51c0.12-0.14,0.27-0.28,0.43-0.44h34.34c-4.51,4.82-9.89,10.49-13.9,14.44
		c-1.33,1.31-2.44,2.37-3.3,3.13c-2.23,1.98-13.11,5.67-22.54,7.55l-1.18,0.26l-20.99,20.6c-1-1-1-1-1.98-1.98l20.87-20.76
		C126.51,52.67,132.62,33.28,134.24,31.51z"/>
	
		<rect x="99.48" y="79.16" transform="matrix(0.7071 -0.7071 0.7071 0.7071 -27.218 95.4393)" class="st1" width="4.24" height="2.83"/>
	<polygon class="st1" points="92.92,99.15 90.81,99.15 90.76,104.27 93,104.27 	"/>
	<path class="st1" d="M102.68,155c-2.44,0.7-4.87,1.41-7.31,2.13c-0.49,0.15-0.98,0.1-1.47,0.25l-0.81-49.7h-2.33l-0.45,50.77
		c-3.1,0.94-6.19,1.99-9.27,2.97c-0.36,9.93,1.25,36.65,1.26,36.93l0,0.18v0.13c0,0.84,0.72,1.24,1.39,1.24h18.62
		c0.62,0,1.21-0.39,1.21-1.24v-0.12l0.03-0.12c0.02-0.28,1.64-28.55,1.16-37.82C104.67,159.54,103.88,157.52,102.68,155z
		 M98.97,182.07c0.56,0,1.02,0.46,1.02,1.02s-0.46,1.02-1.02,1.02c-0.56,0-1.02-0.46-1.02-1.02S98.41,182.07,98.97,182.07z
		 M88.82,167.97c0.56,0,1.02,0.46,1.02,1.02c0,0.56-0.46,1.02-1.02,1.02c-0.56,0-1.02-0.46-1.02-1.02
		C87.8,168.43,88.26,167.97,88.82,167.97z M88.82,178.27c-0.84,0-1.53-0.69-1.53-1.53c0-0.84,0.69-1.53,1.53-1.53
		c0.85,0,1.53,0.69,1.53,1.53C90.35,177.59,89.67,178.27,88.82,178.27z M92.09,174.09c-0.68,0-1.22-0.55-1.22-1.22
		c0-0.68,0.55-1.22,1.22-1.22c0.68,0,1.22,0.55,1.22,1.22C93.31,173.54,92.76,174.09,92.09,174.09z M95.7,188.19
		c-0.68,0-1.22-0.55-1.22-1.22c0-0.68,0.55-1.22,1.22-1.22c0.68,0,1.22,0.55,1.22,1.22C96.93,187.64,96.38,188.19,95.7,188.19z
		 M98.97,192.37c-0.85,0-1.53-0.69-1.53-1.53c0-0.84,0.68-1.53,1.53-1.53c0.84,0,1.53,0.69,1.53,1.53
		C100.5,191.68,99.81,192.37,98.97,192.37z"/>
	<path class="st0" d="M90.99,96.46h-3.17c-1.52,0-2.82,1.51-2.82,3.04v4.97c0,0.77,0,1.47,0.73,1.97v29.66
		c-1.71,3.11-10.13,18.46-10.44,24.37c-0.49,9.48,1.2,36.42,1.3,38.14c0.03,4.06,3.34,7.38,7.22,7.38h18.62
		c3.81,0,7.03-3.33,7.06-7.39c0.09-1.69,1.4-28.87,0.9-38.36c-0.31-5.94-9.79-21.03-12.23-24.21v-29.6c0.73-0.5,0.98-1.2,0.98-1.97
		V99.5c0-1.52-0.97-3.04-2.49-3.04h-3.63H90.99z M107.31,160.47c0.49,9.41-1.1,37.81-1.11,38.09l0-0.05c0,2.28-1.71,4.07-3.74,4.07
		H83.83c-2.06,0-3.87-1.83-3.87-4.07l0-0.03c-0.02-0.28-1.76-28.47-1.27-37.87c0.24-4.6,7.37-18.35,10.15-23.27l0.07-0.36v-29.29
		h1.98h2.33h2.03v29.35l0.29,0.41C98.73,142.31,107.07,155.91,107.31,160.47z M96.66,99.15l0,5.12h-3.51h-2.24h-3.23v-5.12h3.28
		h2.11H96.66z"/>
</g>
</svg>
