<?xml version="1.0" encoding="utf-8"?>
<!-- Generator: Adobe Illustrator 27.0.0, SVG Export Plug-In . SVG Version: 6.00 Build 0)  -->
<svg version="1.1" id="Layer_1" xmlns="http://www.w3.org/2000/svg" xmlns:xlink="http://www.w3.org/1999/xlink" x="0px" y="0px"
	 viewBox="0 0 35.1 117.58" style="enable-background:new 0 0 35.1 117.58;" xml:space="preserve">
<style type="text/css">
	.st0{fill:#6A371A;}
	.st1{fill:#974E24;}
</style>
<g>
	<g>
		<g>
			<path class="st0" d="M11.1,9.52c-0.79,0.48-1.35,1.34-1.35,2.33v4.91c0,0.76,0.24,1.45,0.72,1.95V48
				C8.79,51.07,0.39,66.23,0.09,72.07c-0.49,9.37,1.15,36.24,1.25,37.94c0.03,4.01,3.27,7.56,7.1,7.56h18.39
				c3.76,0,6.94-3.56,6.97-7.57c0.09-1.67,1.69-28.65,1.21-38.02c-0.3-5.87-9.84-20.91-11.76-24.04V18.71
				c0.24-0.5,0.72-1.18,0.72-1.95v-4.91c0-1.05-0.61-1.96-1.48-2.41c1.04-0.62,1.72-1.75,1.72-3.04V3.12c0-1.96-1.68-3.12-3.64-3.12
				h-7.92C10.7,0,9.27,1.16,9.27,3.12v3.28C9.27,7.74,9.99,8.92,11.1,9.52z M12.4,17.11v-5.06h8.72l0,5.06H12.4z M31.63,72.07
				c0.48,9.29-1.08,37.34-1.1,37.62l0,0.34c0,2.26-1.69,4.41-3.69,4.41H8.44c-2.04,0-3.82-2.19-3.82-4.41l0-0.23
				c-0.02-0.28-1.73-28.22-1.25-37.5c0.24-4.55,7.35-18.17,10.1-23.03l0.14-0.41V20.48h6.02v28.44l0.33,0.41
				C23.11,54.13,31.39,67.57,31.63,72.07z M22.58,6.26c0,1.05-1.03,2.17-2.08,2.17h-7.86c-1.06,0-1.87-1.12-1.87-2.17V3.07
				c0-1.05,0.81-1.63,1.87-1.63h7.86c1.06,0,2.08,0.57,2.08,1.63V6.26z"/>
			<path class="st1" d="M19.02,51.07l-0.67-1.02V29.91h-2.63v20l-0.55,0.93c-4.59,8.11-8.83,18.74-8.99,21.79
				c-0.47,9.09,1.16,36.66,1.18,36.94l-0.03,0.13v0.13c0,0.82,0.75,2.24,1.41,2.24h18.28c0.61,0,1.15-1.4,1.15-2.24v-0.11l0.05-0.11
				c0.02-0.28,1.62-28.03,1.14-37.13C29.2,69.51,24.26,59.06,19.02,51.07z M13.76,79.7c0.55,0,1,0.45,1,1c0,0.55-0.45,1-1,1
				c-0.55,0-1-0.45-1-1C12.76,80.15,13.2,79.7,13.76,79.7z M13.76,89.81c-0.83,0-1.5-0.67-1.5-1.5c0-0.83,0.67-1.5,1.5-1.5
				c0.83,0,1.5,0.67,1.5,1.5C15.26,89.14,14.59,89.81,13.76,89.81z M16.96,85.71c-0.66,0-1.2-0.54-1.2-1.2c0-0.66,0.54-1.2,1.2-1.2
				c0.66,0,1.2,0.54,1.2,1.2C18.16,85.17,17.63,85.71,16.96,85.71z M23.72,93.54c0.55,0,1,0.45,1,1c0,0.55-0.45,1-1,1
				c-0.55,0-1-0.45-1-1C22.72,93.99,23.16,93.54,23.72,93.54z M20.51,99.55c-0.66,0-1.2-0.54-1.2-1.2c0-0.66,0.54-1.2,1.2-1.2
				c0.66,0,1.2,0.54,1.2,1.2C21.71,99.01,21.18,99.55,20.51,99.55z M23.72,103.65c-0.83,0-1.5-0.67-1.5-1.5s0.67-1.5,1.5-1.5
				c0.83,0,1.5,0.67,1.5,1.5S24.55,103.65,23.72,103.65z"/>
		</g>
	</g>
</g>
</svg>
