<?xml version="1.0" encoding="utf-8"?>
<!-- Generator: Adobe Illustrator 27.0.0, SVG Export Plug-In . SVG Version: 6.00 Build 0)  -->
<svg version="1.1" id="Layer_1" xmlns="http://www.w3.org/2000/svg" xmlns:xlink="http://www.w3.org/1999/xlink" x="0px" y="0px"
	 viewBox="0 0 121.16 105.27" style="enable-background:new 0 0 121.16 105.27;" xml:space="preserve">
<style type="text/css">
	.st0{fill:#974E24;}
	.st1{fill:#6A371A;}
</style>
<g>
	<path class="st0" d="M107.3,67.97l0.56-2.71l1.32,0.27l1.07-6.27l-1.1-0.23l0.56-2.71l0.68,0.14c-0.32-0.93-1.12-1.66-2.15-1.84
		l-4.91-0.84c-0.16-0.03-0.33-0.04-0.5-0.04c-0.59,0.01-1.14,0.2-1.59,0.52l1.67,0.29l-2.14,12.54l-1.67-0.29
		c0.41,0.59,1.04,1.02,1.8,1.15l4.91,0.84c0.16,0.03,0.33,0.04,0.5,0.04c0.69-0.01,1.32-0.27,1.81-0.7L107.3,67.97z M106.28,66.08
		l-4.91-0.84l1.49-8.72l4.91,0.84L106.28,66.08z"/>
	<path class="st0" d="M110.5,57.82l-0.25,1.44l3.97,0.82c0.03,0.01,0.05,0.01,0.07,0.02l-1.23,5.96c-0.02,0.07-0.13,0.19-0.21,0.23
		l-3.67-0.76l-0.17,1.01c-0.11,0.64-0.43,1.19-0.89,1.6l4.25,0.88c0.72,0.15,1.43-0.04,2.02-0.43c0.7-0.46,1.22-1.2,1.37-1.96
		l1.29-6.23c0.16-0.79-0.06-1.58-0.62-2.15c-0.41-0.43-0.98-0.73-1.65-0.86l-4.39-0.91C110.53,56.89,110.58,57.36,110.5,57.82z"/>
	<path class="st0" d="M109.01,66.55l0.17-1.01l-1.32-0.27l-0.56,2.71l0.82,0.17C108.57,67.74,108.9,67.18,109.01,66.55z"/>
	<path class="st0" d="M109.15,59.04l1.1,0.23l0.25-1.44c0.08-0.47,0.04-0.93-0.11-1.35l-0.68-0.14L109.15,59.04z"/>
	<path class="st0" d="M13.09,60.96c-0.01-0.27,0.07-0.53,0.2-0.75c-3.72-0.83-6.23-1.4-6.31-1.42l-0.09-0.02
		c-2.25-0.38-3.87-2.4-3.53-4.4L6.5,36.02c0.3-1.75,2.09-3.14,4.07-3.16c0.25,0,0.5,0.02,0.74,0.06l0.1,0.01
		c0,0,1.34,0.14,3.52,0.39c0.93,0.1,2.02,0.23,3.22,0.37l-3.59-3.75c-1.53-0.17-2.52-0.28-2.75-0.3c-0.42-0.07-0.85-0.1-1.28-0.1
		c-3.6,0.04-6.74,2.59-7.31,5.92L0.09,53.82c-0.64,3.76,2.19,7.51,6.19,8.22c0.49,0.11,3.16,0.72,6.93,1.56
		C13.15,62.72,13.1,61.84,13.09,60.96z"/>
	<path class="st0" d="M16.02,64.13c0,0.03,0,0.06,0,0.09c9.05,1.98,21.96,4.68,27.95,5.39c0.33,0.04,0.69,0.06,1.08,0.05
		c0.68-0.01,1.46-0.09,2.31-0.22l4.78-4.55c-2.87,0.85-5.44,1.43-7.13,1.45c-0.25,0-0.47-0.01-0.66-0.03
		c-5.99-0.71-19.49-3.56-28.52-5.54c0,0.04,0.01,0.08,0.02,0.13C15.87,61.97,15.93,63.06,16.02,64.13z"/>
	<path class="st0" d="M98.65,64.78l1.49-8.72c0.13-0.74,0.54-1.36,1.11-1.78l-11.12-1.9l-3.93,2.9l12.89,2l-1.02,6L85.4,61.01
		l4.21,4.19l9.49,1.62C98.71,66.24,98.52,65.52,98.65,64.78z"/>
	<path class="st0" d="M102.92,54.57l-1.67-0.29c-0.57,0.41-0.98,1.04-1.11,1.78l-1.49,8.72c-0.13,0.74,0.06,1.47,0.46,2.04
		l1.67,0.29L102.92,54.57z"/>
	<path class="st0" d="M60.91,33.47c-2-2.31-7.29-7.66-7.29-7.66s-21.01-5.2-32.75-10.55l-4.45,4.5c-0.44,0.44-0.34,1.54,0.27,2.14
		l0.08,0.08l0.11,0.05c0.06,0.07,2.73,3,6.42,6.98c0.44-0.59,0.88-1.17,1.34-1.73c0.48-0.59,1.35-0.68,1.95-0.2
		c0.59,0.48,0.68,1.35,0.2,1.95c-0.54,0.67-1.07,1.35-1.57,2.05c4.64,4.98,10.3,10.97,14.48,15.1c1.35,1.33,2.47,2.4,3.34,3.17
		c2.25,2.01,13.96,5.3,23.51,7.21l1.16,0.23l1.57-1.58l-0.53-0.52C68.25,52.95,62.15,34.9,60.91,33.47z M32.78,22.86
		c-0.68,0.59-1.35,1.2-2,1.83c-0.13,0.12-0.25,0.24-0.37,0.36c-0.26,0.26-0.61,0.39-0.96,0.4c-0.36,0-0.73-0.13-1-0.41
		c-0.54-0.54-0.53-1.42,0.01-1.96c0.13-0.13,0.26-0.26,0.39-0.38c0.68-0.66,1.39-1.31,2.11-1.93c0.58-0.5,1.45-0.44,1.95,0.14
		C33.42,21.48,33.36,22.36,32.78,22.86z M56.14,49.41c-0.21,0.52-0.81,0.77-1.33,0.56c-0.52-0.21-0.77-0.81-0.56-1.33
		c0.21-0.52,0.81-0.77,1.33-0.56C56.1,48.29,56.35,48.88,56.14,49.41z M59.56,48.6c-0.63-0.26-0.92-0.97-0.67-1.6
		c0.26-0.63,0.97-0.92,1.6-0.67c0.63,0.26,0.93,0.97,0.67,1.6C60.9,48.56,60.18,48.86,59.56,48.6z M63.79,52.55
		c-0.32,0.78-1.22,1.16-2,0.83c-0.78-0.32-1.16-1.22-0.83-2c0.32-0.78,1.22-1.16,2-0.84C63.73,50.87,64.11,51.76,63.79,52.55z"/>
	<polygon class="st0" points="89.72,75.4 74.2,60.07 72.66,61.63 74.63,63.57 88.18,76.96 	"/>
	<path class="st1" d="M20.78,34.09c-0.49,0-0.97,0.25-1.22,0.7c-0.55,0.99-1.07,2.01-1.55,3.03c-0.33,0.69-0.03,1.52,0.66,1.84
		c0.2,0.09,0.4,0.13,0.6,0.13c0.51-0.01,1-0.3,1.24-0.79c0.46-0.97,0.95-1.93,1.47-2.87c0.1-0.18,0.15-0.38,0.17-0.58
		c5.99,6.46,13.41,14.28,17.36,17.8c0.09,0.08,0.19,0.16,0.29,0.24c0.03,0.02,0.05,0.04,0.08,0.06c0.1,0.08,0.2,0.15,0.3,0.23
		c0.01,0.01,0.02,0.01,0.03,0.02c0.11,0.08,0.23,0.16,0.36,0.24c0.03,0.02,0.07,0.04,0.1,0.06c0.11,0.07,0.23,0.14,0.35,0.21
		c0.02,0.01,0.03,0.02,0.05,0.03c0.13,0.08,0.27,0.16,0.42,0.24c0.04,0.02,0.07,0.04,0.11,0.06c0.13,0.07,0.25,0.14,0.38,0.2
		c0.03,0.01,0.05,0.03,0.08,0.04c0.15,0.08,0.31,0.16,0.47,0.23c0.04,0.02,0.08,0.04,0.13,0.06c0.14,0.06,0.27,0.13,0.41,0.19
		c0.03,0.02,0.07,0.03,0.1,0.05c0.17,0.08,0.34,0.15,0.51,0.23c0.05,0.02,0.09,0.04,0.14,0.06c0.15,0.06,0.29,0.12,0.44,0.19
		c0.04,0.02,0.08,0.04,0.13,0.05c0.18,0.07,0.36,0.15,0.55,0.22c0.05,0.02,0.09,0.04,0.14,0.05c0.16,0.06,0.31,0.12,0.47,0.18
		c0.05,0.02,0.09,0.04,0.14,0.05c0.19,0.07,0.39,0.15,0.59,0.22c0.04,0.02,0.09,0.03,0.14,0.05c0.17,0.06,0.33,0.12,0.5,0.18
		c0.05,0.02,0.1,0.04,0.16,0.06c0.2,0.07,0.41,0.14,0.61,0.21c0.04,0.01,0.09,0.03,0.13,0.04c0.17,0.06,0.35,0.12,0.53,0.18
		c0.05,0.02,0.11,0.04,0.16,0.05c0.21,0.07,0.42,0.14,0.64,0.21c0.03,0.01,0.06,0.02,0.1,0.03c0.19,0.06,0.38,0.12,0.57,0.18
		c0.06,0.02,0.11,0.03,0.17,0.05c0.22,0.07,0.44,0.14,0.66,0.2c0.02,0.01,0.04,0.01,0.06,0.02c0.21,0.06,0.41,0.12,0.62,0.19
		c0.05,0.02,0.1,0.03,0.16,0.05c0.45,0.13,0.9,0.26,1.35,0.39c0.05,0.01,0.09,0.03,0.14,0.04c0.46,0.13,0.91,0.26,1.36,0.38
		c0.04,0.01,0.08,0.02,0.11,0.03c0.46,0.12,0.91,0.25,1.36,0.36c0.03,0.01,0.06,0.02,0.09,0.02c0.46,0.12,0.91,0.23,1.35,0.35
		c0.02,0.01,0.04,0.01,0.07,0.02c0.26,0.07,0.52,0.13,0.78,0.2c0.07,0.02,0.13,0.03,0.19,0.05c0.19,0.05,0.37,0.09,0.56,0.14
		c0.08,0.02,0.16,0.04,0.24,0.06c0.17,0.04,0.33,0.08,0.5,0.12c0.08,0.02,0.15,0.08,0.23,0.1c0.04,0.01,0.08-0.17,0.12,0.07l0,0
		c1.19-0.01,2.27,0.49,3.17,0.68l-43.34,43.78c0,0,0-0.01-0.01-0.01l9.85-0.1l39.23-39.65l1.99,1.97l7.22,7.18l8.15,8.1l0.11,0.1
		c0.01,0.23,0.04,0.46,0.11,0.69c0,0,0,0,0,0c0.02,0.08,0.05,0.16,0.08,0.24c0,0,0,0.01,0.01,0.02c0.03,0.07,0.06,0.15,0.1,0.22
		c0.01,0.01,0.01,0.02,0.01,0.03c0.04,0.07,0.07,0.13,0.12,0.19c0.01,0.01,0.02,0.03,0.03,0.04c0.04,0.06,0.08,0.12,0.13,0.18
		c0.01,0.02,0.02,0.03,0.04,0.05c0.06,0.07,0.12,0.14,0.19,0.21l3.54,3.5c0.53,0.52,1.23,0.81,1.97,0.8c0.07,0,0.14-0.01,0.21-0.01
		c0.06,0,0.11-0.01,0.17-0.02l3.1,3.06c0.53,0.52,1.23,0.74,1.93,0.73c0.84-0.01,1.67-0.35,2.22-0.9l4.47-4.53
		c0.57-0.58,0.81-1.36,0.65-2.15c-0.11-0.58-0.43-1.14-0.92-1.62l-2.97-2.93c0.03-0.11,0.05-0.22,0.06-0.33c0-0.02,0-0.03,0.01-0.05
		c0.01-0.11,0.02-0.23,0.02-0.34c0-0.74-0.3-1.43-0.82-1.95l-3.54-3.5c-0.53-0.52-1.23-0.81-1.97-0.8c0,0-0.01,0-0.01,0l1.21,1.19
		l-8.94,9.05l-0.02-0.02l8.94-9.03l-1.2-1.19c0,0,0.01,0,0.01,0l-2.66-2.63l-14.8-14.61l43.27-43.73c0.04-0.04,0.09-0.08,0.12-0.12
		l-9.83,0.1L73.52,50.92c-0.25-0.85-0.56-1.87-0.92-3.01c0-0.01-0.01-0.02-0.01-0.03c-0.12-0.38-0.24-0.77-0.37-1.17
		c-0.01-0.03-0.02-0.05-0.03-0.08c-0.13-0.4-0.26-0.81-0.4-1.22c-0.01-0.03-0.02-0.07-0.03-0.1c-0.13-0.42-0.27-0.84-0.42-1.27
		c-0.01-0.04-0.02-0.07-0.04-0.11c-0.07-0.2-0.14-0.41-0.2-0.61c0-0.01-0.01-0.03-0.01-0.04c-0.07-0.21-0.14-0.42-0.22-0.64
		c-0.02-0.05-0.03-0.09-0.05-0.14c-0.07-0.19-0.13-0.38-0.2-0.58c-0.01-0.03-0.02-0.05-0.03-0.08c-0.07-0.21-0.15-0.43-0.22-0.64
		c-0.02-0.05-0.03-0.1-0.05-0.14c-0.07-0.19-0.13-0.38-0.2-0.56c-0.01-0.03-0.02-0.07-0.04-0.1c-0.08-0.21-0.16-0.43-0.23-0.64
		c-0.02-0.05-0.04-0.1-0.05-0.14c-0.07-0.18-0.14-0.37-0.2-0.55c-0.01-0.04-0.03-0.08-0.04-0.12c-0.08-0.21-0.16-0.42-0.24-0.63
		c-0.02-0.05-0.04-0.1-0.06-0.14c-0.07-0.18-0.13-0.35-0.2-0.53c-0.02-0.04-0.04-0.09-0.05-0.14c-0.08-0.2-0.16-0.41-0.24-0.61
		c-0.02-0.05-0.04-0.1-0.06-0.15c-0.07-0.17-0.14-0.34-0.2-0.5c-0.02-0.05-0.04-0.1-0.06-0.14c-0.08-0.2-0.16-0.4-0.25-0.59
		c-0.02-0.05-0.04-0.09-0.06-0.14c-0.07-0.16-0.14-0.33-0.21-0.49c-0.02-0.05-0.04-0.09-0.06-0.14c-0.08-0.19-0.17-0.38-0.25-0.57
		c-0.02-0.04-0.04-0.08-0.05-0.12c-0.07-0.16-0.14-0.31-0.21-0.47c-0.02-0.05-0.04-0.09-0.06-0.14c-0.08-0.18-0.17-0.36-0.25-0.54
		c-0.02-0.04-0.03-0.07-0.05-0.11c-0.07-0.15-0.14-0.29-0.21-0.44c-0.02-0.04-0.04-0.09-0.07-0.13c-0.08-0.17-0.17-0.34-0.25-0.5
		c-0.01-0.03-0.03-0.06-0.04-0.08c-0.07-0.14-0.15-0.28-0.22-0.41c-0.02-0.04-0.04-0.08-0.07-0.12c-0.08-0.16-0.17-0.31-0.25-0.46
		c-0.01-0.02-0.02-0.04-0.03-0.06c-0.08-0.13-0.15-0.26-0.22-0.39c-0.02-0.04-0.04-0.07-0.07-0.11c-0.08-0.14-0.17-0.28-0.25-0.41
		c-0.01-0.01-0.02-0.03-0.03-0.04c-0.08-0.12-0.15-0.24-0.23-0.35c-0.02-0.03-0.04-0.06-0.07-0.1c-0.08-0.12-0.17-0.24-0.25-0.35
		c-0.01-0.01-0.01-0.01-0.01-0.02c-0.08-0.11-0.16-0.21-0.24-0.3c-0.02-0.03-0.04-0.05-0.06-0.08c-0.08-0.1-0.17-0.2-0.25-0.29
		c-3.18-3.48-9.79-9.64-15.81-15.09c0.05-0.25,0.04-0.51-0.06-0.76c-0.26-0.69-1-1.04-1.7-0.83c-5.37-4.84-9.9-8.82-10.49-9.33
		c-1.43-1.39-3.4-2.17-5.43-2.15c-1.9,0.02-3.65,0.74-4.92,2.03L12.68,15.29c-2.69,2.72-2.54,7.42,0.31,10.28
		C13.45,26.08,16.65,29.62,20.78,34.09z M102.56,85.62l-4.27,4.33c-0.06,0.05-0.21,0.09-0.31,0.08l-2.64-2.61l1.36-1.38l3.1-3.14
		l2.7,2.67C102.53,85.58,102.55,85.6,102.56,85.62z M95.27,76.47l3.54,3.4l-6.22,6.2c0,0,0,0,0,0l-3.54-3.4L95.27,76.47z
		 M86.35,81.98c0,0,0.03,0,0.03,0c0.02-0.08,0.07-0.17,0.1-0.25c0-0.01,0.01-0.01,0.02-0.02c0.03-0.07,0.07-0.15,0.1-0.22
		c0.01-0.02,0.02-0.04,0.03-0.06c0.03-0.06,0.07-0.12,0.1-0.18c0.02-0.04,0.05-0.07,0.07-0.1c0.03-0.04,0.06-0.08,0.09-0.12
		c-0.03,0.04-0.06,0.08-0.09,0.12c-0.02,0.03-0.05,0.07-0.07,0.1c-0.04,0.06-0.07,0.12-0.1,0.18c-0.01,0.02-0.02,0.04-0.03,0.06
		c-0.04,0.07-0.07,0.15-0.1,0.22c0,0.01-0.01,0.01-0.01,0.02c-0.03,0.08-0.06,0.17-0.09,0.25C86.4,81.98,86.35,81.98,86.35,81.98
		c-0.07,0.25-0.17,0.51-0.16,0.78C86.19,82.5,86.28,82.24,86.35,81.98z M77.4,60.77l14.34,14.16l-4.27,4.33L73.12,65.09l-1.97-1.94
		l1.51-1.52l1.54-1.56l1.23-1.24L77.4,60.77z M15.04,17.62L28.13,4.36c0.65-0.66,1.58-1.03,2.6-1.04c1.17-0.01,2.3,0.43,3.1,1.23
		l0.07,0.07c0.09,0.08,4.2,3.68,9.32,8.29c-0.58,0.36-0.82,1.1-0.53,1.74c0.23,0.51,0.74,0.82,1.27,0.81c0.19,0,0.38-0.04,0.56-0.12
		c0.31-0.14,0.63-0.27,0.94-0.41c6.15,5.56,13.08,11.99,16.26,15.48c0.07,0.08,0.15,0.17,0.22,0.26c0.01,0.02,0.03,0.03,0.04,0.05
		c0.07,0.09,0.14,0.19,0.22,0.29c0.01,0.02,0.03,0.04,0.04,0.06c0.07,0.1,0.15,0.21,0.22,0.32c0,0,0.01,0.01,0.01,0.01
		c0.08,0.12,0.15,0.24,0.23,0.37c0.02,0.03,0.03,0.05,0.05,0.08c0.08,0.13,0.15,0.25,0.23,0.39c0.01,0.02,0.03,0.05,0.04,0.08
		c0.08,0.13,0.15,0.27,0.23,0.41c0.01,0.01,0.01,0.02,0.02,0.03c0.08,0.15,0.16,0.3,0.24,0.46c0.02,0.03,0.03,0.06,0.05,0.1
		c0.08,0.16,0.16,0.31,0.24,0.48c0.01,0.03,0.03,0.06,0.04,0.09c0.08,0.16,0.15,0.32,0.23,0.48c0.01,0.02,0.02,0.04,0.03,0.05
		c0.08,0.17,0.16,0.35,0.24,0.53c0.02,0.04,0.03,0.08,0.05,0.12c0.08,0.18,0.16,0.36,0.24,0.54c0.01,0.03,0.03,0.06,0.04,0.09
		c0.08,0.18,0.15,0.35,0.23,0.53c0.01,0.02,0.02,0.05,0.03,0.07c0.08,0.19,0.16,0.39,0.25,0.59c0.02,0.04,0.03,0.08,0.05,0.12
		c0.08,0.2,0.16,0.4,0.24,0.6c0.01,0.03,0.03,0.06,0.04,0.1c0.08,0.19,0.15,0.38,0.23,0.58c0.01,0.03,0.02,0.06,0.03,0.09
		c0.08,0.21,0.16,0.42,0.24,0.63c0.02,0.04,0.03,0.09,0.05,0.13c0.08,0.21,0.16,0.42,0.24,0.64c0.01,0.03,0.02,0.05,0.03,0.08
		c0.08,0.21,0.15,0.41,0.23,0.62c0.01,0.03,0.02,0.06,0.03,0.09c0.08,0.22,0.16,0.43,0.24,0.65c0.02,0.05,0.03,0.09,0.05,0.14
		c0.08,0.22,0.16,0.44,0.24,0.66c0.01,0.02,0.02,0.05,0.03,0.07c0.07,0.21,0.15,0.42,0.22,0.62c0.01,0.04,0.03,0.08,0.04,0.11
		c0.08,0.22,0.15,0.44,0.23,0.65c0.02,0.04,0.03,0.09,0.05,0.13c0.08,0.22,0.15,0.44,0.23,0.66c0.01,0.02,0.01,0.04,0.02,0.06
		c0.07,0.21,0.14,0.42,0.21,0.62c0.01,0.04,0.03,0.08,0.04,0.12c0.07,0.22,0.14,0.43,0.21,0.64c0.01,0.04,0.03,0.09,0.04,0.13
		c0.07,0.22,0.14,0.43,0.21,0.65c0.01,0.02,0.01,0.03,0.02,0.05c0.07,0.2,0.13,0.41,0.2,0.61c0.01,0.04,0.03,0.08,0.04,0.12
		c0.07,0.2,0.13,0.41,0.2,0.61c0.01,0.05,0.03,0.09,0.04,0.14c0.07,0.21,0.13,0.41,0.19,0.61c0,0.01,0,0.01,0.01,0.02
		c0.06,0.2,0.13,0.41,0.19,0.61c0.01,0.03,0.02,0.07,0.03,0.1c0.06,0.2,0.12,0.39,0.18,0.58c0.01,0.03,0.02,0.07,0.03,0.1
		c0.06,0.19,0.11,0.37,0.17,0.55c0.35,1.16,0.66,2.19,0.9,3.05l-1.57,1.59l-1.57,1.58l-1.85,1.87c-0.9-0.19-2-0.43-3.23-0.71
		c-0.18-0.04-0.36-0.08-0.55-0.13c-0.05-0.01-0.11-0.02-0.16-0.04c-0.19-0.04-0.38-0.09-0.57-0.13c-0.04-0.01-0.09-0.02-0.13-0.03
		c-0.18-0.04-0.36-0.09-0.55-0.13c-0.04-0.01-0.07-0.02-0.1-0.02c-0.2-0.05-0.41-0.1-0.62-0.15c-0.05-0.01-0.1-0.02-0.15-0.04
		c-0.21-0.05-0.42-0.1-0.64-0.16c-0.03-0.01-0.06-0.02-0.1-0.02c-0.21-0.05-0.42-0.1-0.63-0.16c-0.03-0.01-0.05-0.01-0.08-0.02
		c-0.22-0.06-0.45-0.11-0.67-0.17c-0.04-0.01-0.09-0.02-0.13-0.03c-0.23-0.06-0.45-0.12-0.68-0.18c-0.03-0.01-0.06-0.02-0.09-0.02
		c-0.22-0.06-0.44-0.12-0.66-0.17c-0.03-0.01-0.05-0.01-0.08-0.02c-0.23-0.06-0.46-0.12-0.69-0.18c-0.05-0.01-0.1-0.03-0.14-0.04
		c-0.23-0.06-0.46-0.13-0.69-0.19c-0.03-0.01-0.06-0.02-0.09-0.02c-0.22-0.06-0.43-0.12-0.65-0.18c-0.03-0.01-0.07-0.02-0.1-0.03
		c-0.23-0.07-0.46-0.13-0.68-0.2c-0.05-0.01-0.09-0.03-0.14-0.04c-0.23-0.07-0.46-0.13-0.68-0.2c-0.03-0.01-0.05-0.02-0.08-0.02
		c-0.21-0.06-0.43-0.13-0.64-0.19c-0.04-0.01-0.07-0.02-0.11-0.03c-0.22-0.07-0.44-0.14-0.66-0.2c-0.05-0.01-0.09-0.03-0.14-0.04
		c-0.22-0.07-0.44-0.14-0.66-0.21c-0.02-0.01-0.05-0.02-0.07-0.02c-0.2-0.07-0.4-0.13-0.6-0.2c-0.04-0.01-0.07-0.02-0.11-0.04
		c-0.21-0.07-0.41-0.14-0.62-0.21c-0.04-0.01-0.09-0.03-0.13-0.04c-0.21-0.07-0.41-0.14-0.61-0.21c-0.02-0.01-0.04-0.01-0.06-0.02
		c-0.19-0.07-0.38-0.14-0.56-0.2c-0.04-0.01-0.07-0.03-0.11-0.04c-0.19-0.07-0.38-0.14-0.56-0.21c-0.04-0.02-0.08-0.03-0.12-0.05
		c-0.19-0.07-0.37-0.14-0.55-0.22c-0.01-0.01-0.03-0.01-0.04-0.02c-0.17-0.07-0.34-0.14-0.5-0.21c-0.03-0.01-0.06-0.03-0.09-0.04
		c-0.17-0.07-0.33-0.14-0.49-0.21c-0.03-0.01-0.07-0.03-0.1-0.04c-0.16-0.07-0.32-0.15-0.47-0.22c-0.01,0-0.02-0.01-0.03-0.01
		c-0.15-0.07-0.29-0.14-0.43-0.21c-0.03-0.01-0.05-0.03-0.08-0.04c-0.14-0.07-0.27-0.14-0.4-0.21c-0.03-0.01-0.05-0.03-0.08-0.04
		c-0.13-0.07-0.26-0.14-0.38-0.22c0,0-0.01,0-0.01-0.01c-0.12-0.07-0.23-0.14-0.33-0.21c-0.02-0.01-0.04-0.03-0.06-0.04
		c-0.1-0.07-0.2-0.14-0.29-0.21c-0.02-0.01-0.03-0.03-0.05-0.04c-0.09-0.07-0.18-0.14-0.26-0.21c-4.05-3.6-12.07-12.11-18.19-18.72
		c0.07,0.01,0.14,0.01,0.21,0.01c0.43,0,0.85-0.21,1.11-0.58c0.12-0.17,0.25-0.34,0.38-0.52c0.51-0.7,1.03-1.38,1.57-2.05
		c0.48-0.59,0.39-1.46-0.2-1.95c-0.59-0.48-1.46-0.39-1.95,0.2c-0.46,0.57-0.91,1.15-1.34,1.73c-0.24,0.32-0.49,0.65-0.72,0.98
		c-0.19,0.27-0.27,0.58-0.25,0.89c-3.94-4.27-6.84-7.49-6.92-7.57l-0.07-0.07C13.75,21.65,13.6,19.08,15.04,17.62z"/>
	<path class="st1" d="M36.27,19.81c0.27,0,0.53-0.08,0.77-0.24c0.88-0.61,1.8-1.2,2.72-1.74c0.66-0.39,0.87-1.24,0.48-1.9
		c-0.39-0.66-1.24-0.87-1.9-0.48c-0.97,0.58-1.94,1.2-2.87,1.84c-0.63,0.43-0.79,1.29-0.35,1.92
		C35.38,19.61,35.82,19.82,36.27,19.81z"/>
	<path class="st1" d="M55.27,9.07c-1.11,0.21-2.23,0.45-3.33,0.73c-0.74,0.19-1.19,0.94-1,1.68c0.16,0.63,0.73,1.05,1.35,1.04
		c0.11,0,0.22-0.02,0.33-0.04c1.04-0.26,2.1-0.5,3.15-0.69c0.75-0.14,1.25-0.86,1.11-1.61C56.74,9.42,56.02,8.93,55.27,9.07z"/>
	<path class="st1" d="M64.18,8.04C64.18,8.04,64.18,8.04,64.18,8.04c-1.09,0.01-2.2,0.14-3.28,0.22c-0.76,0.06-1.33,0.74-1.28,1.5
		c0.05,0.73,0.67,1.32,1.39,1.31c0.03,0,0.06-0.1,0.09-0.11c1.03-0.08,2.07-0.22,3.1-0.24c0,0,0,0,0.01,0l0.11,0c0,0,0,0,0,0
		c0.76-0.01,1.37-0.59,1.37-1.35c-0.01-0.76-0.63-1.34-1.39-1.33L64.18,8.04z"/>
	<path class="st1" d="M13.69,51.9c-0.17,1.12-0.31,2.26-0.41,3.38c-0.07,0.76,0.49,1.43,1.25,1.5c0.05,0,0.09,0.01,0.14,0.01
		c0.7-0.01,1.3-0.55,1.36-1.26c0.1-1.07,0.23-2.14,0.39-3.2c0.12-0.75-0.4-1.46-1.15-1.58C14.52,50.63,13.81,51.15,13.69,51.9z"/>
	<path class="st1" d="M69.98,8.45c-0.76-0.08-1.44,0.48-1.51,1.24c-0.08,0.76,0.48,1.44,1.24,1.51c1.07,0.11,2.14,0.25,3.2,0.43
		c0.08,0.01,0.16,0.02,0.24,0.02c0.66-0.01,1.23-0.48,1.35-1.15c0.13-0.75-0.38-1.47-1.13-1.59C72.24,8.72,71.1,8.56,69.98,8.45z"/>
	<path class="st1" d="M78.9,10.15c-0.73-0.21-1.5,0.22-1.71,0.95c-0.21,0.73,0.22,1.5,0.95,1.71c1.03,0.29,2.07,0.62,3.07,0.98
		c0.16,0.06,0.32,0.08,0.48,0.08c0.56-0.01,1.09-0.36,1.29-0.92c0.26-0.72-0.12-1.51-0.84-1.77C81.08,10.8,79.99,10.46,78.9,10.15z"
		/>
	<path class="st1" d="M15.85,48.04c0.13,0.03,0.25,0.05,0.38,0.05c0.6-0.01,1.15-0.41,1.32-1.02c0.28-1.04,0.6-2.07,0.94-3.08
		c0.25-0.72-0.14-1.51-0.86-1.76c-0.72-0.25-1.51,0.14-1.76,0.86c-0.37,1.07-0.7,2.17-1,3.26C14.67,47.08,15.11,47.84,15.85,48.04z"
		/>
	<path class="st1" d="M22.52,89.69c0.27,0.38,0.71,0.59,1.15,0.58c0.27,0,0.54-0.09,0.78-0.25c0.62-0.44,0.77-1.3,0.33-1.93
		c-0.62-0.88-1.22-1.78-1.77-2.7c-0.4-0.65-1.25-0.86-1.9-0.46c-0.65,0.4-0.86,1.25-0.46,1.9C21.24,87.8,21.87,88.76,22.52,89.69z"
		/>
	<path class="st1" d="M17.95,81.84c0.24,0.51,0.74,0.8,1.27,0.8c0.19,0,0.39-0.04,0.57-0.13c0.69-0.32,0.99-1.15,0.66-1.84
		c-0.45-0.97-0.88-1.97-1.27-2.97c-0.28-0.71-1.08-1.06-1.79-0.78c-0.71,0.28-1.06,1.08-0.79,1.79
		C17.02,79.76,17.47,80.81,17.95,81.84z"/>
	<path class="st1" d="M14.84,73.31c0.17,0.62,0.73,1.03,1.35,1.03c0.11,0,0.23-0.02,0.34-0.05c0.74-0.2,1.18-0.96,0.98-1.69
		c-0.28-1.03-0.52-2.09-0.73-3.14c-0.15-0.75-0.88-1.24-1.62-1.09c-0.75,0.15-1.24,0.88-1.09,1.62
		C14.29,71.1,14.55,72.21,14.84,73.31z"/>
	<path class="st1" d="M13.09,60.96c0.02,0.88,0.07,1.76,0.13,2.64c0.02,0.26,0.03,0.51,0.05,0.76c0.06,0.73,0.68,1.27,1.39,1.26
		c0.03,0,0.07,0,0.1,0c0.73-0.06,1.27-0.68,1.26-1.41c0-0.03,0-0.06,0-0.09c-0.09-1.07-0.15-2.15-0.17-3.22
		c0-0.04-0.01-0.09-0.02-0.13c-0.08-0.7-0.68-1.23-1.4-1.23c-0.49,0.01-0.91,0.28-1.15,0.67C13.16,60.43,13.08,60.69,13.09,60.96z"
		/>
	<path class="st1" d="M29.46,25.45c0.35,0,0.69-0.14,0.96-0.4c0.12-0.12,0.25-0.24,0.37-0.36c0.65-0.63,1.32-1.24,2-1.83
		c0.58-0.5,0.64-1.37,0.14-1.95c-0.5-0.58-1.37-0.64-1.95-0.14c-0.72,0.62-1.43,1.27-2.11,1.93c-0.13,0.13-0.26,0.26-0.39,0.38
		c-0.54,0.54-0.55,1.41-0.01,1.96C28.73,25.31,29.09,25.45,29.46,25.45z"/>
	<path class="st1" d="M94.44,19.24l-4.6-8.48l-1.81,2.95c-0.22-0.11-0.44-0.22-0.65-0.33c-0.69-0.33-1.51-0.05-1.85,0.64
		c-0.33,0.69-0.05,1.51,0.64,1.85c0.14,0.07,0.27,0.14,0.41,0.21l-1.79,2.91L94.44,19.24z"/>
</g>
</svg>
