<?xml version="1.0" encoding="utf-8"?>
<!-- Generator: Adobe Illustrator 27.0.0, SVG Export Plug-In . SVG Version: 6.00 Build 0)  -->
<svg version="1.1" id="Layer_1" xmlns="http://www.w3.org/2000/svg" xmlns:xlink="http://www.w3.org/1999/xlink" x="0px" y="0px"
	 viewBox="0 0 75.37 171.46" style="enable-background:new 0 0 75.37 171.46;" xml:space="preserve">
<style type="text/css">
	.st0{fill:#6A371A;}
	.st1{fill:#974E24;}
</style>
<g>
	<g>
		<path class="st0" d="M19.72,171.46h5.36c0.42,0,0.8-0.28,0.91-0.69l4.64-17.28h25.92l4.64,17.28c0.11,0.41,0.48,0.69,0.91,0.69
			h4.83c0.52,0,0.94-0.42,0.94-0.94v-17.25c4.29-0.91,7.51-4.68,7.51-9.18V23.61c0-3.41-1.95-6.62-4.99-8.26
			c-2.98-3.8-14.94-5.65-25.72-5.84C44.58,4.22,40.34,0,34.74,0H10.6C4.65,0,0,4.12,0,9.39v125.58c0,5.46,4.83,10.06,10.19,10.06
			v-0.94V141c-3.22,0-6.17-2.76-6.17-6.04V9.39c0-3.36,3.34-5.37,6.57-5.37h24.14c3.31,0,5.82,2.34,5.89,5.49
			c-5.87,0.11-11.45,0.68-15.91,1.63c-5.06,1.08-8.28,2.53-9.58,4.31c-2.89,1.66-4.68,4.75-4.68,8.15v120.48
			c0,4.95,3.58,8.88,8.32,9.35v17.08C18.78,171.04,19.2,171.46,19.72,171.46z M24.36,169.58h-3.7v-16.1h8.03L24.36,169.58z
			 M65.99,169.58h-3.17l-4.32-16.1h7.36h0.13V169.58z M13.14,144.09V23.61c0-2.52,1.36-4.8,3.55-5.95c0.23-0.12,0.41-0.3,0.54-0.52
			c0.29-0.52,1.18-1.17,2.81-1.84c1.27-0.52,2.99-1.05,5.23-1.53c4.82-1.03,11.03-1.6,17.48-1.6c13.88,0,24.09,2.56,25.58,4.93
			c0.07,0.1,0.15,0.2,0.24,0.28c0.09,0.08,0.19,0.15,0.3,0.21c2.32,1.14,3.81,3.5,3.81,6.02v120.48c0,3.7-3.07,6.71-6.84,6.71H19.72
			C16.03,150.8,13.14,147.85,13.14,144.09z"/>
	</g>
	<g>
		<g>
			<path class="st1" d="M68.61,17.39c-0.09-0.08-0.18-0.18-0.25-0.28c-1.5-2.37-11.71-4.93-25.59-4.93c-6.46,0-12.67,0.57-17.49,1.6
				c-2.24,0.48-3.96,1.01-5.23,1.53c-1.63,0.67-2.52,1.33-2.81,1.84c-0.13,0.22-0.26,0.4-0.49,0.52c-2.19,1.15-3.5,3.43-3.5,5.95
				v120.48c0,3.76,2.78,6.51,6.46,6.51h46.14c3.77,0,6.95-2.81,6.95-6.51V23.61c0-2.51-1.55-4.87-3.86-6.02
				C68.83,17.54,68.7,17.47,68.61,17.39z M65.99,22.65H19.85c-0.74,0-1.34-0.6-1.34-1.34s0.6-1.34,1.34-1.34h0.2h45.94
				c0.74,0,1.34,0.6,1.34,1.34S66.73,22.65,65.99,22.65z"/>
		</g>
	</g>
	<g>
		<g>
			<path class="st1" d="M68.58,17.39c-0.09-0.08-0.17-0.18-0.24-0.28c-1.5-2.37-11.71-4.93-25.58-4.93c-6.46,0-12.67,0.57-17.48,1.6
				c-2.24,0.48-3.96,1.01-5.23,1.53c-1.63,0.67-2.52,1.33-2.81,1.84c-0.13,0.22-0.32,0.4-0.54,0.52c-2.19,1.15-3.55,3.43-3.55,5.95
				v90.29C32.2,95.06,52.39,77.42,72.69,59.93V23.61c0-2.51-1.49-4.87-3.81-6.02C68.77,17.54,68.67,17.47,68.58,17.39z M65.99,22.81
				H19.85c-0.74,0-1.34-0.6-1.34-1.34c0-0.74,0.6-1.34,1.34-1.34h46.14c0.74,0,1.34,0.6,1.34,1.34
				C67.33,22.21,66.73,22.81,65.99,22.81z"/>
		</g>
	</g>
	<g>
		<path class="st0" d="M20.05,20.12h-0.2c-0.74,0-1.34,0.6-1.34,1.34c0,0.74,0.6,1.34,1.34,1.34h46.14c0.74,0,1.34-0.6,1.34-1.34
			c0-0.74-0.6-1.34-1.34-1.34H20.05z"/>
	</g>
	<g>
		<polygon class="st1" points="62.82,169.58 65.99,169.58 65.99,153.48 65.85,153.48 58.49,153.48 		"/>
	</g>
	<g>
		<polygon class="st1" points="24.36,169.58 28.68,153.48 20.65,153.48 20.65,169.58 		"/>
	</g>
</g>
</svg>
