<?xml version="1.0" encoding="utf-8"?>
<!-- Generator: Adobe Illustrator 27.0.0, SVG Export Plug-In . SVG Version: 6.00 Build 0)  -->
<svg version="1.1" id="Layer_1" xmlns="http://www.w3.org/2000/svg" xmlns:xlink="http://www.w3.org/1999/xlink" x="0px" y="0px"
	 viewBox="0 0 132.22 83.26" style="enable-background:new 0 0 132.22 83.26;" xml:space="preserve">
<style type="text/css">
	.st0{fill:#6A371A;}
	.st1{fill:#974E24;}
</style>
<g>
	<g>
		<path class="st0" d="M120.63,83.26h10.01c0.87,0,1.58-0.71,1.58-1.58V13.7c0-0.87-0.71-1.58-1.58-1.58h-10.01
			c-0.87,0-1.58,0.71-1.58,1.58v15.81H13.17V11.86c0-0.87-0.71-1.58-1.58-1.58H1.58C0.71,10.28,0,10.98,0,11.86v69.82
			c0,0.87,0.71,1.58,1.58,1.58h10.01c0.87,0,1.58-0.71,1.58-1.58V49.01h22.79H99.7h19.35v32.67
			C119.05,82.55,119.76,83.26,120.63,83.26z M11.59,45.84c-0.87,0-1.58,0.71-1.58,1.58V80.1H3.16V31.09V13.44h6.85v17.65
			c0,0.87,0.71,1.58,1.58,1.58h109.04c0.44,0,0.83-0.18,1.12-0.46c0.29-0.28,0.46-0.68,0.46-1.12V15.28h6.85v16.93V80.1h-6.85V47.43
			c0-0.87-0.71-1.58-1.58-1.58H11.59z"/>
	</g>
	<g>
		<path class="st0" d="M109.4,0.26h-6.42c-0.58,0-1.05,0.47-1.05,1.05v24.24c0,0.28,0.11,0.55,0.31,0.75
			c0.2,0.19,0.46,0.31,0.74,0.31c0,0,0,0,0.01,0l12.43-0.07c0.32,0,0.63-0.15,0.83-0.41c0.2-0.26,0.27-0.59,0.19-0.9l-6.01-24.17
			C110.31,0.59,109.89,0.26,109.4,0.26z M104.04,24.5V2.37h4.54l5.49,22.07L104.04,24.5z"/>
	</g>
	<g>
		<polygon class="st1" points="104.04,24.5 114.07,24.45 108.58,2.37 104.04,2.37 		"/>
	</g>
	<g>
		<path class="st0" d="M112.05,62.72l-12.34,0l-49.02-0.01l-14.72,0.01l-13.66,0.01c-0.42,0-0.81,0.2-1.06,0.53
			c-0.25,0.34-0.32,0.77-0.2,1.17l5.21,17.12c0.17,0.55,0.68,0.93,1.26,0.93h79.31c0.58,0,1.09-0.38,1.26-0.93l5.21-17.12
			c0.12-0.4,0.05-0.83-0.2-1.17C112.86,62.92,112.46,62.72,112.05,62.72z M105.86,79.83H28.5l-4.41-14.48l26.6-0.01l59.58,0.01
			L105.86,79.83z"/>
	</g>
	<g>
		<polygon class="st1" points="24.08,65.35 28.5,79.83 105.86,79.83 110.27,65.35 50.68,65.34 		"/>
	</g>
	<g>
		<polygon class="st0" points="94.96,55.18 99.7,59.77 104.45,55.18 109.2,50.59 99.7,50.59 90.21,50.59 		"/>
	</g>
	<g>
		<path class="st0" d="M34.5,26.87h64.53V0H34.5V26.87z M93.77,2.63h2.63v21.61h-2.63V2.63z M89.03,2.63h3.69v21.61h-3.69V2.63z
			 M84.29,2.63h3.69v21.61h-3.69V2.63z M79.02,2.63h4.21v21.61h-4.21V2.63z M74.28,2.63h3.69v21.61h-3.69V2.63z M69.54,2.63h3.69
			v21.61h-3.69V2.63z M64.53,2.63h3.95v21.61h-3.95V2.63z M59.79,2.63h3.69v21.61h-3.69V2.63z M55.05,2.63h3.69v21.61h-3.69V2.63z
			 M49.78,2.63H54v21.61h-4.21V2.63z M45.3,2.63h3.42v21.61H45.3V2.63z M40.56,2.63h3.69v21.61h-3.69V2.63z M37.14,2.63h2.37v21.61
			h-2.37V2.63z"/>
	</g>
	<g>
		<polygon class="st0" points="31.22,55.18 35.96,59.77 40.71,55.18 45.46,50.59 35.96,50.59 26.47,50.59 		"/>
	</g>
	<g>
		<path class="st0" d="M24.96,0.26c-0.48,0-0.9,0.33-1.02,0.79l-6.16,24.17c-0.08,0.31-0.01,0.65,0.19,0.91
			c0.2,0.26,0.51,0.41,0.83,0.41l12.28,0.07c0,0,0,0,0.01,0c0.28,0,0.55-0.11,0.74-0.31c0.2-0.2,0.31-0.47,0.31-0.75V1.32
			c0-0.58-0.47-1.05-1.05-1.05H24.96z M30.03,24.5l-9.87-0.05l5.63-22.07h4.25V24.5z"/>
	</g>
	<g>
		<polygon class="st1" points="30.03,24.5 30.03,2.37 25.78,2.37 20.15,24.45 		"/>
	</g>
	<g>
		<path class="st1" d="M129.17,79.9V32.21V15.1h-6.85v15.99c0,0.44-0.23,0.74-0.52,1.02c-0.28,0.29-0.73,0.37-1.17,0.37H11.59
			c-0.87,0-1.47-0.52-1.47-1.4V13.26H3.27v17.83V79.9h6.85V47.43c0-0.87,0.6-1.77,1.47-1.77h109.04c0.87,0,1.69,0.9,1.69,1.77V79.9
			H129.17z"/>
	</g>
	<g>
		<path class="st1" d="M3.16,13.44v39.33c2.28-0.96,4.56-1.92,6.85-2.85v-2.49c0-0.87,0.71-1.58,1.58-1.58h8.66
			c12.36-4.78,24.88-9.16,37.52-13.17H11.59c-0.87,0-1.58-0.71-1.58-1.58V13.44H3.16z"/>
	</g>
</g>
</svg>
