<?xml version="1.0" encoding="utf-8"?>
<!-- Generator: Adobe Illustrator 27.0.0, SVG Export Plug-In . SVG Version: 6.00 Build 0)  -->
<svg version="1.1" id="Layer_1" xmlns="http://www.w3.org/2000/svg" xmlns:xlink="http://www.w3.org/1999/xlink" x="0px" y="0px"
	 viewBox="0 0 125.96 150.48" style="enable-background:new 0 0 125.96 150.48;" xml:space="preserve">
<style type="text/css">
	.st0{fill:#974E24;}
	.st1{fill:#6A371A;}
	.st2{fill:#1D1D1D;}
	.st3{fill:#7F6D51;}
</style>
<g>
	<g>
		<g>
			<path class="st0" d="M29.84,99.84c-2.39,0.69-4.79,1.39-7.18,2.1c-0.48,0.14-0.96,0.29-1.44,0.43l-0.79-48.64l-0.01-0.81
				l-0.04-2.44l0-0.27l-0.08-4.89l-0.04-2.72l-0.23-11.48l-1.63,0.02L18.24,42.6l-0.02,2.72l-0.04,4.89l0,0.27l-0.02,2.44
				l-0.01,0.81l-0.44,49.7c-3.04,0.92-6.08,1.86-9.11,2.82c-0.35,9.76,1.22,35.96,1.24,36.23l0,0.13v0.13
				c0,0.83,0.72,2.24,1.38,2.24h18.3c0.61,0,0.94-1.4,0.94-2.24v-0.11l0.15-0.11c0.02-0.28,1.67-28.05,1.2-37.16
				C31.74,104.29,31.02,102.31,29.84,99.84z M26.19,126.43c0.55,0,1,0.45,1,1c0,0.55-0.45,1-1,1c-0.55,0-1-0.45-1-1
				C25.19,126.88,25.64,126.43,26.19,126.43z M16.23,112.58c0.55,0,1,0.45,1,1c0,0.55-0.45,1-1,1c-0.55,0-1-0.45-1-1
				C15.23,113.03,15.67,112.58,16.23,112.58z M16.23,122.7c-0.83,0-1.5-0.67-1.5-1.5c0-0.83,0.67-1.5,1.5-1.5
				c0.83,0,1.5,0.67,1.5,1.5C17.73,122.03,17.06,122.7,16.23,122.7z M19.44,118.59c-0.66,0-1.2-0.54-1.2-1.2
				c0-0.66,0.54-1.2,1.2-1.2c0.66,0,1.2,0.54,1.2,1.2C20.64,118.05,20.1,118.59,19.44,118.59z M22.99,132.44
				c-0.66,0-1.2-0.54-1.2-1.2c0-0.66,0.54-1.2,1.2-1.2c0.66,0,1.2,0.54,1.2,1.2C24.19,131.9,23.65,132.44,22.99,132.44z
				 M26.19,136.55c-0.83,0-1.5-0.67-1.5-1.5s0.67-1.5,1.5-1.5c0.83,0,1.5,0.67,1.5,1.5S27.02,136.55,26.19,136.55z"/>
			<path class="st0" d="M64.67,83.93L64,82.91V62.76h-2.64v20.01l-0.55,0.93c-4.59,8.11-8.83,18.75-8.99,21.8
				c-0.47,9.1,1.16,36.69,1.18,36.97l-0.03,0.13v0.13c0,0.83,0.75,2.24,1.41,2.24h18.3c0.61,0,1.15-1.4,1.15-2.24v-0.11l0.05-0.11
				c0.02-0.28,1.62-28.05,1.14-37.16C74.86,102.38,69.91,91.92,64.67,83.93z M59.4,112.58c0.55,0,1,0.45,1,1c0,0.55-0.45,1-1,1
				c-0.55,0-1-0.45-1-1C58.4,113.03,58.85,112.58,59.4,112.58z M59.4,122.7c-0.83,0-1.5-0.67-1.5-1.5c0-0.83,0.67-1.5,1.5-1.5
				c0.83,0,1.5,0.67,1.5,1.5C60.91,122.03,60.23,122.7,59.4,122.7z M62.61,118.59c-0.66,0-1.2-0.54-1.2-1.2c0-0.66,0.54-1.2,1.2-1.2
				c0.66,0,1.2,0.54,1.2,1.2C63.81,118.05,63.28,118.59,62.61,118.59z M69.37,126.43c0.55,0,1,0.45,1,1c0,0.55-0.45,1-1,1
				c-0.55,0-1-0.45-1-1C68.37,126.88,68.82,126.43,69.37,126.43z M66.16,132.44c-0.66,0-1.2-0.54-1.2-1.2c0-0.66,0.54-1.2,1.2-1.2
				c0.66,0,1.2,0.54,1.2,1.2C67.37,131.9,66.83,132.44,66.16,132.44z M69.37,136.55c-0.83,0-1.5-0.67-1.5-1.5s0.67-1.5,1.5-1.5
				c0.83,0,1.5,0.67,1.5,1.5S70.2,136.55,69.37,136.55z"/>
			<path class="st0" d="M108.97,83.93l-0.63-1.02V62.76h-2.64v20.01l-0.59,0.93c-4.59,8.11-8.85,18.75-9.01,21.8
				c-0.47,9.1,1.31,36.69,1.33,36.97l0.12,0.13v0.13c0,0.83,0.43,2.24,1.09,2.24h18.3c0.61,0,1.23-1.4,1.23-2.24v-0.11l0.01-0.11
				c0.02-0.28,1.62-28.05,1.15-37.16C119.16,102.38,114.21,91.92,108.97,83.93z M106.88,114.56c0.66,0,1.2,0.54,1.2,1.2
				c0,0.66-0.54,1.2-1.2,1.2c-0.66,0-1.2-0.54-1.2-1.2C105.67,115.1,106.21,114.56,106.88,114.56z M103.67,110.95c0.55,0,1,0.45,1,1
				c0,0.55-0.45,1-1,1c-0.55,0-1-0.45-1-1C102.67,111.4,103.11,110.95,103.67,110.95z M110.43,134.07c-0.66,0-1.2-0.54-1.2-1.2
				c0-0.66,0.54-1.2,1.2-1.2c0.66,0,1.2,0.54,1.2,1.2C111.63,133.53,111.09,134.07,110.43,134.07z"/>
			<path class="st1" d="M37.49,105.02c-0.3-5.84-9.69-20.69-11.84-23.81V52.13c0.48-0.49,0.96-1.18,0.96-1.94v-4.89
				c0-1.5-1.29-2.44-2.79-2.44h-3.57h-5.12c-1.5,0-2.9,0.95-2.9,2.44v4.89c0,0.76,0.48,1.44,0.96,1.94v29.14
				c-1.68,3.06-10,18.14-10.31,23.94c-0.48,9.32,1.15,36.05,1.25,37.75c0.03,3.99,3.26,7.52,7.07,7.52h18.3
				c3.74,0,6.88-3.54,6.9-7.53C36.5,141.3,37.98,114.35,37.49,105.02z M14.86,45.5h5.43h1.42h2.11l0,5.03h-2.11h-1.34h-5.51V45.5z
				 M33.19,142.64l-0.01,0.34c0,2.24-1.69,4.39-3.68,4.39H11.2c-2.03,0-3.8-2.18-3.8-4.39l0-0.22c-0.02-0.28-1.73-28.07-1.25-37.31
				c0.24-4.52,7.29-18.08,10.03-22.91l0.12-0.4V53.89h4.13h2.1v28.29l0.23,0.41c3.13,4.77,11.3,18.14,11.53,22.62
				C34.77,114.46,33.21,142.36,33.19,142.64z"/>
			<path class="st1" d="M21.57,32.48V21.36c0-0.58-0.12-9.48-6.22-15.67C11.63,1.92,6.71,0,0,0v4.07c5.51,0,9.5,1.5,12.43,4.46
				c4.97,5.02,5.07,12.72,5.07,12.79v6.17L21.57,32.48z"/>
			<path class="st1" d="M46.04,105.21c-0.48,9.32,1.16,36.05,1.26,37.75c0.03,3.99,3.27,7.52,7.08,7.52h18.3
				c3.74,0,6.91-3.54,6.93-7.53c0.09-1.66,1.53-28.5,1.04-37.82c-0.3-5.83-9.7-20.8-11.86-23.92V52.13
				c0.48-0.49,0.72-1.18,0.72-1.94v-4.89c0-1.5-1.02-2.44-2.52-2.44H58.3c-1.5,0-2.7,0.95-2.7,2.44v4.89c0,0.76,0.24,1.44,0.72,1.94
				v29.14C54.65,84.33,46.34,99.41,46.04,105.21z M58.48,45.5h8.51l0,5.03h-8.51V45.5z M59.46,82.5l0.22-0.37V53.89h5.99v28.29
				l0.25,0.41c3.13,4.77,11.3,18.14,11.54,22.62c0.48,9.24-1.08,37.15-1.1,37.43l-0.01,0.34c0,2.24-1.68,4.39-3.68,4.39h-18.3
				c-2.03,0-3.8-2.18-3.8-4.39l0-0.22c-0.02-0.28-1.72-28.07-1.24-37.31C49.57,100.92,56.72,87.33,59.46,82.5z"/>
			<path class="st1" d="M69.75,26.03v-3.26c0-1.95-1.35-3.15-3.3-3.15h-7.64c-1.95,0-3.68,1.21-3.68,3.15v3.26
				c0,1.65,0.98,3.04,2.52,3.42l-0.46,8.75c-0.01,0.22,0.09,0.55,0.24,0.71c0.15,0.16,0.39,0.36,0.61,0.36h9.04
				c0.23,0,0.45-0.2,0.6-0.37c0.15-0.17,0.23-0.44,0.21-0.67l-0.41-8.84C68.86,28.92,69.75,27.58,69.75,26.03z M58.89,37.59
				l0.45-7.91h6.63l0.21,7.91H58.89z M68.31,26.1c0,1.05-0.85,1.9-1.9,1.9h-7.7c-1.05,0-1.9-0.85-1.9-1.9v-3.15
				c0-1.05,0.85-1.9,1.9-1.9h7.7c1.05,0,1.9,0.85,1.9,1.9V26.1z"/>
			<path class="st1" d="M101.3,42.99c-0.79,0.48-1.35,1.34-1.35,2.32v4.89c0,0.76,0.24,1.44,0.72,1.94v29.14
				c-1.68,3.06-10.03,18.14-10.33,23.94c-0.49,9.32,1.14,36.05,1.24,37.75c0.03,3.99,3.25,7.52,7.06,7.52h18.3
				c3.74,0,6.91-3.54,6.93-7.53c0.09-1.66,1.68-28.5,1.2-37.82c-0.3-5.83-9.78-20.8-11.7-23.92V52.13c0.24-0.49,0.72-1.18,0.72-1.94
				v-4.89c0-1.04-0.61-1.95-1.47-2.4c1.03-0.62,1.71-1.74,1.71-3.03v-3.26c0-1.95-1.67-3.1-3.62-3.1h-7.88
				c-1.95,0-3.37,1.16-3.37,3.1v3.26C99.47,41.22,100.19,42.39,101.3,42.99z M102.59,50.54V45.5h8.67l0,5.03H102.59z M121.71,105.21
				c0.48,9.24-1.08,37.15-1.1,37.43l0,0.34c0,2.24-1.68,4.39-3.68,4.39h-18.3c-2.02,0-3.8-2.18-3.8-4.39l0-0.22
				c-0.02-0.28-1.73-28.07-1.25-37.31c0.23-4.52,7.31-18.08,10.05-22.91l0.14-0.4V53.89h5.99v28.29l0.33,0.41
				C113.24,87.37,121.48,100.73,121.71,105.21z M112.41,39.75c0,1.05-1.02,2.16-2.07,2.16h-7.81c-1.05,0-1.86-1.11-1.86-2.16v-3.17
				c0-1.05,0.81-1.62,1.86-1.62h7.81c1.05,0,2.07,0.57,2.07,1.62V39.75z"/>
		</g>
	</g>
	<g>
		<path class="st2" d="M108.32,138.17c-0.4,0-0.78-0.16-1.06-0.44l-14.64-14.64c-0.59-0.59-0.59-1.54,0-2.12l14.64-14.64
			c0.28-0.28,0.66-0.44,1.06-0.44s0.78,0.16,1.06,0.44l14.64,14.64c0.59,0.59,0.59,1.54,0,2.12l-14.64,14.64
			C109.1,138.01,108.72,138.17,108.32,138.17L108.32,138.17z"/>
		<g>
			<path class="st3" d="M108.32,107.39l14.64,14.64l-14.64,14.64l-14.64-14.64L108.32,107.39 M108.32,104.39
				c-0.77,0-1.54,0.29-2.12,0.88L91.56,119.9c-1.17,1.17-1.17,3.07,0,4.24l14.64,14.64c0.59,0.59,1.35,0.88,2.12,0.88
				s1.54-0.29,2.12-0.88l14.64-14.64c1.17-1.17,1.17-3.07,0-4.24l-14.64-14.64C109.86,104.68,109.09,104.39,108.32,104.39
				L108.32,104.39z"/>
		</g>
	</g>
</g>
</svg>
