<?xml version="1.0" encoding="utf-8"?>
<!-- Generator: Adobe Illustrator 27.0.0, SVG Export Plug-In . SVG Version: 6.00 Build 0)  -->
<svg version="1.1" id="Layer_1" xmlns="http://www.w3.org/2000/svg" xmlns:xlink="http://www.w3.org/1999/xlink" x="0px" y="0px"
	 viewBox="0 0 122.35 178.95" style="enable-background:new 0 0 122.35 178.95;" xml:space="preserve">
<style type="text/css">
	.st0{fill:#6A371A;}
	.st1{fill:#974E24;}
	.st2{fill:none;}
</style>
<g>
	<g>
		<g>
			<path class="st0" d="M1.18,167.99c-0.65,0-1.18,0.53-1.18,1.19v8.59c0,0.65,0.53,1.18,1.18,1.18h117.29
				c0.65,0,1.18-0.53,1.18-1.18v-8.59c0-0.65-0.53-1.19-1.18-1.19H1.18z M117.29,176.58H2.37v-6.22h114.92V176.58z"/>
		</g>
		<g>
			<path class="st0" d="M58.05,41.48h5.04c0.82,0,1.48-0.66,1.48-1.48V10.96h53.91c0.65,0,1.18-0.53,1.18-1.19V1.19
				c0-0.65-0.53-1.19-1.18-1.19H1.18C0.53,0,0,0.53,0,1.19v8.59c0,0.65,0.53,1.19,1.18,1.19h55.39V40
				C56.57,40.82,57.23,41.48,58.05,41.48z M61.61,38.52h-2.07V11.55h2.07V38.52z M2.37,8.59V2.37h114.92v6.22h-54.2h-5.04H2.37z"/>
		</g>
		<g>
			<rect x="2.37" y="170.36" class="st1" width="114.92" height="6.22"/>
		</g>
		<g>
			<polygon class="st1" points="2.37,8.59 58.05,8.59 63.09,8.59 117.29,8.59 117.29,2.37 2.37,2.37 			"/>
		</g>
		<g>
			<path class="st2" d="M100.41,64.29v25.56c0,0.61-0.38,1.16-0.95,1.38c-3.79,1.44-6.33,4.86-6.33,8.51c0,0.46-0.1,52.95-0.1,55.19
				c0,1.78,1.65,3.28,3.6,3.28h14.11c1.88,0,3.41-1.47,3.41-3.28c0-0.55,0.17-54.57,0.17-55.19c0-3.71-2.58-7.15-6.42-8.57
				c-0.58-0.21-0.97-0.77-0.97-1.39V64.29H100.41z M111.5,99.42c0,0.42,0.31,52.37,0.31,52.37c0,1.74-1.44,3.17-3.3,3.17H98.7
				c-1.86,0-3.45-1.42-3.45-3.17c0,0,0.05-52.06,0.05-52.37c0-2.98,3.92-6.12,6.59-7.2V72.29h3.55v19.86l0.06,0
				C108.76,93.17,111.5,96.37,111.5,99.42z"/>
		</g>
		<g>
			<rect x="99.22" y="57.18" class="st2" width="9.18" height="3.85"/>
		</g>
		<g>
			<path class="st2" d="M61.61,61.03h2.9c0.02,0,0.04-0.01,0.06-0.01v-3.83c-0.02,0-0.03-0.01-0.05-0.01h-2.91V61.03z"/>
		</g>
		<g>
			<rect x="59.53" y="11.55" class="st1" width="2.07" height="26.96"/>
		</g>
		<g>
			<rect x="55.39" y="57.18" class="st2" width="2.67" height="3.85"/>
		</g>
		<g>
			<rect x="11.55" y="57.18" class="st2" width="8.89" height="3.85"/>
		</g>
	</g>
	<g>
		<path class="st0" d="M70.33,121.8c0.07-1.1,0.13-2.2,0.11-3.31c0-0.23-0.09-1.39-0.08-1.52c0-0.03-0.01-0.06-0.01-0.08
			C70.35,118.48,70.34,120.13,70.33,121.8z"/>
	</g>
	<path class="st1" d="M71.39,110.53c-2.39,0.69-4.79,1.39-7.17,2.1c-0.48,0.14-0.96,0.29-1.44,0.43l-0.79-48.61l-0.01-0.81
		l-0.04-2.44l0-0.27l-0.08-4.88l-0.04-2.71l-0.23-11.48l-1.63,0.02l-0.15,11.46l-0.02,2.71l-0.04,4.88l0,0.27l-0.02,2.44l-0.01,0.81
		l-0.44,49.67c-3.04,0.92-6.08,1.86-9.1,2.82c-0.35,9.75,1.22,35.94,1.24,36.21l0,0.13v0.13c0,0.82,0.72,2.24,1.38,2.24h18.29
		c0.61,0,0.94-1.4,0.94-2.24v-0.11l0.15-0.11c0.02-0.28,1.67-28.03,1.2-37.14C73.28,114.98,72.57,113,71.39,110.53z M67.74,137.1
		c0.55,0,1,0.45,1,1c0,0.55-0.45,1-1,1c-0.55,0-1-0.45-1-1C66.74,137.55,67.19,137.1,67.74,137.1z M57.78,123.26c0.55,0,1,0.45,1,1
		c0,0.55-0.45,1-1,1c-0.55,0-1-0.45-1-1C56.78,123.71,57.23,123.26,57.78,123.26z M57.78,133.38c-0.83,0-1.5-0.67-1.5-1.5
		c0-0.83,0.67-1.5,1.5-1.5c0.83,0,1.5,0.67,1.5,1.5C59.28,132.71,58.61,133.38,57.78,133.38z M60.99,129.27
		c-0.66,0-1.2-0.54-1.2-1.2c0-0.66,0.54-1.2,1.2-1.2c0.66,0,1.2,0.54,1.2,1.2C62.19,128.73,61.65,129.27,60.99,129.27z
		 M64.54,143.11c-0.66,0-1.2-0.54-1.2-1.2c0-0.66,0.54-1.2,1.2-1.2c0.66,0,1.2,0.54,1.2,1.2C65.74,142.57,65.2,143.11,64.54,143.11z
		 M67.74,147.22c-0.83,0-1.5-0.67-1.5-1.5c0-0.83,0.67-1.5,1.5-1.5c0.83,0,1.5,0.67,1.5,1.5C69.25,146.55,68.57,147.22,67.74,147.22
		z"/>
	<path class="st0" d="M79.03,115.71c-0.3-5.83-9.68-20.68-11.84-23.8V62.85c0.48-0.49,0.96-1.18,0.96-1.94v-4.88
		c0-1.5-1.29-2.44-2.79-2.44H61.8h-5.12c-1.5,0-2.9,0.95-2.9,2.44v4.88c0,0.76,0.48,1.44,0.96,1.94v29.12
		c-1.68,3.06-10,18.12-10.3,23.93c-0.48,9.31,1.15,36.03,1.25,37.73c0.03,3.99,3.26,7.52,7.07,7.52h18.29c3.74,0,6.87-3.54,6.9-7.52
		C78.04,151.96,79.52,125.03,79.03,115.71z M56.42,56.22h5.43h1.42h2.11l0,5.03h-2.11h-1.34h-5.51V56.22z M74.73,153.3l-0.01,0.34
		c0,2.24-1.69,4.39-3.68,4.39H52.76c-2.02,0-3.8-2.18-3.8-4.39l0-0.22c-0.02-0.28-1.72-28.05-1.24-37.29
		c0.24-4.52,7.29-18.07,10.02-22.9l0.12-0.4V64.61h4.13h2.1v28.28l0.23,0.41c3.13,4.77,11.29,18.13,11.52,22.61
		C76.31,125.14,74.75,153.02,74.73,153.3z"/>
	<path class="st0" d="M37.03,115.71c-0.3-5.83-9.68-20.68-11.84-23.8V62.85c0.48-0.49,0.96-1.18,0.96-1.94v-4.88
		c0-1.5-1.29-2.44-2.79-2.44H19.8h-5.12c-1.5,0-2.9,0.95-2.9,2.44v4.88c0,0.76,0.48,1.44,0.96,1.94v29.12
		c-1.68,3.06-10,18.12-10.3,23.93c-0.48,9.31,1.15,36.03,1.25,37.73c0.03,3.99,3.26,7.52,7.07,7.52h18.29c3.74,0,6.87-3.54,6.9-7.52
		C36.04,151.96,37.52,125.03,37.03,115.71z M14.42,56.22h5.43h1.42h2.11l0,5.03h-2.11h-1.34h-5.51V56.22z M32.73,153.3l-0.01,0.34
		c0,2.24-1.69,4.39-3.68,4.39H10.76c-2.02,0-3.8-2.18-3.8-4.39l0-0.22c-0.02-0.28-1.72-28.05-1.24-37.29
		c0.24-4.52,7.29-18.07,10.02-22.9l0.12-0.4V64.61h4.13h2.1v28.28l0.23,0.41c3.13,4.77,11.29,18.13,11.52,22.61
		C34.31,125.14,32.75,153.02,32.73,153.3z"/>
	<g>
		<path class="st1" d="M106.31,94.78l-0.67-1.02v-20.1h-2.63v19.96l-0.55,0.93c-4.58,8.09-8.81,18.7-8.97,21.74
			c-0.47,9.07,1.16,36.59,1.18,36.87l-0.03,0.13v0.13c0,0.82,0.75,2.24,1.41,2.24h18.24c0.61,0,1.14-1.4,1.14-2.24v-0.11l0.05-0.11
			c0.02-0.28,1.61-27.97,1.14-37.06C116.48,113.17,111.54,102.75,106.31,94.78z M101.06,123.34c0.55,0,1,0.45,1,1c0,0.55-0.45,1-1,1
			c-0.55,0-1-0.45-1-1C100.06,123.79,100.51,123.34,101.06,123.34z M101.06,133.44c-0.83,0-1.5-0.67-1.5-1.5
			c0-0.83,0.67-1.5,1.5-1.5c0.83,0,1.5,0.67,1.5,1.5C102.56,132.77,101.89,133.44,101.06,133.44z M104.26,129.34
			c-0.66,0-1.2-0.54-1.2-1.2c0-0.66,0.54-1.2,1.2-1.2c0.66,0,1.2,0.54,1.2,1.2C105.46,128.8,104.92,129.34,104.26,129.34z
			 M111,137.16c0.55,0,1,0.45,1,1c0,0.55-0.45,1-1,1c-0.55,0-1-0.45-1-1C110,137.6,110.45,137.16,111,137.16z M107.8,143.15
			c-0.66,0-1.2-0.54-1.2-1.2c0-0.66,0.54-1.2,1.2-1.2c0.66,0,1.2,0.54,1.2,1.2C109,142.62,108.47,143.15,107.8,143.15z M111,147.25
			c-0.83,0-1.5-0.67-1.5-1.5s0.67-1.5,1.5-1.5c0.83,0,1.5,0.67,1.5,1.5S111.83,147.25,111,147.25z"/>
		<path class="st0" d="M87.73,116c-0.48,9.29,1.16,35.95,1.26,37.64c0.03,3.98,3.26,7.5,7.06,7.5h18.24c3.73,0,6.89-3.53,6.91-7.51
			c0.09-1.65,1.52-28.42,1.04-37.72c-0.3-5.82-9.68-20.74-11.83-23.85v-29c0.48-0.49,0.72-1.17,0.72-1.93v-4.87
			c0-1.49-1.02-2.44-2.51-2.44h-8.67c-1.49,0-2.69,0.94-2.69,2.44v4.87c0,0.76,0.24,1.44,0.72,1.93v29.06
			C96.32,95.17,88.04,110.21,87.73,116z M100.14,56.46h8.49l0,5.02h-8.49V56.46z M101.12,93.35l0.22-0.37V64.82h5.98v28.21
			l0.25,0.41c3.12,4.76,11.27,18.09,11.51,22.56c0.48,9.22-1.08,37.04-1.1,37.32l-0.01,0.34c0,2.24-1.68,4.38-3.67,4.38H96.05
			c-2.02,0-3.79-2.18-3.79-4.38l0-0.22c-0.02-0.28-1.72-27.99-1.24-37.21C91.26,111.72,98.39,98.17,101.12,93.35z"/>
	</g>
</g>
</svg>
