<?xml version="1.0" encoding="utf-8"?>
<!-- Generator: Adobe Illustrator 27.0.0, SVG Export Plug-In . SVG Version: 6.00 Build 0)  -->
<svg version="1.1" id="Layer_1" xmlns="http://www.w3.org/2000/svg" xmlns:xlink="http://www.w3.org/1999/xlink" x="0px" y="0px"
	 viewBox="0 0 103.66 149.03" style="enable-background:new 0 0 103.66 149.03;" xml:space="preserve">
<style type="text/css">
	.st0{fill:#6A371A;}
	.st1{fill:none;}
	.st2{fill:#974E24;}
</style>
<g>
	<g>
		<path class="st0" d="M58.94,14.81H44.72c-0.82,0-1.48,0.66-1.48,1.48v19.26H33.17c-0.82,0-1.48,0.66-1.48,1.48v7.74L7.86,62.22
			H7.13h-1.2c-0.34,0-0.65,0.12-0.91,0.32C2.08,63.45,0,66.24,0,69.63v20.15c0,3.39,2.08,6.17,5.01,7.09
			c0.25,0.2,0.57,0.32,0.91,0.32h0.94l13.44,13.21c0.28,0.27,0.65,0.42,1.04,0.42h60.72c0.44,0,0.86-0.2,1.14-0.53l10.9-13.1h1.87
			h0.02c4.16,0,7.68-3.39,7.68-7.41V69.63c0-4.01-3.52-7.41-7.68-7.41h-0.02h-0.65l-23.64-17.3v-7.88c0-0.82-0.66-1.48-1.48-1.48
			h-9.77V16.3C60.42,15.48,59.76,14.81,58.94,14.81z M46.2,17.78h11.25v17.78H46.2V17.78z M48.57,103.4l1.19-15.74l1.7-2.04
			l1.7,2.04l1.19,15.74H48.57z M90.3,62.22h-3.81c-0.82,0-1.48,0.66-1.48,1.48c0,0.82,0.66,1.48,1.48,1.48h8.35h1.13h0.02
			c2.51,0,4.72,2.08,4.72,4.44v20.15c0,2.37-2.21,4.44-4.72,4.44h-0.02H93.4h-6.92c-0.82,0-1.48,0.66-1.48,1.48
			c0,0.82,0.66,1.48,1.48,1.48h3.76l-8.88,10.67H68.04c0.67-0.38,1.12-1.1,1.12-1.93c0-1.23-1-2.22-2.22-2.22H56.16l-1.24-16.47
			c-0.01-0.18-0.09-0.37-0.2-0.52l-2.57-3.09c-0.17-0.2-0.42-0.36-0.68-0.36h0c-0.26,0-0.51,0.16-0.68,0.36l-2.57,3.12
			c-0.12,0.14-0.19,0.32-0.2,0.5l-1.24,16.45H36.43c-1.23,0-2.22,1-2.22,2.22c0,0.82,0.45,1.54,1.12,1.93H21.95L11.09,97.18h4.32
			c0.82,0,1.48-0.66,1.48-1.48c0-0.82-0.66-1.48-1.48-1.48H7.46H7.13c-2.38,0-4.16-1.91-4.16-4.44V69.63c0-2.53,1.79-4.44,4.16-4.44
			h1.22h7.06c0.82,0,1.48-0.66,1.48-1.48c0-0.82-0.66-1.48-1.48-1.48h-2.52L33.12,47.4h0.06h12.96h11.21h12.72L90.3,62.22z
			 M68.71,38.52v5.93H34.65v-5.93h10.07h14.22H68.71z"/>
	</g>
	<g>
		<path class="st1" d="M86.49,94.22h6.92h2.56h0.02c2.51,0,4.72-2.08,4.72-4.44V69.63c0-2.37-2.21-4.44-4.72-4.44h-0.02h-1.13h-8.35
			c-0.82,0-1.48-0.66-1.48-1.48c0-0.82,0.66-1.48,1.48-1.48h3.81L70.06,47.4H57.34v3.37c0.19,0,0.37,0.06,0.52,0.17l17,12.4
			c0.23,0.17,0.36,0.43,0.36,0.72v29.33c0,0.33-0.19,0.64-0.49,0.79c-0.13,0.06-0.26,0.09-0.4,0.09c-0.18,0-0.37-0.06-0.52-0.17
			L57.8,82.46l-3.09,4.25c0.12,0.14,0.19,0.33,0.2,0.52l1.24,16.47h10.78c1.23,0,2.22,1,2.22,2.22c0,0.82-0.45,1.54-1.12,1.93h13.32
			l8.88-10.67h-3.76c-0.82,0-1.48-0.66-1.48-1.48C85,94.88,85.67,94.22,86.49,94.22z"/>
	</g>
	<g>
		<path class="st0" d="M7.85,113.47c-1.23,0-2.22,1-2.22,2.22v31.11c0,1.23,1,2.22,2.22,2.22h87.97c1.23,0,2.22-1,2.22-2.22V115.7
			c0-1.23-1-2.22-2.22-2.22H7.85z M93.59,144.58H10.07v-26.66h83.52V144.58z"/>
	</g>
	<g>
		<rect x="10.07" y="117.92" class="st2" width="83.52" height="26.66"/>
	</g>
	<g>
		<path class="st0" d="M57.87,50.94c-0.15-0.11-0.34-0.17-0.52-0.17c-0.14,0-0.28,0.03-0.4,0.09c-0.3,0.15-0.49,0.46-0.49,0.79
			L56.4,80.99c0,0.28,0.14,0.55,0.37,0.72l1.03,0.75l16.02,11.64c0.15,0.11,0.34,0.17,0.52,0.17c0.14,0,0.28-0.03,0.4-0.09
			c0.3-0.15,0.49-0.46,0.49-0.79V64.06c0-0.28-0.14-0.55-0.36-0.72L57.87,50.94z M73.45,91.64l-15.28-11.1l0.01-5.12l15.27,11.17
			V91.64z M73.45,84.38L58.19,73.22l0.01-5.2l15.25,11.16V84.38z M73.45,76.97L58.2,65.82l0.01-5.2l15.24,11.15V76.97z M73.45,69.57
			L58.22,58.42l0.01-5.02l15.22,11.1V69.57z"/>
	</g>
	<g>
		<polygon class="st1" points="73.45,91.64 73.45,86.58 58.19,75.41 58.17,80.54 		"/>
	</g>
	<g>
		<polygon class="st1" points="73.45,84.38 73.45,79.18 58.2,68.02 58.19,73.22 		"/>
	</g>
	<g>
		<polygon class="st1" points="73.45,76.97 73.45,71.77 58.21,60.62 58.2,65.82 		"/>
	</g>
	<g>
		<polygon class="st1" points="73.45,69.57 73.45,64.51 58.23,53.4 58.22,58.42 		"/>
	</g>
	<g>
		<polygon class="st2" points="34.65,38.52 34.65,44.44 68.71,44.44 68.71,38.52 58.94,38.52 44.72,38.52 		"/>
	</g>
	<g>
		<polygon class="st0" points="46.25,5.16 51.58,10.33 56.92,5.17 62.25,0 51.58,0 40.91,0 		"/>
	</g>
	<g>
		<path class="st1" d="M46.67,81.7l4.11,1.91c0.17-0.2,0.42-0.36,0.68-0.36h0c0.26,0,0.51,0.16,0.68,0.36l2.57,3.09l3.09-4.25
			l-1.03-0.75c-0.23-0.17-0.37-0.44-0.37-0.72l0.06-29.33c0-0.33,0.19-0.64,0.49-0.79c0.13-0.07,0.27-0.09,0.4-0.09V47.4H46.14v3.37
			c0.14,0,0.27,0.03,0.4,0.09c0.3,0.15,0.49,0.46,0.49,0.79l0.01,29.33C47.03,81.27,46.9,81.54,46.67,81.7z"/>
	</g>
	<g>
		<rect x="46.2" y="17.78" class="st1" width="11.25" height="17.78"/>
	</g>
	<g>
		<polygon class="st2" points="49.76,87.66 48.57,103.4 54.35,103.4 53.16,87.66 51.46,85.62 		"/>
	</g>
	<g>
		<path class="st1" d="M36.43,103.7h10.33l1.24-16.45c0.01-0.18,0.08-0.36,0.2-0.5l2.57-3.12l-4.11-1.91L29.85,94.1
			c-0.16,0.11-0.34,0.17-0.53,0.17c-0.14,0-0.28-0.03-0.4-0.09c-0.3-0.15-0.49-0.46-0.49-0.79V64.06c0-0.28,0.13-0.55,0.36-0.71
			l8.16-6.06l8.66-6.33c0.15-0.12,0.34-0.17,0.53-0.17V47.4H33.17h-0.06L12.88,62.22h2.52c0.82,0,1.48,0.66,1.48,1.48
			c0,0.82-0.66,1.48-1.48,1.48H8.35H7.13c-2.38,0-4.16,1.91-4.16,4.44v20.15c0,2.53,1.79,4.44,4.16,4.44h0.34h7.94
			c0.82,0,1.48,0.66,1.48,1.48c0,0.82-0.66,1.48-1.48,1.48h-4.32l10.86,10.67h13.38c-0.67-0.38-1.12-1.1-1.12-1.93
			C34.21,104.69,35.2,103.7,36.43,103.7z"/>
	</g>
	<g>
		<path class="st0" d="M46.54,50.86c-0.13-0.07-0.26-0.09-0.4-0.09c-0.19,0-0.37,0.06-0.53,0.17l-8.66,6.33l-8.16,6.06
			c-0.23,0.17-0.36,0.43-0.36,0.71v29.33c0,0.33,0.19,0.64,0.49,0.79c0.12,0.07,0.26,0.09,0.4,0.09c0.19,0,0.37-0.06,0.53-0.17
			l16.82-12.4c0.23-0.17,0.36-0.43,0.36-0.71l-0.01-29.33C47.02,51.32,46.84,51.02,46.54,50.86z M30.21,64.5L38,58.71l7.24-5.3v4.81
			l-15.04,11V64.5z M30.21,71.42l15.04-11l0,5.2l-15.04,11V71.42z M30.21,78.82l15.04-11l0,5.2l-15.04,11V78.82z M30.21,91.63v-5.4
			l15.04-11l0,5.31L30.21,91.63z"/>
	</g>
	<g>
		<polygon class="st1" points="30.21,91.63 45.26,80.54 45.25,75.23 30.21,86.23 		"/>
	</g>
	<g>
		<polygon class="st1" points="30.21,84.03 45.25,73.03 45.25,67.82 30.21,78.82 		"/>
	</g>
	<g>
		<polygon class="st1" points="30.21,76.62 45.25,65.62 45.25,60.42 30.21,71.42 		"/>
	</g>
	<g>
		<polygon class="st1" points="30.21,69.22 45.25,58.22 45.25,53.41 38,58.71 30.21,64.5 		"/>
	</g>
</g>
</svg>
