<?xml version="1.0" encoding="utf-8"?>
<!-- Generator: Adobe Illustrator 27.0.0, SVG Export Plug-In . SVG Version: 6.00 Build 0)  -->
<svg version="1.1" id="Layer_1" xmlns="http://www.w3.org/2000/svg" xmlns:xlink="http://www.w3.org/1999/xlink" x="0px" y="0px"
	 viewBox="0 0 147.35 138.73" style="enable-background:new 0 0 147.35 138.73;" xml:space="preserve">
<style type="text/css">
	.st0{fill:#974E24;}
	.st1{fill:#6A371A;}
</style>
<g>
	<g>
		<g>
			<path class="st0" d="M124.51,83.9V70.07c-13.85,0.01-51.78-0.1-56.79-0.33c-1.67,0.88-3.51,1.19-5.06,1.92H33.65v2.43h28.22
				l1.03,0.74c8.1,5.33,18.7,11.21,21.69,11.36c1.16,0.06,2.7,0.1,4.59,0.1c11.7,0,32.83-1.33,33.05-1.34l0.11-0.17h0.11
				C123.31,84.79,124.51,84.52,124.51,83.9z M84.25,74.06c0.56,0,1.02,0.46,1.02,1.02c0,0.56-0.45,1.02-1.02,1.02
				c-0.56,0-1.02-0.45-1.02-1.02C83.23,74.52,83.68,74.06,84.25,74.06z M84.25,84.32c-0.84,0-1.52-0.68-1.52-1.52
				c0-0.84,0.68-1.52,1.52-1.52c0.84,0,1.52,0.68,1.52,1.52C85.77,83.64,85.09,84.32,84.25,84.32z M87.5,80.16
				c-0.67,0-1.22-0.55-1.22-1.22c0-0.67,0.55-1.22,1.22-1.22c0.67,0,1.22,0.55,1.22,1.22C88.72,79.61,88.17,80.16,87.5,80.16z
				 M115.07,74.06c0.56,0,1.02,0.46,1.02,1.02c0,0.56-0.45,1.02-1.02,1.02c-0.56,0-1.02-0.45-1.02-1.02
				C114.06,74.52,114.51,74.06,115.07,74.06z M115.07,84.32c-0.84,0-1.52-0.68-1.52-1.52c0-0.84,0.68-1.52,1.52-1.52
				c0.84,0,1.52,0.68,1.52,1.52C116.6,83.64,115.92,84.32,115.07,84.32z M118.33,80.16c-0.67,0-1.22-0.55-1.22-1.22
				c0-0.67,0.55-1.22,1.22-1.22c0.67,0,1.22,0.55,1.22,1.22C119.55,79.61,119,80.16,118.33,80.16z"/>
			<path class="st0" d="M7.47,47.13h0.12l0.11,0.15c0.21,0.01,21.35,1.23,33.05,1.23c1.89,0,3.43,0.02,4.59-0.04
				c3-0.16,13.59-6.13,21.69-11.46l1.03-0.81h29v-2.19h-29.8c-1.56-0.97-3-1.07-4.67-1.95c-5.02,0.23-42.79,0.31-56.4,0.3v13.82
				C6.19,46.81,6.61,47.13,7.47,47.13z M47.31,38.91c0.67,0,1.22,0.55,1.22,1.22c0,0.67-0.55,1.22-1.22,1.22
				c-0.67,0-1.22-0.55-1.22-1.22C46.09,39.45,46.63,38.91,47.31,38.91z M44.06,35.25c0.56,0,1.02,0.45,1.02,1.02
				c0,0.56-0.46,1.02-1.02,1.02c-0.56,0-1.02-0.45-1.02-1.02C43.04,35.71,43.5,35.25,44.06,35.25z M44.06,42.46
				c0.84,0,1.52,0.68,1.52,1.52s-0.68,1.52-1.52,1.52c-0.84,0-1.52-0.68-1.52-1.52S43.22,42.46,44.06,42.46z M16.48,38.91
				c0.67,0,1.22,0.55,1.22,1.22c0,0.67-0.55,1.22-1.22,1.22c-0.67,0-1.22-0.55-1.22-1.22C15.26,39.45,15.81,38.91,16.48,38.91z
				 M13.23,35.25c0.56,0,1.02,0.45,1.02,1.02c0,0.56-0.46,1.02-1.02,1.02c-0.56,0-1.02-0.45-1.02-1.02
				C12.21,35.71,12.67,35.25,13.23,35.25z M13.23,42.46c0.84,0,1.52,0.68,1.52,1.52s-0.68,1.52-1.52,1.52
				c-0.84,0-1.52-0.68-1.52-1.52S12.39,42.46,13.23,42.46z"/>
			<path class="st0" d="M63.63,107.43c-5.02,0.23-42.62,0.36-56.47,0.35v13.82c0,0.62,0.55,1.08,1.4,1.08h0.11l0.12,0.08
				c0.21,0.01,21.35,1.2,33.05,1.2c1.89,0,3.43,0,4.59-0.06c3-0.16,13.59-6.07,21.69-11.4l1.03-0.75h29.12v-2.43H68.37
				C66.81,108.84,65.3,108.31,63.63,107.43z M12.95,111.22c0.56,0,1.02,0.45,1.02,1.02c0,0.56-0.45,1.02-1.02,1.02
				c-0.56,0-1.02-0.45-1.02-1.02C11.94,111.68,12.39,111.22,12.95,111.22z M12.95,121.48c-0.84,0-1.52-0.68-1.52-1.52
				c0-0.84,0.68-1.52,1.52-1.52c0.84,0,1.52,0.68,1.52,1.52C14.48,120.8,13.79,121.48,12.95,121.48z M16.2,117.32
				c-0.67,0-1.22-0.55-1.22-1.22c0-0.67,0.55-1.22,1.22-1.22c0.67,0,1.22,0.55,1.22,1.22C17.42,116.77,16.88,117.32,16.2,117.32z
				 M43.78,111.22c0.56,0,1.02,0.45,1.02,1.02c0,0.56-0.45,1.02-1.02,1.02c-0.56,0-1.02-0.45-1.02-1.02
				C42.77,111.68,43.22,111.22,43.78,111.22z M43.78,121.48c-0.84,0-1.52-0.68-1.52-1.52c0-0.84,0.68-1.52,1.52-1.52
				c0.84,0,1.52,0.68,1.52,1.52C45.31,120.8,44.62,121.48,43.78,121.48z M47.03,117.32c-0.67,0-1.22-0.55-1.22-1.22
				c0-0.67,0.55-1.22,1.22-1.22s1.22,0.55,1.22,1.22C48.25,116.77,47.71,117.32,47.03,117.32z"/>
			<path class="st1" d="M130.59,64.8c0-3.86-3.72-7.13-7.75-7.16c-1.13-0.07-22.13-1.29-33.65-1.29c-1.85,0-3.47,0.03-4.67,0.09
				c-2.43,0.13-6.5,1.49-10.62,3.36c-0.2-0.09-0.46-0.29-0.69-0.29H2.75c-0.91,0-1.65,0.79-1.65,1.7c0,0.91,0.74,1.7,1.65,1.7h64.59
				c-3.3,1.46-6.03,3.16-7.15,3.89h-29.6c-0.5-0.49-1.19-0.73-1.96-0.73h-4.95c-1.02,0-1.9,0.49-2.38,1.21h-4.16
				c-1.64,0-2.68,1.28-2.68,2.72v6.33c0,1.43,1.07,2.85,2.68,2.85h4.34c0.5,0.73,1.3,0.97,2.2,0.97h4.95c0.77,0,1.46-0.24,1.96-0.73
				h29.55c3.16,1.94,18.24,11.67,24.15,11.98c1.23,0.06,2.82,0.17,4.74,0.17c0,0,0,0,0,0c11.57,0,32.69-1.15,33.81-1.21
				c4.03-0.03,7.75-3.22,7.75-7.04V64.8z M17.37,76.35v-6.06c0,0-0.26-0.32-0.23-0.32h4.12v6.56h-4.03
				C17.15,76.53,17.37,76.42,17.37,76.35z M24.17,77.26v-8.5h4.45l0,8.5H24.17z M127.19,83.35c0,2.04-2.19,3.79-4.45,3.79l-0.24-0.1
				c-0.21,0.01-21.73,1.16-33.47,1.16c0,0,0,0,0,0c-1.86,0-3.4,0.04-4.57-0.02c-4.54-0.24-18.09-8.5-22.93-11.66l-0.41-0.23H32.68
				v-6.32h28.39l0.38-0.06c4.89-2.79,18.59-10,23.17-10.24c1.14-0.06,2.62-0.05,4.41-0.05c11.68,0,33.11,1.29,33.33,1.3l0.38,0.01
				c2.22,0,4.45,1.81,4.45,3.86V83.35z"/>
			<path class="st1" d="M7.6,52.7c1.11,0.06,21.81,1.24,33.39,1.24c1.92,0,3.47-0.11,4.69-0.17c5.91-0.31,20.95-10.03,24.11-11.98
				h29.55c0.5,0.49,1.19,0.73,1.96,0.73h4.95c0.9,0,1.69-0.49,2.2-1.21h4.34c1.62,0,3.22-1.24,3.22-2.66v-6.33
				c0-1.44-1.59-2.67-3.22-2.67h-4.16c-0.48-0.73-1.36-1.46-2.38-1.46h-4.95c-0.77,0-1.46,0.49-1.96,0.73h-29.6
				c-1.12-0.49-3.85-1.94-7.15-3.89h64.59c0.91,0,1.65-0.67,1.65-1.58c0-0.91-0.74-1.58-1.65-1.58H56.7c-0.23,0-0.45,0.17-0.65,0.26
				c-4.11-1.86-8.14-3.32-10.58-3.45c-1.19-0.06-2.74-0.06-4.58-0.06c-11.51,0-32.17,1.24-33.3,1.3c-4.02,0.03-7.23,3.31-7.23,7.17
				v18.55C0.36,49.45,3.57,52.67,7.6,52.7z M113.34,32.58v6.06c0,0.07-0.57-0.25-0.64-0.01h-3.25v-6.32h3.34
				C112.81,32.31,113.34,32.58,113.34,32.58z M101.68,30.85h4.57l0,8.99h-4.58V30.85z M3.52,27.09c0-2.05,1.84-3.85,4.05-3.85
				l0.04,0c0.21-0.01,21.62-1.28,33.3-1.28c1.79,0,3.26,0.03,4.4,0.09c4.58,0.24,18.27,7.4,23.16,10.19l0.37,0.08h29.42v5.83H68.8
				l-0.41,0.51C63.55,41.81,50,50.18,45.46,50.42c-1.17,0.06-2.71,0.15-4.57,0.15c-11.74,0-33.12-1.19-33.33-1.2l0.01,0.01
				c-2.26,0-4.05-1.71-4.05-3.74V27.09z"/>
			<path class="st1" d="M129.92,99.12c0-0.91-0.74-1.7-1.65-1.7H57.8c-0.23,0-0.45,0.1-0.65,0.19c-4.11-1.86-8.14-3.36-10.58-3.48
				c-1.2-0.06-2.74-0.08-4.58-0.08c-11.51,0-32.23,1.23-33.36,1.29c-4.02,0.03-7.3,3.3-7.3,7.16v18.55c0,3.81,3.27,7.04,7.3,7.06
				c1.11,0.06,21.84,1.24,33.42,1.24c1.92,0,3.48-0.28,4.71-0.34c5.91-0.31,20.97-9.72,24.12-12.15h29.55
				c0.5,0.73,1.19,0.97,1.96,0.97h4.96c0.9,0,1.69-0.49,2.2-0.97h4.34c1.62,0,3.34-1.37,3.34-2.8v-6.33c0-1.44-1.7-2.78-3.34-2.78
				h-4.16c-0.48-0.73-1.36-1.21-2.38-1.21h-4.96c-0.77,0-1.46,0-1.96,0.73h-29.6c-1.13-0.73-3.85-2.19-7.16-3.64h64.59
				C129.18,100.82,129.92,100.04,129.92,99.12z M114.55,108v6.06c0,0.07-0.68,0.13-0.75,0.13h-3.38v-6.32h3.46
				C113.91,107.87,114.55,108,114.55,108z M102.89,106.41h4.46l0,8.99h-4.46V106.41z M69.58,107.72l0.38,0.15h29.29v6.07H69.9
				l-0.41,0.32c-4.84,3.16-18.39,11.43-22.93,11.67c-1.17,0.06-2.71,0.11-4.57,0.11c-11.74,0-33.12-1.22-33.33-1.23l0.07,0
				c-2.26,0-4-1.72-4-3.76v-18.55c0-2.05,1.78-3.85,4-3.85l0.02,0c0.22-0.01,21.61-1.28,33.29-1.28c1.79,0,3.25,0,4.39,0.06
				C51.01,97.66,64.69,104.93,69.58,107.72z"/>
		</g>
		<path class="st1" d="M1.65,138.73h126.62c0.91,0,1.65-0.79,1.65-1.7c0-0.91-0.74-1.7-1.65-1.7H1.65c-0.91,0-1.65,0.79-1.65,1.7
			C0,137.94,0.74,138.73,1.65,138.73z"/>
	</g>
	<g>
		<path class="st0" d="M132.08,0c-8.11,0-14.76,6.36-15.24,14.35h1.48c0.48-7.18,6.47-12.88,13.76-12.88c7.61,0,13.8,6.19,13.8,13.8
			s-6.19,13.8-13.8,13.8c-0.06,0-0.12,0-0.18,0v1.47c0.06,0,0.12,0,0.18,0c8.42,0,15.27-6.85,15.27-15.27S140.5,0,132.08,0z"/>
		<path class="st0" d="M131.9,16.09h-8.73c-0.48,0-0.87-0.39-0.87-0.87s0.39-0.87,0.87-0.87h8.73c0.48,0,0.87,0.39,0.87,0.87
			S132.38,16.09,131.9,16.09z"/>
		<path class="st0" d="M131.9,15.66c-0.48,0-0.87-0.39-0.87-0.87V6.06c0-0.48,0.39-0.87,0.87-0.87s0.87,0.39,0.87,0.87v8.73
			C132.77,15.27,132.38,15.66,131.9,15.66z"/>
	</g>
</g>
</svg>
