<?xml version="1.0" encoding="utf-8"?>
<!-- Generator: Adobe Illustrator 27.0.0, SVG Export Plug-In . SVG Version: 6.00 Build 0)  -->
<svg version="1.1" id="Layer_1" xmlns="http://www.w3.org/2000/svg" xmlns:xlink="http://www.w3.org/1999/xlink" x="0px" y="0px"
	 viewBox="0 0 94 47.43" style="enable-background:new 0 0 94 47.43;" xml:space="preserve">
<style type="text/css">
	.st0{fill:#6A371A;}
</style>
<g>
	<polygon class="st0" points="12.82,39.44 21.12,39.44 21.12,28.13 34.69,28.13 34.69,18.32 21.12,18.32 21.12,5.5 12.82,5.5 
		12.82,18.32 0,18.32 0,28.13 12.82,28.13 	"/>
	<path class="st0" d="M81.72,40.93c-0.19,3.38,2.4,6.29,5.78,6.49c3.4,0.19,6.3-2.4,6.49-5.8c0.2-3.38-2.4-6.29-5.78-6.49
		C84.81,34.95,81.91,37.54,81.72,40.93z"/>
	<path class="st0" d="M72.94,23.37c-0.19,3.38,2.4,6.29,5.78,6.49c3.4,0.19,6.3-2.4,6.49-5.8c0.2-3.38-2.4-6.29-5.78-6.49
		C76.03,17.39,73.12,19.97,72.94,23.37z"/>
	<path class="st0" d="M69.94,12.29c3.4,0.19,6.3-2.4,6.49-5.8c0.2-3.38-2.4-6.29-5.79-6.49c-3.39-0.19-6.3,2.4-6.49,5.8
		C63.95,9.19,66.55,12.09,69.94,12.29z"/>
	<path class="st0" d="M69.94,47.42c3.4,0.19,6.3-2.4,6.49-5.8c0.2-3.38-2.4-6.29-5.79-6.49c-3.39-0.19-6.3,2.4-6.49,5.8
		C63.95,44.32,66.55,47.22,69.94,47.42z"/>
	<path class="st0" d="M61.16,29.86c3.4,0.19,6.3-2.4,6.49-5.8c0.2-3.38-2.4-6.29-5.78-6.49c-3.4-0.19-6.3,2.4-6.49,5.8
		C55.18,26.75,57.77,29.66,61.16,29.86z"/>
	<path class="st0" d="M52.37,47.42c3.4,0.19,6.3-2.4,6.49-5.8c0.2-3.38-2.4-6.29-5.78-6.49c-3.4-0.19-6.3,2.4-6.49,5.8
		C46.39,44.32,48.99,47.22,52.37,47.42z"/>
</g>
</svg>
