<?xml version="1.0" encoding="utf-8"?>
<!-- Generator: Adobe Illustrator 27.0.0, SVG Export Plug-In . SVG Version: 6.00 Build 0)  -->
<svg version="1.1" id="Layer_1" xmlns="http://www.w3.org/2000/svg" xmlns:xlink="http://www.w3.org/1999/xlink" x="0px" y="0px"
	 viewBox="0 0 156.19 135.91" style="enable-background:new 0 0 156.19 135.91;" xml:space="preserve">
<style type="text/css">
	.st0{fill:#974E24;}
	.st1{fill:#6A371A;}
</style>
<g>
	<path class="st0" d="M37.53,13.03c-4.34,0.23-8.68,0.54-13,0.96c-1.95,0.19-3.9,0.41-5.84,0.64c-0.33,7.23-0.78,18.63-0.78,26.13
		c0,1.88,0.04,3.42,0.1,4.58c0.15,2.99,6.03,13.56,11.35,21.63l0.73,1.03v6.27c0.97,0.17,1.4,0.23,2.04,0.17
		c0.05,0,0.14-0.01,0.14-0.02v-7.22c0.73-1.55,1.17-3.2,2.05-4.86c0-0.1-0.03-0.23-0.04-0.36c4.24-6.96,8.01-14.25,8.14-16.65
		c0.06-1.16,0.09-2.7,0.09-4.58c0-8.16-0.54-20.92-0.86-27.93C40.26,12.9,38.89,12.96,37.53,13.03z"/>
	<path class="st0" d="M30.07,76.64v20.02h2.18V76.73C31.77,76.77,31.04,76.74,30.07,76.64z"/>
	<path class="st0" d="M113.09,52.31c-6.91,0.06-13.39,1.93-19,5.15c0.02,1.49,0.06,2.97,0.13,4.43c0.06,1.31,0.96,5.67,7.87,17.99
		c3.93,7,7.86,13.08,7.9,13.14l0.56,0.86l0,1.03l-0.01,1.43c0.09-0.03,0.17-0.07,0.27-0.09c0.9-0.23,1.82,0.16,2.29,0.91
		c0.12,0.19,0.21,0.39,0.27,0.61c0.15,0.58,0.03,1.17-0.27,1.64c-0.28,0.44-0.72,0.77-1.26,0.91c-0.46,0.12-0.92,0.07-1.32-0.1
		l-0.03,4.7c0.22-0.17,0.48-0.3,0.77-0.38c0.66-0.17,1.33,0,1.83,0.4c0.35,0.28,0.61,0.66,0.73,1.13c0.21,0.83-0.1,1.66-0.73,2.16
		c-0.23,0.18-0.49,0.32-0.8,0.4c-0.66,0.17-1.33,0-1.83-0.4l-0.02,4.19c0.08-0.03,0.17-0.06,0.26-0.08
		c0.88-0.22,1.78,0.15,2.26,0.86c0.05,0.07,0.09,0.14,0.13,0.22c0.07,0.14,0.13,0.28,0.17,0.44c0.13,0.52,0.06,1.03-0.17,1.47
		c-0.18,0.36-0.47,0.66-0.82,0.87c-0.16,0.09-0.34,0.17-0.53,0.22c-0.45,0.11-0.91,0.07-1.31-0.09l0,0.31l2.67,0.01l3.34,0.01
		l0.03-5.11c-0.23,0.18-0.5,0.32-0.8,0.4c-1.13,0.29-2.27-0.4-2.55-1.52c0-0.01,0-0.03-0.01-0.04c-0.08-0.33-0.07-0.65,0-0.96
		c0.17-0.74,0.74-1.36,1.53-1.56c0.67-0.17,1.35,0.01,1.85,0.42l0.02-3.89c-0.09,0.04-0.18,0.07-0.28,0.09
		c-1.13,0.29-2.27-0.4-2.56-1.52c-0.29-1.13,0.4-2.27,1.52-2.56c0.46-0.12,0.93-0.07,1.33,0.1l0.03-5.57l0-0.61
		c-0.23,0.39-0.6,0.7-1.08,0.82c-0.93,0.23-1.87-0.33-2.11-1.26c-0.24-0.93,0.33-1.87,1.26-2.11c0.93-0.23,1.87,0.33,2.11,1.26
		c0.05,0.2,0.06,0.4,0.04,0.6l0.24-0.41c5.33-9.27,13.9-26,14.2-31.41c0.09-1.67,0.16-3.38,0.22-5.09
		c-5.38-2.82-11.5-4.41-17.99-4.41C113.31,52.3,113.2,52.31,113.09,52.31z M106.05,68.84c0.75-0.19,1.51,0.26,1.7,1.01
		c0.19,0.75-0.26,1.51-1.02,1.7c-0.75,0.19-1.51-0.26-1.7-1.01C104.84,69.79,105.3,69.03,106.05,68.84z M107.39,79.35
		c-0.9,0.23-1.82-0.32-2.04-1.22c-0.23-0.9,0.32-1.82,1.22-2.04c0.9-0.23,1.82,0.32,2.04,1.22
		C108.84,78.21,108.29,79.12,107.39,79.35z M110.36,88.2c-0.93,0.24-1.87-0.33-2.11-1.26c-0.23-0.93,0.33-1.87,1.26-2.11
		c0.93-0.24,1.87,0.33,2.11,1.26C111.85,87.02,111.29,87.96,110.36,88.2z M117.19,88.4c-1.13,0.28-2.27-0.4-2.56-1.52
		c-0.28-1.13,0.4-2.27,1.52-2.56c1.13-0.29,2.27,0.4,2.56,1.52C118.99,86.97,118.31,88.11,117.19,88.4z M118.05,82.22
		c-0.9,0.23-1.82-0.32-2.04-1.22c-0.23-0.9,0.32-1.82,1.22-2.04c0.9-0.23,1.82,0.32,2.04,1.22
		C119.5,81.07,118.95,81.99,118.05,82.22z M119.84,75.2c-0.9,0.23-1.82-0.32-2.04-1.22c-0.23-0.9,0.32-1.82,1.22-2.04
		c0.9-0.23,1.82,0.32,2.04,1.22C121.28,74.06,120.74,74.98,119.84,75.2z M119.5,60.83c0.78,0,1.4,0.63,1.4,1.41
		c0,0.77-0.63,1.4-1.41,1.4c-0.78,0-1.4-0.63-1.4-1.41C118.09,61.45,118.72,60.82,119.5,60.83z M117.77,72.71l-2.24,2.71l-2.24,2.7
		l-0.21-0.25l-2.03-2.46l-2.23-2.71l2.51,0l0.01-10.61l1.73,0l2.41,0l-0.01,10.61L117.77,72.71z"/>
	<polygon class="st1" points="113.09,77.87 113.29,78.12 115.53,75.42 117.77,72.71 115.49,72.71 115.5,62.11 113.09,62.09 
		111.35,62.09 111.34,72.71 108.82,72.7 111.06,75.41 	"/>
	<path class="st1" d="M113.43,134.17c23.58,0,42.76-19.27,42.76-42.86s-19.18-42.59-42.76-42.59c-23.55,0-42.71,19.35-42.76,42.85
		H57.93V59.84h1.36c1.06,0,1.92-1,1.92-2.06c0-1.06-0.86-2.06-1.92-2.06h-3.57c-1.06,0-1.66,0.59-1.66,1.65v34.2H44.02
		c-0.51-1.21-1.56-1.95-2.77-1.95c-1.71,0-3.1,1.28-3.1,2.99c0,1.71,1.39,3.22,3.1,3.22c1.22,0,2.27-0.63,2.77-1.6h10.04v35.04
		c0,1.41-1.35,2.75-2.79,2.75H10.32c-1.48,0-2.3-1.36-2.3-2.75V57.37c0-1.06-1.2-1.65-2.26-1.65H1.92c-1.06,0-1.92,1-1.92,2.06
		c0,1.06,0.86,2.06,1.92,2.06h1.98v69.44c0,3.48,2.84,6.63,6.41,6.63h40.94c3.58,0,6.67-3.09,6.67-6.63V94.24h12.82
		C72.12,116.53,90.74,134.17,113.43,134.17z M113.09,52.31c0.11,0,0.23,0,0.34,0c6.49,0,12.6,1.6,17.99,4.41
		c0.6,0.32,1.19,0.65,1.78,0.99c-0.05,1.41-0.11,2.81-0.19,4.2c-0.36,6.45-10.54,25.44-14.44,32.21l-0.22,0.38l-0.13,22.15
		l-1.8-0.01l-3.34-0.01l-2.67-0.01l-1.83-0.01l0.14-22.2L108.46,94c-4.36-6.73-15.75-25.61-16.06-32.02
		c-0.05-1.13-0.1-2.27-0.13-3.41c0.59-0.38,1.19-0.75,1.81-1.11C99.69,54.23,106.18,52.37,113.09,52.31z M107.28,125.38
		c-0.29,0-0.53-0.24-0.53-0.53l0.02-3.94c0-0.29,0.24-0.52,0.53-0.52l5.78,0.02l6.38,0.02c0.19,0,0.31,0.1,0.37,0.16
		c0.06,0.06,0.15,0.18,0.15,0.37l-0.04,3.96c0,0.29-0.27,0.54-0.55,0.54l-6.31-0.05L107.28,125.38z M113.43,130.15
		c-0.12,0-0.23,0-0.34,0c-1.64-0.01-3.25-0.13-4.84-0.34l0.01-1.66l4.82,0.02l4.97,0.02l-0.01,1.69
		C116.53,130.05,114.99,130.15,113.43,130.15z M120.79,129.45l0.01-1.56l0.01-1.09l0,0l-0.01,1.09c1.12-0.52,1.91-1.66,1.91-2.97
		l0.02-3.95c0-0.87-0.33-1.7-0.95-2.32c-0.09-0.09-0.19-0.17-0.29-0.25l-0.01,1.55l0.01-1.55l0.14-23.02
		c1.87-3.28,14.21-25.22,14.66-33.29c0.04-0.75,0.08-1.5,0.11-2.26c9.66,7.09,15.94,18.52,15.94,31.39
		C152.35,110.17,138.74,125.99,120.79,129.45z M89.11,62.14c0.18,3.68,3.05,10.49,8.52,20.24c3.41,6.08,6.83,11.49,7.8,12.99
		l-0.14,22.97c-0.76,0.6-1.25,1.52-1.25,2.56l-0.02,3.95c0,1.16,0.6,2.18,1.51,2.77l-0.01,1.72c-17.68-3.67-31-19.36-31-38.11
		c0-12.24,5.69-23.18,14.55-30.32C89.08,61.31,89.09,61.73,89.11,62.14z"/>
	<path class="st1" d="M15.57,122.12c0.13,0.13,0.31,0.2,0.48,0.2c0.18,0,0.35-0.07,0.49-0.2l2.91-2.91c0.27-0.27,0.27-0.7,0-0.97
		l-2.91-2.91c-0.27-0.27-0.7-0.27-0.97,0l-2.91,2.91c-0.27,0.27-0.27,0.7,0,0.97L15.57,122.12z M16.06,116.78l1.94,1.94l-1.94,1.94
		l-1.94-1.94L16.06,116.78z"/>
	<path class="st1" d="M136.07,94.9c0.13,0.13,0.31,0.2,0.49,0.2c0.18,0,0.35-0.07,0.49-0.2l3.6-3.6c0.27-0.27,0.27-0.7,0-0.97
		l-3.6-3.6c-0.13-0.13-0.3-0.2-0.49-0.2c-0.18,0-0.36,0.07-0.49,0.2l-3.6,3.6c-0.13,0.13-0.2,0.3-0.2,0.49
		c0,0.18,0.07,0.36,0.2,0.48L136.07,94.9z M136.55,88.19l2.63,2.63l-2.63,2.63l-2.63-2.63L136.55,88.19z"/>
	<path class="st1" d="M129.92,95.89c-0.27-0.27-0.7-0.27-0.97,0l-3.6,3.6c-0.13,0.13-0.2,0.3-0.2,0.48c0,0.18,0.07,0.36,0.2,0.49
		l3.6,3.6c0.13,0.13,0.3,0.2,0.49,0.2c0.18,0,0.36-0.07,0.49-0.2l3.6-3.6c0.27-0.27,0.27-0.7,0-0.97L129.92,95.89z M129.43,102.6
		l-2.63-2.63l2.63-2.63l2.63,2.63L129.43,102.6z"/>
	<path class="st1" d="M144.37,103.22l-3.6-3.6c-0.26-0.26-0.71-0.26-0.97,0l-3.6,3.6c-0.27,0.27-0.27,0.7,0,0.97l3.6,3.6
		c0.13,0.13,0.3,0.2,0.49,0.2c0.18,0,0.36-0.07,0.48-0.2l3.6-3.6C144.63,103.92,144.63,103.48,144.37,103.22z M140.28,106.33
		l-2.63-2.63l2.63-2.63l2.63,2.63L140.28,106.33z"/>
	<path class="st1" d="M45.97,117.38c0.18,0,0.35-0.07,0.49-0.2l2.91-2.91c0.27-0.27,0.27-0.7,0-0.97l-2.91-2.91
		c-0.27-0.27-0.7-0.27-0.97,0l-2.91,2.91c-0.27,0.27-0.27,0.7,0,0.97l2.91,2.91C45.62,117.31,45.8,117.38,45.97,117.38z
		 M45.97,111.84l1.94,1.94l-1.94,1.94l-1.94-1.94L45.97,111.84z"/>
	<path class="st1" d="M14.14,98.99c0.18,0,0.35-0.07,0.48-0.2l2.91-2.91c0.27-0.27,0.27-0.7,0-0.97l-2.91-2.91
		c-0.27-0.27-0.7-0.27-0.97,0l-2.91,2.91c-0.27,0.27-0.27,0.7,0,0.97l2.91,2.91C13.79,98.92,13.96,98.99,14.14,98.99z M14.14,93.45
		l1.94,1.94l-1.94,1.94l-1.94-1.94L14.14,93.45z"/>
	<path class="st1" d="M33.41,120.26l-2.91,2.91c-0.27,0.27-0.27,0.7,0,0.97l2.91,2.91c0.13,0.13,0.31,0.2,0.49,0.2
		c0.18,0,0.35-0.07,0.48-0.2l2.91-2.91c0.27-0.27,0.27-0.7,0-0.97l-2.91-2.91C34.12,120,33.68,120,33.41,120.26z M33.9,125.6
		l-1.94-1.94l1.94-1.94l1.94,1.94L33.9,125.6z"/>
	<path class="st1" d="M45.49,80.19l-2.91,2.91c-0.27,0.27-0.27,0.7,0,0.97l2.91,2.91c0.13,0.13,0.31,0.2,0.48,0.2
		c0.18,0,0.35-0.07,0.49-0.2l2.91-2.91c0.27-0.27,0.27-0.7,0-0.97l-2.91-2.91C46.19,79.92,45.76,79.92,45.49,80.19z M45.97,85.53
		l-1.94-1.94l1.94-1.94l1.94,1.94L45.97,85.53z"/>
	<polygon class="st1" points="86.1,94.59 84.21,93.46 83.64,94.42 85.52,95.53 83.88,95.93 84.14,97.01 86.88,96.35 90.12,98.28 
		86.83,100.25 84.66,99.73 84.4,100.81 85.46,101.07 83.64,102.15 84.21,103.11 86.07,101.99 85.65,103.64 86.72,103.92 
		87.6,101.18 90.88,99.32 90.88,103.16 89.25,104.67 90.13,105.45 90.88,104.76 90.88,107.57 92.09,107.57 92.09,104.52 
		93.16,105.82 94.06,105.04 92.09,102.93 92.09,99.2 95.19,101.18 95.66,103.38 96.68,103.1 96.36,101.99 98.22,103.11 
		98.78,102.15 96.96,101.07 98.56,100.68 98.3,99.6 95.59,100.25 92.29,98.28 95.57,96.33 97.79,96.88 98.06,95.8 96.92,95.52 
		98.77,94.42 98.2,93.46 96.43,94.52 96.82,92.96 95.74,92.69 95.3,95.32 92.09,97.37 92.09,93.61 93.56,91.93 92.88,91.14 
		92.09,92.04 92.09,90.12 90.88,90.12 90.88,91.82 89.65,90.75 88.95,91.54 90.88,93.39 90.88,97.25 87.63,95.4 86.97,93.22 
		85.86,93.51 	"/>
	<path class="st1" d="M53.57,71.33c-0.48,0.07-1.2,0.26-1.46,0.57c-0.02,0.02-2.25,2.5-5.47,2.71c-2.17,0.14-4.63-0.66-7.16-2.61
		c-0.34-0.26-0.91-0.29-1.44-0.29h-0.18c-0.28,0-0.26-0.29-0.51-0.2v-1.83c1.94-3.1,10.13-18.35,10.43-24.22
		c0.49-9.42-1.1-36.31-1.2-37.99C46.55,3.42,43.22,0,39.37,0H20.87c-3.82,0-7.05,3.42-7.08,7.47c-0.1,1.7-1.51,28.76-1.02,38.18
		c0.31,5.9,9.78,20.94,11.96,24.08v1.73c-0.24-0.12-0.87-0.18-1.26-0.16c-0.59,0.04-1.19,0.26-1.48,0.58
		c-0.02,0.02-2.08,2.25-5.19,2.43c-2.25,0.14-4.73-0.8-7.34-2.79c-0.19-0.15-0.23-0.25-0.72-0.32v3.14
		c2.66,1.63,5.56,2.38,8.37,2.21c3-0.18,5.37-1.38,6.69-2.34c0.26,0.17,0.69,0.32,0.94,0.47v24.38c-0.48,0.5-0.73,1.19-0.73,1.96
		v4.94c0,0.9,0.48,1.69,0.73,2.19v4.46c0,1.58,1.62,2.95,3.11,2.95h6.31c1.13,0,2.69-0.98,2.69-2.95v-4.28
		c0.73-0.48,1.21-1.36,1.21-2.37v-4.94c0-0.77-0.24-1.46-0.73-1.96V75.2c0.24-0.27,0.67-0.55,0.99-0.81
		c2.59,1.65,5.17,2.49,7.82,2.49c0.28,0,0.76-0.01,1.04-0.03c2.72-0.18,4.94-1.22,6.39-2.18V71.33z M15.92,45.47
		c-0.49-9.34,1.16-37.57,1.17-37.86l0,0.07c0-2.25,1.77-4.05,3.78-4.05h18.49c2.01,0,3.84,1.84,3.84,4.05l0,0.01
		c0.02,0.28,1.61,28.29,1.12,37.63c-0.24,4.57-7.46,18.23-10.26,23.12l-0.12,0.36v5.18c-0.48,0.22-1.13,0.38-1.74,0.45
		c-0.05,0.01-0.15,0.02-0.2,0.02c-0.64,0.05-1.26-0.01-1.98-0.17c-0.7-0.16-1.17-0.43-2.13-0.8v-4.72l-0.35-0.41
		C24.41,63.52,16.15,50,15.92,45.47z M26.68,106.35v-5.09h8.45l0,5.09H26.68z M33.95,112.9h-6.1c-0.12,0-0.2-0.42-0.2-0.49v-3.39
		h6.3V112.9z M33.95,97.63h-6.06V76.15c0.97,0.23,1.38,0.4,2.11,0.49c0.74,0.1,1.43,0.13,2.15,0.09c0.11-0.01,0.29-0.01,0.4-0.02
		c0.46-0.04,0.9-0.11,1.39-0.2V97.63z"/>
</g>
</svg>
