<?xml version="1.0" encoding="utf-8"?>
<!-- Generator: Adobe Illustrator 27.0.0, SVG Export Plug-In . SVG Version: 6.00 Build 0)  -->
<svg version="1.1" id="Layer_1" xmlns="http://www.w3.org/2000/svg" xmlns:xlink="http://www.w3.org/1999/xlink" x="0px" y="0px"
	 viewBox="0 0 83.23 189.32" style="enable-background:new 0 0 83.23 189.32;" xml:space="preserve">
<style type="text/css">
	.st0{fill:#6A371A;}
	.st1{fill:#974E24;}
</style>
<g>
	<g>
		<g>
			<path class="st0" d="M21.94,22.22h-0.02c-0.82,0-1.48,0.66-1.48,1.48c0,0.82,0.66,1.48,1.48,1.48h50.94
				c0.82,0,1.48-0.66,1.48-1.48c0-0.82-0.66-1.48-1.48-1.48H21.94z"/>
		</g>
		<g>
			<g>
				<path class="st0" d="M21.77,189.32h6.13c0.47,0,0.88-0.31,1-0.77l5.13-19.08h28.62l5.12,19.08c0.12,0.45,0.53,0.77,1,0.77h5.12
					c0.57,0,1.04-0.47,1.04-1.04v-19.01c4.72-0.95,8.29-5.15,8.29-10.17V26.07c0-3.85-2.06-7.32-5.41-9.12
					c-3.29-4.19-16.47-6.23-28.35-6.45C49.38,4.65,44.73,0,38.57,0H11.91C8.98,0,6.04,0.99,3.85,2.71C1.37,4.66,0,7.38,0,10.37
					v138.66c0,6.02,5.33,11.11,11.55,11.11v-1.04c0,5.3,4.02,9.68,9.18,10.29v18.89C20.73,188.86,21.2,189.32,21.77,189.32z
					 M27.11,187.25h-4.3v-17.78h9.08L27.11,187.25z M72.86,187.25h-3.29l-4.77-17.78h8.06V187.25z M11.55,155.69
					c-3.85,0-7.11-3.11-7.11-6.67V10.37c0-3.66,3.88-5.93,7.47-5.93h26.66c3.69,0,6.37,2.59,6.46,6.06
					c-6.49,0.12-12.67,0.75-17.61,1.8c-5.62,1.2-9.18,2.8-10.62,4.76c-3.25,1.85-5.25,5.27-5.25,9V155.69z M14.51,159.1V26.07
					c0-2.76,1.53-5.27,4-6.57c0.25-0.13,0.46-0.33,0.6-0.57c0.31-0.54,1.2-1.21,2.82-1.91c1.43-0.62,3.43-1.25,6.09-1.81
					c5.34-1.14,12.21-1.76,19.34-1.76c15.29,0,26.54,2.83,28.2,5.45c0.05,0.09,0.12,0.17,0.19,0.24c0.12,0.12,0.25,0.22,0.41,0.3
					c2.53,1.25,4.1,3.8,4.1,6.64V159.1c0,4.09-3.29,7.41-7.34,7.41H21.98C17.86,166.51,14.51,163.19,14.51,159.1z"/>
			</g>
			<g>
				<path class="st1" d="M75.79,19.13c-0.07-0.07-0.15-0.15-0.2-0.24c-1.66-2.62-12.91-5.45-28.21-5.45
					c-7.13,0-14.01,0.63-19.35,1.76c-2.67,0.57-4.66,1.2-6.09,1.81c-1.62,0.7-2.52,1.38-2.82,1.91c-0.14,0.24-0.29,0.44-0.54,0.57
					c-2.47,1.29-3.94,3.81-3.94,6.57V159.1c0,4.09,3.23,7.54,7.34,7.54h50.94c4.05,0,7.47-3.46,7.47-7.54V26.07
					c0-2.85-1.63-5.4-4.16-6.64C76.07,19.35,75.91,19.25,75.79,19.13z M47.55,147.9c-6.89,0-12.5-5.61-12.5-12.5
					c0-6.89,5.61-12.5,12.5-12.5c6.89,0,12.5,5.61,12.5,12.5C60.05,142.29,54.44,147.9,47.55,147.9z M72.86,25.07H21.92
					c-0.82,0-1.48-0.66-1.48-1.48s0.66-1.48,1.48-1.48h0.02h50.93c0.82,0,1.48,0.66,1.48,1.48S73.68,25.07,72.86,25.07z"/>
			</g>
			<g>
				<polygon class="st1" points="72.86,187.25 72.86,169.47 64.8,169.47 69.57,187.25 				"/>
			</g>
			<g>
				<polygon class="st1" points="27.11,187.25 31.88,169.47 22.81,169.47 22.81,187.25 				"/>
			</g>
			<g>
				<path class="st1" d="M75.76,19.13c-0.07-0.07-0.13-0.15-0.19-0.24c-1.66-2.62-12.9-5.45-28.2-5.45c-7.13,0-14,0.63-19.34,1.76
					c-2.67,0.57-4.66,1.2-6.09,1.81c-1.62,0.7-2.51,1.38-2.82,1.91c-0.14,0.24-0.35,0.44-0.6,0.57c-2.47,1.29-4,3.81-4,6.57v89.9
					c5.25-5.17,10.7-10.15,16.44-14.72c6.49-5.16,13.32-9.9,20.43-14.18c9.43-5.67,18.99-11.29,28.88-16.19V26.07
					c0-2.85-1.57-5.4-4.1-6.64C76.01,19.35,75.88,19.25,75.76,19.13z M72.86,25.18H21.92c-0.82,0-1.48-0.66-1.48-1.48
					c0-0.82,0.66-1.48,1.48-1.48h50.94c0.82,0,1.48,0.66,1.48,1.48C74.34,24.52,73.68,25.18,72.86,25.18z"/>
			</g>
		</g>
	</g>
	<path class="st0" d="M48.28,135.02c-0.15,0-0.3-0.03-0.45-0.11c-0.49-0.25-0.69-0.85-0.45-1.34l4-8c0.25-0.5,0.85-0.69,1.34-0.45
		c0.49,0.25,0.69,0.85,0.45,1.34l-4,8C49,134.81,48.65,135.02,48.28,135.02z"/>
	<path class="st0" d="M47.78,148.02c-7.44,0-13.5-6.06-13.5-13.5c0-7.44,6.06-13.5,13.5-13.5s13.5,6.06,13.5,13.5
		C61.28,141.96,55.23,148.02,47.78,148.02z M47.78,123.02c-6.34,0-11.5,5.16-11.5,11.5s5.16,11.5,11.5,11.5s11.5-5.16,11.5-11.5
		S54.12,123.02,47.78,123.02z"/>
</g>
</svg>
