<?xml version="1.0" encoding="utf-8"?>
<!-- Generator: Adobe Illustrator 27.0.0, SVG Export Plug-In . SVG Version: 6.00 Build 0)  -->
<svg version="1.1" id="Layer_1" xmlns="http://www.w3.org/2000/svg" xmlns:xlink="http://www.w3.org/1999/xlink" x="0px" y="0px"
	 viewBox="0 0 86.6 121.19" style="enable-background:new 0 0 86.6 121.19;" xml:space="preserve">
<style type="text/css">
	.st0{fill:#974E24;}
</style>
<g>
	<path class="st0" d="M79.85,90.97c3.69,0,6.71-2.93,6.74-6.62c0.02-3.72-2.98-6.71-6.7-6.71h-0.04c-2.33,0-4.38,1.16-5.59,2.94
		c-0.92-2.58-3.4-4.42-6.31-4.42H67.9c-1.36,0-2.62,0.4-3.68,1.08c0.28-3.76-0.29-6.9-1.2-9.45c2.28,3.45,5.15,3.19,5.32,3.18
		c0.64-0.07,1.1-0.63,1.05-1.27c-0.06-0.79-1.53-19.52-2.66-26.16c-0.49-2.92-2.87-5.33-7.06-7.16
		C48.58,31.51,27.97,20.83,25.7,19.65L9.29,0.42c-0.42-0.5-1.17-0.56-1.67-0.13c-0.5,0.43-0.56,1.17-0.13,1.67l0.44,0.51l16.12,18.9
		c0.1,0.12,0.22,0.21,0.36,0.28c0.22,0.12,22.56,11.74,34.32,16.89c3.36,1.48,5.33,3.34,5.67,5.39c0.92,5.43,2.12,19.6,2.51,24.36
		c-1.18-0.6-2.93-2.3-3.79-7.15c0-0.03-0.01-0.05-0.01-0.08l-3.45-13.75c0,0,0-0.01,0-0.01c-0.01-0.03-0.02-0.06-0.03-0.09
		c-0.01-0.04-0.03-0.08-0.04-0.12c-0.01-0.03-0.03-0.05-0.04-0.07c-0.02-0.04-0.05-0.09-0.08-0.13c-0.01-0.01-0.01-0.01-0.01-0.02
		c-0.01-0.02-0.03-0.03-0.04-0.04c-0.03-0.04-0.07-0.07-0.1-0.1c-0.02-0.02-0.05-0.04-0.08-0.06c-0.03-0.03-0.07-0.05-0.1-0.07
		c-0.03-0.02-0.06-0.03-0.09-0.05c-0.04-0.02-0.07-0.03-0.11-0.05c-0.03-0.01-0.07-0.02-0.1-0.03c-0.04-0.01-0.08-0.02-0.12-0.02
		c-0.03-0.01-0.07-0.01-0.1-0.01c-0.04,0-0.08,0-0.11,0c-0.04,0-0.08,0-0.12,0.01c-0.01,0-0.03,0-0.04,0l-12.68,1.87
		c-0.83-0.69-1.99-1.97-1.8-3c0.12-0.65-0.31-1.26-0.96-1.37c-0.64-0.12-1.26,0.31-1.37,0.96c-0.49,2.7,2.19,4.92,2.96,5.5
		l9.61,13.31c0.02,0.02,0.04,0.05,0.06,0.08c0.17,0.2,3.83,4.55,1.89,7.95L37.76,54.15c-0.08-0.07-0.17-0.14-0.26-0.19
		c-5.97-3.2-21.27-13.09-20.34-20.3c0.05-0.4-0.1-0.8-0.41-1.05L1.95,20.07c-0.11-0.09-0.23-0.16-0.36-0.2
		c-0.45-0.17-0.98-0.04-1.31,0.34c-0.42,0.5-0.36,1.25,0.14,1.67l14.34,12.14c-0.16,4.28,3.38,9.24,10.52,14.77
		c1.47,1.13,2.94,2.18,4.3,3.1c-0.7,0.78-1.47,1.95-1.42,3.35c0.05,1.4,0.88,2.62,2.48,3.63c0.19,0.12,0.41,0.18,0.63,0.18
		c0.12,0,0.24-0.02,0.36-0.06l0.66-0.21c-0.25,1.22-0.33,2.76,0.31,4.13c0.43,0.9,1.36,2.08,3.38,2.61c0.1,0.03,0.2,0.04,0.3,0.04
		c0.22,0,0.43-0.06,0.62-0.17l5.57-3.42l12.86,12.38c0.23,0.22,0.52,0.33,0.82,0.33c0.31,0,0.62-0.12,0.85-0.36
		c3.21-3.28,1.86-7.64,0.13-10.45c1.95,2.39,4.58,7.07,3.74,14.26c-1.22-1.28-2.94-2.11-4.86-2.26h-0.05
		c-2.89,0-5.37,1.89-6.32,4.48c-1.2-1.81-3.26-3-5.6-3h-0.04c-3.69,0-6.72,2.93-6.74,6.62c-0.03,3.72,2.98,6.71,6.69,6.71h0.05
		c0.49,0,0.97-0.05,1.43-0.15c-1.22,1.19-1.99,2.85-2,4.7c-0.02,3.5,2.64,6.36,6.06,6.68c-0.21,0.65-0.33,1.34-0.33,2.05
		c-0.01,1.8,0.68,3.56,1.94,4.84c1.26,1.28,2.95,2.03,4.75,2.03h0.05c0.2,0,0.39-0.01,0.59-0.03c-0.72,1.05-1.14,2.31-1.15,3.69
		c-0.03,3.72,2.98,6.71,6.69,6.71h0.05c3.69,0,6.71-2.93,6.74-6.62c0.01-1.39-0.41-2.68-1.13-3.75c3.59-0.11,6.49-3,6.52-6.62
		c0-0.69-0.09-1.35-0.28-1.97c0.01,0,0.02,0,0.04,0h0.05c3.69,0,6.71-3.08,6.74-6.77c0.01-1.72-0.62-3.31-1.68-4.53
		c0.25,0.03,0.5,0.04,0.75,0.04H79.85z M31.46,56.55c-0.6-0.46-0.92-0.93-0.93-1.39c-0.03-0.71,0.59-1.48,1.08-1.95
		c1.47,0.93,2.72,1.67,3.57,2.16L31.46,56.55z M36.11,63.08c-0.67-0.25-1.12-0.64-1.37-1.18c-0.58-1.23-0.09-3.08,0.26-4l2.44-0.78
		l3.26,3.13L36.11,63.08z M73.5,86.55c0.28,0.77,0.69,1.48,1.21,2.09c-0.22-0.02-0.45-0.04-0.68-0.04h-0.04
		c-2.08,0-3.94,0.97-5.18,2.48c-0.08-0.56-0.23-1.1-0.44-1.61C70.5,89.32,72.37,88.21,73.5,86.55z M67.93,79.03
		c2.09,0.01,3.77,1.69,3.76,3.77c-0.01,2.07-1.71,3.72-3.78,3.72h-0.03c-2.09,0-3.77-1.69-3.75-3.77
		C64.14,80.68,65.84,79.03,67.93,79.03z M67.59,97.49c-0.03,0-0.06,0-0.09,0h-0.04c-0.66,0-1.3,0.09-1.91,0.27
		c0.67-0.39,1.27-0.89,1.76-1.47C67.36,96.7,67.46,97.1,67.59,97.49z M47.41,50.43l6.8-1l-4.82,3.75L47.41,50.43z M57.13,59.31
		c-0.73-0.53-1.75-0.36-2.27,0.36c-0.15,0.2-0.24,0.44-0.28,0.67l-3.79-5.25l7-5.45l3,11.95c0.2,1.07,0.43,2.01,0.7,2.85
		C59.56,61.12,57.32,59.45,57.13,59.31z M62.16,88.25c2.08,0.01,3.77,1.67,3.75,3.75c-0.01,2.07-1.71,3.7-3.78,3.7h-0.03
		c-2.08,0-3.77-1.67-3.75-3.75C58.37,89.89,60.06,88.25,62.16,88.25z M61.72,100.64c-0.28-0.5-0.63-0.97-1.04-1.39
		c-1.1-1.12-2.54-1.85-4.08-2.02c0.11-0.35,0.19-0.71,0.24-1.08c1.23,1.54,3.12,2.53,5.25,2.53h0.04c0.66,0,1.3-0.09,1.91-0.27
		C63.1,98.95,62.3,99.71,61.72,100.64z M61.84,107.86c-0.15,0-0.28,0.01-0.43,0.02c0.08-0.11,0.15-0.23,0.23-0.34
		C61.7,107.65,61.77,107.76,61.84,107.86z M55.97,78.95c2.08,0.01,3.77,1.73,3.75,3.81c-0.01,2.07-1.71,3.76-3.78,3.76h-0.02
		c-1.01,0-1.96-0.41-2.67-1.13c-0.71-0.72-1.1-1.67-1.09-2.68C52.18,80.64,53.88,78.95,55.97,78.95z M50.29,86.36
		c1.19,1.86,3.25,3.12,5.6,3.13c0,0,0.01-0.01,0.01-0.01c0,0,0,0.01,0,0.01h0c-0.21,0.52-0.36,1.06-0.44,1.64
		c-1.23-1.54-3.12-2.53-5.25-2.53h-0.05c-0.49,0-0.97,0.05-1.43,0.15C49.41,88.08,49.95,87.27,50.29,86.36z M43.98,87.71h-0.03
		c-2.08,0-3.77-1.67-3.75-3.75c0.01-2.07,1.71-3.7,3.8-3.7c2.09,0.02,3.77,1.67,3.76,3.75C47.75,86.08,46.05,87.71,43.98,87.71z
		 M50.15,98.97h-0.02c-2.09,0-3.77-1.72-3.76-3.8c0.01-2.07,1.71-3.75,3.81-3.75c2.08,0.02,3.77,1.72,3.75,3.8
		c-0.01,1.14-0.53,2.16-1.34,2.85c-0.26,0.15-0.52,0.32-0.76,0.5C51.33,98.82,50.76,98.97,50.15,98.97z M55.88,107.86h-0.03
		c-1.01,0-1.95-0.43-2.67-1.15c-0.71-0.72-1.1-1.69-1.09-2.7c0.01-2.07,1.71-3.75,3.8-3.75c1.01,0.01,1.96,0.42,2.67,1.13
		c0.71,0.72,1.1,1.68,1.09,2.69C59.65,106.15,57.95,107.86,55.88,107.86z M62.06,118.23h-0.03c-2.09,0-3.77-1.7-3.75-3.78
		c0.01-2.07,1.71-3.73,3.8-3.73c2.09,0.01,3.77,1.7,3.76,3.78C65.82,116.57,64.13,118.23,62.06,118.23z M67.45,107.86h-0.03
		c-2.09,0-3.77-1.7-3.75-3.79c0.01-2.07,1.71-3.74,3.8-3.74c2.09,0.01,3.77,1.7,3.76,3.79C71.22,106.19,69.52,107.86,67.45,107.86z
		 M73.99,99.26h-0.03c-2.08,0-3.77-1.78-3.75-3.87c0.01-2.07,1.71-3.82,3.8-3.82c1.01,0.01,1.96,0.44,2.67,1.16
		c0.71,0.72,1.1,1.7,1.09,2.71C77.76,97.52,76.06,99.26,73.99,99.26z M76.08,84.23c0.01-2.07,1.71-3.72,3.8-3.72
		c2.09,0.01,3.77,1.69,3.76,3.78C83.62,86.35,81.92,88,79.85,88h-0.03C77.75,88,76.06,86.31,76.08,84.23z"/>
</g>
</svg>
