<?xml version="1.0" encoding="utf-8"?>
<!-- Generator: Adobe Illustrator 27.0.0, SVG Export Plug-In . SVG Version: 6.00 Build 0)  -->
<svg version="1.1" id="Layer_1" xmlns="http://www.w3.org/2000/svg" xmlns:xlink="http://www.w3.org/1999/xlink" x="0px" y="0px"
	 viewBox="0 0 122.05 178.06" style="enable-background:new 0 0 122.05 178.06;" xml:space="preserve">
<style type="text/css">
	.st0{fill:#6A371A;}
	.st1{fill:#974E24;}
	.st2{fill:none;}
	.st3{fill:#1D1D1D;}
	.st4{fill:#7F6D51;}
</style>
<g>
	<path class="st0" d="M67.23,167.1H23.36H1.18c-0.65,0-1.18,0.53-1.18,1.19v8.59c0,0.65,0.53,1.18,1.18,1.18h117.29
		c0.65,0,1.18-0.53,1.18-1.18v-8.59c0-0.65-0.53-1.19-1.18-1.19H67.23z M117.29,175.69H2.37v-6.22h114.92V175.69z"/>
	<rect x="2.37" y="169.47" class="st1" width="114.92" height="6.22"/>
	<g>
		<g>
			<rect x="2.37" y="2.37" class="st1" width="114.92" height="6.22"/>
		</g>
		<path class="st0" d="M118.47,10.96c0.65,0,1.18-0.53,1.18-1.19V1.19c0-0.65-0.53-1.19-1.18-1.19H1.18C0.53,0,0,0.53,0,1.19v8.59
			c0,0.65,0.53,1.19,1.18,1.19h13.03v13.33h-2.07c-0.98,0-1.78,0.8-1.78,1.78s0.8,1.78,1.78,1.78h6.52h1.18
			c0.98,0,1.78-0.8,1.78-1.78s-0.8-1.78-1.78-1.78h-2.07V10.96h40.28v28.15h-2.07c-0.98,0-1.78,0.8-1.78,1.78
			c0,0.98,0.8,1.78,1.78,1.78h7h0.71c0.98,0,1.78-0.8,1.78-1.78c0-0.98-0.8-1.78-1.78-1.78h-2.07V10.96H118.47z M2.37,8.59V2.37
			h114.92v6.22H2.37z"/>
		<rect x="55.39" y="56.29" class="st2" width="9.18" height="3.85"/>
	</g>
	<g>
		<g>
			<path class="st1" d="M61.74,93.92l-0.67-1.01V72.81h-2.63v19.95l-0.55,0.93c-4.58,8.08-8.81,18.69-8.96,21.73
				c-0.47,9.07,1.16,36.57,1.17,36.85l-0.03,0.13v0.13c0,0.82,0.75,2.23,1.41,2.23h18.24c0.61,0,1.14-1.4,1.14-2.23v-0.11l0.05-0.11
				c0.02-0.28,1.61-27.96,1.14-37.04C71.9,112.31,66.97,101.88,61.74,93.92z M56.5,122.47c0.55,0,1,0.45,1,1c0,0.55-0.45,1-1,1
				c-0.55,0-1-0.45-1-1C55.5,122.92,55.94,122.47,56.5,122.47z M56.5,132.56c-0.83,0-1.5-0.67-1.5-1.5c0-0.83,0.67-1.5,1.5-1.5
				c0.83,0,1.5,0.67,1.5,1.5C58,131.89,57.32,132.56,56.5,132.56z M59.69,128.47c-0.66,0-1.2-0.54-1.2-1.2c0-0.66,0.54-1.2,1.2-1.2
				c0.66,0,1.2,0.54,1.2,1.2C60.89,127.93,60.36,128.47,59.69,128.47z M66.43,136.28c0.55,0,1,0.45,1,1c0,0.55-0.45,1-1,1
				c-0.55,0-1-0.45-1-1C65.43,136.72,65.88,136.28,66.43,136.28z M63.23,142.27c-0.66,0-1.2-0.54-1.2-1.2c0-0.66,0.54-1.2,1.2-1.2
				c0.66,0,1.2,0.54,1.2,1.2C64.43,141.73,63.9,142.27,63.23,142.27z M66.43,146.37c-0.83,0-1.5-0.67-1.5-1.5
				c0-0.83,0.67-1.5,1.5-1.5c0.83,0,1.5,0.67,1.5,1.5C67.93,145.7,67.26,146.37,66.43,146.37z"/>
			<path class="st1" d="M18.74,93.92l-0.67-1.01V72.81h-2.63v19.95l-0.55,0.93c-4.58,8.08-8.81,18.69-8.96,21.73
				c-0.47,9.07,1.16,36.57,1.17,36.85l-0.03,0.13v0.13c0,0.82,0.75,2.23,1.41,2.23h18.24c0.61,0,1.14-1.4,1.14-2.23v-0.11l0.05-0.11
				c0.02-0.28,1.61-27.96,1.14-37.04C28.9,112.31,23.97,101.88,18.74,93.92z M13.5,122.47c0.55,0,1,0.45,1,1c0,0.55-0.45,1-1,1
				c-0.55,0-1-0.45-1-1C12.5,122.92,12.94,122.47,13.5,122.47z M13.5,132.56c-0.83,0-1.5-0.67-1.5-1.5c0-0.83,0.67-1.5,1.5-1.5
				c0.83,0,1.5,0.67,1.5,1.5C15,131.89,14.32,132.56,13.5,132.56z M16.69,128.47c-0.66,0-1.2-0.54-1.2-1.2c0-0.66,0.54-1.2,1.2-1.2
				c0.66,0,1.2,0.54,1.2,1.2C17.89,127.93,17.36,128.47,16.69,128.47z M23.43,136.28c0.55,0,1,0.45,1,1c0,0.55-0.45,1-1,1
				c-0.55,0-1-0.45-1-1C22.43,136.72,22.88,136.28,23.43,136.28z M20.23,142.27c-0.66,0-1.2-0.54-1.2-1.2c0-0.66,0.54-1.2,1.2-1.2
				c0.66,0,1.2,0.54,1.2,1.2C21.43,141.73,20.9,142.27,20.23,142.27z M23.43,146.37c-0.83,0-1.5-0.67-1.5-1.5
				c0-0.83,0.67-1.5,1.5-1.5c0.83,0,1.5,0.67,1.5,1.5C24.93,145.7,24.26,146.37,23.43,146.37z"/>
			<path class="st1" d="M105.9,93.92l-0.63-1.01V72.81h-2.63v19.95l-0.59,0.93c-4.58,8.08-8.83,18.69-8.98,21.73
				c-0.47,9.07,1.31,36.57,1.32,36.85l0.12,0.13v0.13c0,0.82,0.43,2.23,1.09,2.23h18.24c0.61,0,1.22-1.4,1.22-2.23v-0.11l0.01-0.11
				c0.02-0.28,1.61-27.96,1.14-37.04C116.06,112.31,111.13,101.88,105.9,93.92z"/>
			<path class="st0" d="M34.65,114.94c-0.3-5.82-9.66-20.63-11.81-23.73V62.22c0.48-0.49,0.96-1.17,0.96-1.93v-4.87
				c0-1.49-1.29-2.44-2.78-2.44h-3.56h-5.1c-1.49,0-2.89,0.94-2.89,2.44v4.87c0,0.76,0.48,1.44,0.96,1.93v29.04
				c-1.67,3.05-9.97,18.08-10.27,23.86c-0.48,9.29,1.15,35.94,1.25,37.63c0.03,3.97,3.25,7.5,7.05,7.5h18.24
				c3.73,0,6.86-3.53,6.88-7.5C33.66,151.1,35.14,124.23,34.65,114.94z M12.1,55.61h5.41h1.41h2.1l0,5.02h-2.1h-1.34H12.1V55.61z
				 M30.37,152.43l-0.01,0.34c0,2.24-1.68,4.38-3.67,4.38H8.45c-2.02,0-3.79-2.18-3.79-4.38l0-0.22
				c-0.02-0.28-1.72-27.98-1.24-37.19c0.23-4.51,7.27-18.02,9.99-22.84l0.12-0.4V63.97h4.12h2.1v28.2l0.23,0.41
				c3.12,4.76,11.26,18.08,11.49,22.55C31.94,124.34,30.38,152.15,30.37,152.43z"/>
			<path class="st0" d="M43.17,115.13c-0.48,9.29,1.15,35.94,1.26,37.63c0.03,3.97,3.26,7.5,7.06,7.5h18.24
				c3.73,0,6.89-3.53,6.91-7.5c0.09-1.65,1.52-28.41,1.04-37.7c-0.3-5.82-9.67-20.73-11.82-23.84V62.22
				c0.48-0.49,0.72-1.17,0.72-1.93v-4.87c0-1.49-1.02-2.44-2.51-2.44H55.4c-1.49,0-2.69,0.94-2.69,2.44v4.87
				c0,0.76,0.24,1.44,0.72,1.93v29.04C51.76,94.31,43.47,109.34,43.17,115.13z M55.58,55.61h8.48l0,5.02h-8.48V55.61z M56.55,92.49
				l0.22-0.37V63.97h5.97v28.2l0.25,0.41c3.12,4.76,11.27,18.08,11.5,22.55c0.48,9.21-1.08,37.03-1.1,37.31l-0.01,0.34
				c0,2.24-1.68,4.38-3.67,4.38H51.49c-2.02,0-3.79-2.18-3.79-4.38l0-0.22c-0.02-0.28-1.71-27.98-1.24-37.19
				C46.69,110.85,53.83,97.31,56.55,92.49z"/>
			<path class="st0" d="M23.81,36.2v-3.25c0-1.94-1.35-3.14-3.29-3.14H12.9c-1.94,0-3.67,1.2-3.67,3.14v3.25
				c0,1.65,0.98,3.03,2.51,3.41l-0.46,8.72c-0.01,0.22,0.09,0.54,0.24,0.71c0.15,0.16,0.39,0.36,0.61,0.36h9.01
				c0.23,0,0.44-0.2,0.6-0.37c0.15-0.17,0.23-0.44,0.21-0.67l-0.41-8.81C22.92,39.08,23.81,37.74,23.81,36.2z M12.99,47.73
				l0.45-7.88h6.61l0.21,7.88H12.99z M22.37,36.28c0,1.05-0.85,1.89-1.89,1.89H12.8c-1.05,0-1.89-0.85-1.89-1.89v-3.14
				c0-1.05,0.85-1.89,1.89-1.89h7.68c1.05,0,1.89,0.85,1.89,1.89V36.28z"/>
			<g>
				<polygon class="st2" points="56.44,52.84 56.41,53.26 63.06,53.26 63.04,52.84 				"/>
				<path class="st2" d="M65.37,49.28v-3.14c0-1.05-0.85-1.89-1.89-1.89H55.8c-1.05,0-1.9,0.85-1.9,1.89v3.14
					c0,1.05,0.85,1.89,1.9,1.89h7.68C64.53,51.17,65.37,50.32,65.37,49.28z"/>
				<path class="st2" d="M54.52,62.04c0.15,0.16,0.39,0.36,0.61,0.36h9.01c0.23,0,0.44-0.2,0.6-0.37c0.15-0.17,0.23-0.44,0.21-0.67
					l-0.37-8.11h-1.52l0.2,7.47h-7.27l0.43-7.47h-1.71l-0.43,8.08C54.27,61.56,54.37,61.88,54.52,62.04z"/>
				<path class="st0" d="M56.44,52.84h6.61l0.01,0.41h1.52l-0.03-0.7c1.38-0.48,2.27-1.81,2.27-3.35v-3.25
					c0-1.94-1.35-3.14-3.29-3.14H55.9c-1.94,0-3.67,1.2-3.67,3.14v3.25c0,1.65,0.98,3.03,2.51,3.41l-0.03,0.64h1.71L56.44,52.84z
					 M53.91,49.28v-3.14c0-1.05,0.85-1.89,1.9-1.89h7.68c1.05,0,1.89,0.85,1.89,1.89v3.14c0,1.05-0.85,1.89-1.89,1.89H55.8
					C54.75,51.17,53.91,50.32,53.91,49.28z"/>
			</g>
			<path class="st0" d="M98.25,53.1c-0.78,0.47-1.34,1.33-1.34,2.31v4.87c0,0.76,0.24,1.44,0.72,1.93v29.04
				c-1.67,3.05-9.99,18.08-10.29,23.86c-0.48,9.29,1.14,35.94,1.24,37.63c0.03,3.97,3.24,7.5,7.04,7.5h18.24
				c3.73,0,6.89-3.53,6.91-7.5c0.09-1.65,1.68-28.41,1.2-37.7c-0.3-5.82-9.75-20.73-11.66-23.84V62.22
				c0.24-0.49,0.72-1.17,0.72-1.93v-4.87c0-1.04-0.61-1.94-1.47-2.39c1.03-0.62,1.7-1.74,1.7-3.02v-3.25c0-1.94-1.67-3.09-3.61-3.09
				h-7.85c-1.94,0-3.36,1.15-3.36,3.09v3.25C96.43,51.34,97.15,52.51,98.25,53.1z M99.54,60.63v-5.02h8.64l0,5.02H99.54z
				 M118.6,115.13c0.48,9.21-1.08,37.03-1.09,37.31l0,0.34c0,2.24-1.68,4.38-3.66,4.38H95.61c-2.02,0-3.79-2.18-3.79-4.38l0-0.22
				c-0.02-0.28-1.72-27.98-1.24-37.19c0.23-4.51,7.29-18.02,10.02-22.84l0.14-0.4V63.97h5.97v28.2l0.33,0.41
				C110.16,97.34,118.37,110.67,118.6,115.13z M109.64,49.87c0,1.05-1.02,2.15-2.07,2.15h-7.79c-1.05,0-1.85-1.11-1.85-2.15v-3.16
				c0-1.05,0.81-1.62,1.85-1.62h7.79c1.05,0,2.07,0.57,2.07,1.62V49.87z"/>
		</g>
	</g>
	<g>
		<path class="st3" d="M104.54,148.89c-0.38,0-0.77-0.15-1.06-0.44l-14.44-14.44c-0.59-0.59-0.59-1.54,0-2.12l14.44-14.44
			c0.29-0.29,0.68-0.44,1.06-0.44s0.77,0.15,1.06,0.44l14.44,14.44c0.59,0.59,0.59,1.54,0,2.12l-14.44,14.44
			C105.3,148.74,104.92,148.89,104.54,148.89z"/>
		<g>
			<path class="st4" d="M104.53,118.51l14.44,14.44l-14.44,14.44l-14.44-14.44L104.53,118.51 M104.53,115.51
				c-0.77,0-1.54,0.29-2.12,0.88l-14.44,14.44c-1.17,1.17-1.17,3.07,0,4.24l14.44,14.44c0.59,0.59,1.35,0.88,2.12,0.88
				s1.54-0.29,2.12-0.88l14.44-14.44c1.17-1.17,1.17-3.07,0-4.24l-14.44-14.44C106.07,115.8,105.3,115.51,104.53,115.51
				L104.53,115.51z"/>
		</g>
	</g>
</g>
</svg>
