<?xml version="1.0" encoding="utf-8"?>
<!-- Generator: Adobe Illustrator 27.0.0, SVG Export Plug-In . SVG Version: 6.00 Build 0)  -->
<svg version="1.1" id="Layer_1" xmlns="http://www.w3.org/2000/svg" xmlns:xlink="http://www.w3.org/1999/xlink" x="0px" y="0px"
	 viewBox="0 0 93.85 133.56" style="enable-background:new 0 0 93.85 133.56;" xml:space="preserve">
<style type="text/css">
	.st0{fill:#974E24;}
	.st1{fill:#6A371A;}
</style>
<g>
	<path class="st0" d="M47.51,71.2l7.9-12.45c-0.86-0.01-2.78,0.01-3.64,0l-6.8,10.86c-1.51,0.87-19.11,11.06-20.48,13.02
		c-0.66,0.94-1.5,2.77-2.5,4.36c-6.16,9.84-16.37,28.18-16.47,28.37l-0.12,0.06l-0.06,0.1c-0.45,0.72-0.18,1.7,0.35,2.03l5.03,3.15
		l6.59,4.13l5.03,3.15c0.52,0.33,1.54,0.14,1.98-0.57l0.06-0.1l0-0.14c0.12-0.17,12.17-17.37,18.33-27.2
		c0.99-1.59,1.78-2.9,2.34-3.91c1.45-2.6,2.68-14.03,2.47-23.64L47.51,71.2z"/>
	<path class="st1" d="M92.51,3.21l-4.5-2.78C87.42,0.06,86.7,0,86.33,0c-1.02,0-1.85,0.37-2.27,1.02l-2.36,3.39
		c-0.17,0.25-0.23,0.55-0.17,0.84c0.06,0.29,0.24,0.55,0.49,0.71l0.65,0.4l-3.09,4.07c-0.19,0.25-0.26,0.56-0.2,0.86
		c0.06,0.3,0.24,0.57,0.51,0.73l4.92,3c0.18,0.11,0.37,0.16,0.57,0.16c0.36,0,0.72-0.18,0.93-0.51l2.72-4.33l0.64,0.4
		c0.18,0.11,0.38,0.17,0.58,0.17c0.35,0,0.69-0.16,0.9-0.47l2.37-3.41c0.01-0.01,0.02-0.03,0.03-0.04
		C94.29,5.77,93.61,3.9,92.51,3.21z M85.01,12.6l-2.97-1.81l2.47-3.26l2.65,1.66L85.01,12.6z M91.66,5.84l-1.74,2.49l-5.78-3.62
		l1.71-2.45c0.07-0.03,0.24-0.08,0.48-0.08c0.28,0,0.48,0.06,0.53,0.1l4.5,2.78C91.52,5.18,91.7,5.65,91.66,5.84z"/>
	<path class="st1" d="M82.66,14.8c-0.76-0.35-1.66-0.02-2.01,0.74c-0.35,0.76-0.02,1.66,0.74,2.01c0.76,0.35,1.66,0.02,2.01-0.74
		C83.75,16.05,83.42,15.15,82.66,14.8z"/>
	<path class="st1" d="M78.04,21.26c0.28-0.61,0.02-1.32-0.59-1.61c-0.61-0.28-1.33-0.02-1.61,0.59c-0.28,0.61-0.02,1.33,0.59,1.61
		C77.04,22.13,77.76,21.86,78.04,21.26z"/>
	<path class="st1" d="M78.68,24.67c-0.51-0.23-1.1-0.01-1.34,0.49c-0.23,0.5-0.01,1.1,0.49,1.34c0.5,0.23,1.1,0.01,1.34-0.49
		C79.41,25.5,79.19,24.9,78.68,24.67z"/>
	<path class="st1" d="M82.39,19.72c-0.76-0.35-1.66-0.02-2.01,0.74c-0.35,0.76-0.02,1.66,0.74,2.01c0.76,0.35,1.66,0.02,2.01-0.74
		C83.48,20.97,83.15,20.07,82.39,19.72z"/>
	<path class="st1" d="M76.98,17.48c0.61,0.28,1.33,0.02,1.61-0.59c0.28-0.61,0.02-1.33-0.59-1.61c-0.61-0.28-1.33-0.02-1.61,0.59
		C76.11,16.48,76.37,17.2,76.98,17.48z"/>
	<path class="st1" d="M75.13,24.67c-0.51-0.23-1.1-0.01-1.34,0.49c-0.23,0.5-0.01,1.1,0.49,1.34c0.5,0.23,1.1,0.01,1.34-0.49
		C75.86,25.5,75.64,24.9,75.13,24.67z"/>
	<path class="st1" d="M73.89,35.52l-0.4-3.47l-0.4-3.47l-3.33,1.05l-3.33,1.05l1.91,1.24l-2.13,2.7l-2-1.25
		c-0.44-0.27-0.94-0.42-1.45-0.42c-0.95,0-1.81,0.48-2.32,1.28l-2.61,4.17c-0.39,0.62-0.51,1.35-0.35,2.06c0,0.01,0,0.02,0.01,0.02
		l-15.65,25c-3.12,1.68-18.31,10-21.67,14.78c-5.39,7.69-18.27,31.1-19.07,32.57c-0.97,1.57-1.32,3.53-0.95,5.37
		c0.39,1.94,1.49,3.57,3.1,4.57l15.59,9.76c1.07,0.67,2.3,1.02,3.58,1.02c2.5,0,4.89-1.32,6.25-3.46
		c0.98-1.38,16.51-23.26,21.07-31.46c2.85-5.13,2.81-22.82,2.76-26.54l15.63-24.96c0.71-0.15,1.33-0.58,1.73-1.21l2.61-4.17
		c0.8-1.28,0.41-2.96-0.86-3.76l-1.91-1.19l2.09-2.65L73.89,35.52z M49.21,71.19l0.01,0.48c0.09,5.72-0.15,21.44-2.34,25.38
		c-4.52,8.13-20.74,30.96-20.91,31.19l-0.05,0.08c-0.75,1.19-2.12,1.97-3.5,1.97c-0.67,0-1.29-0.18-1.84-0.52L4.98,120
		c-0.84-0.52-1.41-1.39-1.62-2.44c-0.21-1.05-0.01-2.15,0.54-3.03l0.05-0.08c0.13-0.25,13.56-24.68,18.91-32.3
		c2.61-3.72,15.98-11.36,20.91-13.98l0.39-0.21l15.27-24.38l5.09,3.19L49.21,71.19z M70.16,40.29l-2.61,4.2c0,0,0,0.01,0,0.01h0
		l-7.41-4.64l2.61-4.14L70.16,40.29z"/>
</g>
</svg>
