<?xml version="1.0" encoding="utf-8"?>
<!-- Generator: Adobe Illustrator 27.0.0, SVG Export Plug-In . SVG Version: 6.00 Build 0)  -->
<svg version="1.1" id="Layer_1" xmlns="http://www.w3.org/2000/svg" xmlns:xlink="http://www.w3.org/1999/xlink" x="0px" y="0px"
	 viewBox="0 0 58.58 152.89" style="enable-background:new 0 0 58.58 152.89;" xml:space="preserve">
<style type="text/css">
	.st0{fill:#974E24;}
	.st1{fill:#6A371A;}
	.st2{fill:#1D1D1D;}
	.st3{fill:#7F6D51;}
</style>
<g>
	<g>
		<g>
			<g>
				<path class="st0" d="M18.72,86.34l-0.63-1.02V65.17h-2.64v20.01l-0.59,0.93c-4.59,8.11-8.85,18.75-9.01,21.8
					c-0.47,9.1,1.31,36.69,1.33,36.97l0.12,0.13v0.13c0,0.83,0.43,2.24,1.09,2.24h18.3c0.61,0,1.23-1.4,1.23-2.24v-0.11l0.01-0.11
					c0.02-0.28,1.62-28.05,1.15-37.16C28.91,104.79,23.96,94.33,18.72,86.34z M16.63,116.97c0.66,0,1.2,0.54,1.2,1.2
					c0,0.66-0.54,1.2-1.2,1.2c-0.66,0-1.2-0.54-1.2-1.2C15.42,117.5,15.96,116.97,16.63,116.97z M13.42,113.36c0.55,0,1,0.45,1,1
					c0,0.55-0.45,1-1,1c-0.55,0-1-0.45-1-1C12.42,113.81,12.86,113.36,13.42,113.36z M20.18,136.48c-0.66,0-1.2-0.54-1.2-1.2
					c0-0.66,0.54-1.2,1.2-1.2c0.66,0,1.2,0.54,1.2,1.2C21.38,135.94,20.84,136.48,20.18,136.48z"/>
				<path class="st1" d="M11.05,45.39c-0.79,0.48-1.35,1.34-1.35,2.32v4.89c0,0.76,0.24,1.44,0.72,1.94v29.14
					c-1.68,3.06-10.03,18.14-10.33,23.94c-0.49,9.32,1.14,36.05,1.24,37.75c0.03,3.99,3.25,7.52,7.06,7.52h18.3
					c3.74,0,6.91-3.54,6.93-7.53c0.09-1.66,1.68-28.5,1.2-37.82c-0.3-5.83-9.78-20.8-11.7-23.92V54.54
					c0.24-0.49,0.72-1.18,0.72-1.94v-4.89c0-1.04-0.61-1.95-1.47-2.4c1.03-0.62,1.71-1.74,1.71-3.03v-3.26c0-1.95-1.67-3.1-3.62-3.1
					h-7.88c-1.95,0-3.37,1.16-3.37,3.1v3.26C9.22,43.63,9.94,44.8,11.05,45.39z M12.34,52.94v-5.03h8.67l0,5.03H12.34z
					 M31.46,107.62c0.48,9.24-1.08,37.15-1.1,37.43l0,0.34c0,2.24-1.68,4.39-3.68,4.39H8.39c-2.02,0-3.8-2.18-3.8-4.39l0-0.22
					c-0.02-0.28-1.73-28.07-1.25-37.31c0.23-4.52,7.31-18.08,10.05-22.91l0.14-0.4V56.3h5.99v28.29L19.85,85
					C22.99,89.77,31.23,103.14,31.46,107.62z M22.16,42.15c0,1.05-1.02,2.16-2.07,2.16h-7.81c-1.05,0-1.86-1.11-1.86-2.16v-3.17
					c0-1.05,0.81-1.62,1.86-1.62h7.81c1.05,0,2.07,0.57,2.07,1.62V42.15z"/>
			</g>
		</g>
		<g>
			<path class="st2" d="M18.07,140.57c-0.38,0-0.77-0.15-1.06-0.44L2.37,125.49c-0.28-0.28-0.44-0.66-0.44-1.06s0.16-0.78,0.44-1.06
				l14.64-14.64c0.29-0.29,0.68-0.44,1.06-0.44s0.77,0.15,1.06,0.44l14.64,14.64c0.28,0.28,0.44,0.66,0.44,1.06
				s-0.16,0.78-0.44,1.06l-14.64,14.64C18.84,140.43,18.45,140.57,18.07,140.57z"/>
			<g>
				<path class="st3" d="M18.07,109.79l14.64,14.64l-14.64,14.64L3.43,124.43L18.07,109.79 M18.07,106.79
					c-0.77,0-1.54,0.29-2.12,0.88L1.31,122.31c-1.17,1.17-1.17,3.07,0,4.24l14.64,14.64c0.59,0.59,1.35,0.88,2.12,0.88
					s1.54-0.29,2.12-0.88l14.64-14.64c1.17-1.17,1.17-3.07,0-4.24l-14.64-14.64C19.61,107.09,18.84,106.79,18.07,106.79
					L18.07,106.79z"/>
			</g>
		</g>
	</g>
	<g>
		<path class="st0" d="M31.63,0C17.32,0,5.58,11.22,4.74,25.32h2.6C8.18,12.65,18.75,2.6,31.63,2.6c13.43,0,24.35,10.92,24.35,24.35
			S45.06,51.29,31.63,51.29c-0.11,0-0.22-0.01-0.32-0.01v2.6c0.11,0,0.22,0.01,0.32,0.01c14.86,0,26.95-12.09,26.95-26.95
			S46.49,0,31.63,0z"/>
		<path class="st0" d="M31.31,28.4h-15.4c-0.85,0-1.54-0.69-1.54-1.54c0-0.85,0.69-1.54,1.54-1.54h15.4c0.85,0,1.54,0.69,1.54,1.54
			C32.85,27.71,32.16,28.4,31.31,28.4z"/>
		<path class="st0" d="M31.31,27.63c-0.85,0-1.54-0.69-1.54-1.54v-15.4c0-0.85,0.69-1.54,1.54-1.54s1.54,0.69,1.54,1.54v15.4
			C32.85,26.94,32.16,27.63,31.31,27.63z"/>
	</g>
</g>
</svg>
