<?xml version="1.0" encoding="utf-8"?>
<!-- Generator: Adobe Illustrator 27.0.0, SVG Export Plug-In . SVG Version: 6.00 Build 0)  -->
<svg version="1.1" id="Layer_1" xmlns="http://www.w3.org/2000/svg" xmlns:xlink="http://www.w3.org/1999/xlink" x="0px" y="0px"
	 viewBox="0 0 37 148.13" style="enable-background:new 0 0 37 148.13;" xml:space="preserve">
<style type="text/css">
	.st0{fill:#974E24;}
	.st1{fill:#6A371A;}
</style>
<g>
	<path class="st0" d="M29.37,98.28c-2.36,0.68-4.71,1.37-7.07,2.06c-0.47,0.14-0.95,0.28-1.42,0.42l-0.78-47.88l-0.01-0.8
		l-0.04-2.41l0-0.27l-0.08-4.81l-0.04-2.67l-0.23-11.3l-1.6,0.01l-0.14,11.29l-0.02,2.67l-0.04,4.81l0,0.27l-0.02,2.41l-0.01,0.8
		l-0.43,48.92c-2.99,0.91-5.98,1.83-8.97,2.78c-0.35,9.61,1.2,35.4,1.22,35.67l0,0.12v0.12c0,0.81,0.71,2.21,1.35,2.21h18.01
		c0.6,0,0.93-1.38,0.93-2.21v-0.11l0.15-0.11c0.02-0.28,1.65-27.61,1.18-36.58C31.24,102.66,30.54,100.71,29.37,98.28z
		 M25.79,124.45c0.54,0,0.99,0.44,0.99,0.99c0,0.55-0.44,0.99-0.99,0.99c-0.54,0-0.99-0.44-0.99-0.99
		C24.8,124.89,25.24,124.45,25.79,124.45z M15.97,110.82c0.55,0,0.99,0.44,0.99,0.99c0,0.54-0.44,0.99-0.99,0.99
		c-0.54,0-0.99-0.44-0.99-0.99C14.99,111.26,15.43,110.82,15.97,110.82z M15.97,120.78c-0.82,0-1.48-0.66-1.48-1.48
		c0-0.82,0.66-1.48,1.48-1.48c0.82,0,1.48,0.66,1.48,1.48C17.45,120.12,16.79,120.78,15.97,120.78z M19.13,116.74
		c-0.65,0-1.18-0.53-1.18-1.18c0-0.65,0.53-1.18,1.18-1.18c0.65,0,1.18,0.53,1.18,1.18C20.32,116.21,19.78,116.74,19.13,116.74z
		 M22.63,130.37c-0.65,0-1.18-0.53-1.18-1.18c0-0.65,0.53-1.18,1.18-1.18c0.65,0,1.18,0.53,1.18,1.18
		C23.81,129.84,23.28,130.37,22.63,130.37z M25.79,134.42c-0.82,0-1.48-0.66-1.48-1.48c0-0.82,0.66-1.48,1.48-1.48
		c0.82,0,1.48,0.66,1.48,1.48C27.26,133.75,26.6,134.42,25.79,134.42z"/>
	<path class="st1" d="M36.9,103.38c-0.3-5.74-9.54-20.37-11.66-23.44V51.32c0.47-0.49,0.94-1.16,0.94-1.91V44.6
		c0-1.47-1.27-2.41-2.75-2.41h-3.51h-5.04c-1.47,0-2.86,0.93-2.86,2.41v4.81c0,0.75,0.47,1.42,0.94,1.91V80
		c-1.65,3.01-9.85,17.85-10.14,23.57c-0.48,9.17,1.13,35.49,1.23,37.16c0.03,3.93,3.21,7.41,6.96,7.41h18.01
		c3.68,0,6.77-3.48,6.8-7.41C35.93,139.09,37.38,112.56,36.9,103.38z M14.63,44.79h5.34h1.4h2.07l0,4.95h-2.07h-1.32h-5.42V44.79z
		 M32.67,140.41l-0.01,0.34c0,2.21-1.66,4.32-3.62,4.32H11.03c-1.99,0-3.74-2.15-3.74-4.32l0-0.22c-0.02-0.28-1.7-27.63-1.23-36.73
		c0.23-4.45,7.18-17.8,9.87-22.55l0.12-0.4V53.05h4.06h2.07V80.9l0.23,0.4c3.08,4.7,11.12,17.86,11.35,22.27
		C34.23,112.67,32.69,140.13,32.67,140.41z"/>
	<path class="st1" d="M21.23,31.98V21.03c0-0.57-0.12-9.34-6.12-15.42C11.45,1.89,6.61,0,0,0v4.01c5.43,0,9.35,1.48,12.24,4.39
		c4.89,4.94,4.99,12.52,4.99,12.59v6.08L21.23,31.98z"/>
</g>
</svg>
