<?xml version="1.0" encoding="utf-8"?>
<!-- Generator: Adobe Illustrator 27.0.0, SVG Export Plug-In . SVG Version: 6.00 Build 0)  -->
<svg version="1.1" id="Layer_1" xmlns="http://www.w3.org/2000/svg" xmlns:xlink="http://www.w3.org/1999/xlink" x="0px" y="0px"
	 viewBox="0 0 65.78 150.44" style="enable-background:new 0 0 65.78 150.44;" xml:space="preserve">
<style type="text/css">
	.st0{fill:#974E24;}
	.st1{fill:#6A371A;}
</style>
<g>
	<polygon class="st0" points="21.11,31.53 19.45,31.47 19.3,40.91 21.34,40.91 	"/>
	<polygon class="st0" points="21.36,43.59 19.25,43.59 19.2,48.71 21.44,48.71 	"/>
	<path class="st0" d="M30.12,99.44c-2.44,0.7-4.87,1.41-7.31,2.13c-0.49,0.15-0.98,0.1-1.47,0.25l-0.81-49.7h-2.33l-0.45,50.77
		c-3.1,0.94-6.19,1.99-9.27,2.97c-0.36,9.93,1.25,36.65,1.26,36.93l0,0.18v0.13c0,0.84,0.72,1.24,1.39,1.24h18.62
		c0.62,0,1.21-0.39,1.21-1.24v-0.12l0.03-0.12c0.02-0.28,1.64-28.55,1.16-37.82C32.11,103.98,31.32,101.96,30.12,99.44z
		 M26.41,126.51c0.56,0,1.02,0.46,1.02,1.02s-0.46,1.02-1.02,1.02c-0.56,0-1.02-0.46-1.02-1.02S25.84,126.51,26.41,126.51z
		 M16.26,112.41c0.56,0,1.02,0.46,1.02,1.02c0,0.56-0.46,1.02-1.02,1.02c-0.56,0-1.02-0.46-1.02-1.02
		C15.24,112.87,15.7,112.41,16.26,112.41z M16.26,122.72c-0.84,0-1.53-0.69-1.53-1.53c0-0.84,0.69-1.53,1.53-1.53
		c0.85,0,1.53,0.69,1.53,1.53C17.79,122.03,17.11,122.72,16.26,122.72z M19.53,118.53c-0.68,0-1.22-0.55-1.22-1.22
		c0-0.68,0.55-1.22,1.22-1.22c0.68,0,1.22,0.55,1.22,1.22C20.75,117.99,20.2,118.53,19.53,118.53z M23.14,132.63
		c-0.68,0-1.22-0.55-1.22-1.22c0-0.68,0.55-1.22,1.22-1.22c0.68,0,1.22,0.55,1.22,1.22C24.37,132.08,23.82,132.63,23.14,132.63z
		 M26.41,136.81c-0.85,0-1.53-0.69-1.53-1.53c0-0.84,0.68-1.53,1.53-1.53c0.84,0,1.53,0.69,1.53,1.53
		C27.94,136.13,27.25,136.81,26.41,136.81z"/>
	<path class="st1" d="M18.42,40.91h-3.17c-1.52,0-2.82,1.51-2.82,3.04v4.97c0,0.77,0,1.47,0.73,1.97v29.66
		c-1.71,3.11-10.13,18.46-10.44,24.37c-0.49,9.48,1.2,36.42,1.3,38.14c0.03,4.06,3.34,7.38,7.22,7.38h18.62
		c3.81,0,7.03-3.33,7.06-7.39c0.09-1.69,1.4-28.87,0.9-38.36c-0.31-5.94-9.79-21.03-12.23-24.21v-29.6c0.73-0.5,0.98-1.2,0.98-1.97
		v-4.97c0-1.52-0.97-3.04-2.49-3.04h-3.63H18.42z M34.74,104.91c0.49,9.41-1.1,37.81-1.11,38.09l0-0.05c0,2.28-1.71,4.07-3.74,4.07
		H11.26c-2.06,0-3.87-1.83-3.87-4.07l0-0.03c-0.02-0.28-1.76-28.47-1.27-37.87c0.24-4.6,7.37-18.35,10.15-23.27l0.07-0.36V52.13
		h1.98h2.33h2.03v29.35l0.29,0.41C26.16,86.75,34.51,100.36,34.74,104.91z M24.1,43.59l0,5.12h-3.51h-2.24h-3.23v-5.12h3.28h2.11
		H24.1z"/>
	<path class="st1" d="M18.05,21.7v6.28l4.15,5.08V21.74c0-0.59-0.25-9.65-6.45-15.94C11.96,1.95,7.07,0,0,0v4.15
		c5.85,0,9.79,1.53,12.77,4.54C17.84,13.79,18.05,21.63,18.05,21.7z"/>
	<polygon class="st1" points="39.52,57.98 42.2,57.98 42.2,54.33 46.59,54.33 46.59,51.15 42.2,51.15 42.2,47.01 39.52,47.01 
		39.52,51.15 35.37,51.15 35.37,54.33 39.52,54.33 	"/>
	<path class="st1" d="M61.8,58.47c-0.06,1.09,0.78,2.03,1.87,2.1c1.1,0.06,2.04-0.78,2.1-1.87c0.06-1.09-0.78-2.03-1.87-2.1
		C62.8,56.53,61.86,57.37,61.8,58.47z"/>
	<path class="st1" d="M58.96,52.79c-0.06,1.09,0.78,2.03,1.87,2.1c1.1,0.06,2.04-0.78,2.1-1.87c0.06-1.09-0.78-2.03-1.87-2.1
		C59.96,50.85,59.02,51.69,58.96,52.79z"/>
	<path class="st1" d="M57.99,49.2c1.1,0.06,2.04-0.78,2.1-1.87c0.06-1.09-0.78-2.03-1.87-2.1c-1.1-0.06-2.04,0.78-2.1,1.87
		C56.06,48.2,56.9,49.14,57.99,49.2z"/>
	<path class="st1" d="M57.99,60.57c1.1,0.06,2.04-0.78,2.1-1.87c0.06-1.09-0.78-2.03-1.87-2.1c-1.1-0.06-2.04,0.78-2.1,1.87
		C56.06,59.56,56.9,60.5,57.99,60.57z"/>
	<path class="st1" d="M55.15,54.88c1.1,0.06,2.04-0.78,2.1-1.87c0.06-1.09-0.78-2.03-1.87-2.1c-1.1-0.06-2.04,0.78-2.1,1.88
		C53.22,53.88,54.06,54.82,55.15,54.88z"/>
	<path class="st1" d="M52.31,60.57c1.1,0.06,2.04-0.78,2.1-1.87c0.06-1.09-0.78-2.03-1.87-2.1c-1.1-0.06-2.04,0.78-2.1,1.87
		C50.38,59.56,51.22,60.5,52.31,60.57z"/>
</g>
</svg>
